<svg width="117" height="35" viewBox="0 0 117 35" fill="none" xmlns="http://www.w3.org/2000/svg">
<path opacity="0.5" d="M9.684 24.424L7.632 31H6.504L4.92 25.78L3.336 31H2.208L0.144 24.424H1.26L2.772 29.944L4.404 24.424H5.52L7.116 29.956L8.604 24.424H9.684ZM11.8318 23.356C11.6238 23.356 11.4478 23.284 11.3038 23.14C11.1598 22.996 11.0878 22.82 11.0878 22.612C11.0878 22.404 11.1598 22.228 11.3038 22.084C11.4478 21.94 11.6238 21.868 11.8318 21.868C12.0318 21.868 12.1998 21.94 12.3358 22.084C12.4798 22.228 12.5518 22.404 12.5518 22.612C12.5518 22.82 12.4798 22.996 12.3358 23.14C12.1998 23.284 12.0318 23.356 11.8318 23.356ZM12.3598 24.424V31H11.2678V24.424H12.3598ZM16.0529 25.324V29.2C16.0529 29.52 16.1209 29.748 16.2569 29.884C16.3929 30.012 16.6289 30.076 16.9649 30.076H17.7689V31H16.7849C16.1769 31 15.7209 30.86 15.4169 30.58C15.1129 30.3 14.9609 29.84 14.9609 29.2V25.324H14.1089V24.424H14.9609V22.768H16.0529V24.424H17.7689V25.324H16.0529ZM22.856 24.304C23.352 24.304 23.8 24.412 24.2 24.628C24.6 24.836 24.912 25.152 25.136 25.576C25.368 26 25.484 26.516 25.484 27.124V31H24.404V27.28C24.404 26.624 24.24 26.124 23.912 25.78C23.584 25.428 23.136 25.252 22.568 25.252C21.992 25.252 21.532 25.432 21.188 25.792C20.852 26.152 20.684 26.676 20.684 27.364V31H19.592V22.12H20.684V25.36C20.9 25.024 21.196 24.764 21.572 24.58C21.956 24.396 22.384 24.304 22.856 24.304ZM36.411 29.14H32.763L32.091 31H30.939L33.963 22.684H35.223L38.235 31H37.083L36.411 29.14ZM36.099 28.252L34.587 24.028L33.075 28.252H36.099ZM43.2569 24.304C44.0569 24.304 44.7049 24.548 45.2009 25.036C45.6969 25.516 45.9449 26.212 45.9449 27.124V31H44.8649V27.28C44.8649 26.624 44.7009 26.124 44.3729 25.78C44.0449 25.428 43.5969 25.252 43.0289 25.252C42.4529 25.252 41.9929 25.432 41.6489 25.792C41.3129 26.152 41.1449 26.676 41.1449 27.364V31H40.0529V24.424H41.1449V25.36C41.3609 25.024 41.6529 24.764 42.0209 24.58C42.3969 24.396 42.8089 24.304 43.2569 24.304ZM50.9407 24.316C51.5087 24.316 52.0047 24.44 52.4287 24.688C52.8607 24.936 53.1807 25.248 53.3887 25.624V24.424H54.4927V31.144C54.4927 31.744 54.3647 32.276 54.1087 32.74C53.8527 33.212 53.4847 33.58 53.0047 33.844C52.5327 34.108 51.9807 34.24 51.3487 34.24C50.4847 34.24 49.7647 34.036 49.1887 33.628C48.6127 33.22 48.2727 32.664 48.1687 31.96H49.2487C49.3687 32.36 49.6167 32.68 49.9927 32.92C50.3687 33.168 50.8207 33.292 51.3487 33.292C51.9487 33.292 52.4367 33.104 52.8127 32.728C53.1967 32.352 53.3887 31.824 53.3887 31.144V29.764C53.1727 30.148 52.8527 30.468 52.4287 30.724C52.0047 30.98 51.5087 31.108 50.9407 31.108C50.3567 31.108 49.8247 30.964 49.3447 30.676C48.8727 30.388 48.5007 29.984 48.2287 29.464C47.9567 28.944 47.8207 28.352 47.8207 27.688C47.8207 27.016 47.9567 26.428 48.2287 25.924C48.5007 25.412 48.8727 25.016 49.3447 24.736C49.8247 24.456 50.3567 24.316 50.9407 24.316ZM53.3887 27.7C53.3887 27.204 53.2887 26.772 53.0887 26.404C52.8887 26.036 52.6167 25.756 52.2727 25.564C51.9367 25.364 51.5647 25.264 51.1567 25.264C50.7487 25.264 50.3767 25.36 50.0407 25.552C49.7047 25.744 49.4367 26.024 49.2367 26.392C49.0367 26.76 48.9367 27.192 48.9367 27.688C48.9367 28.192 49.0367 28.632 49.2367 29.008C49.4367 29.376 49.7047 29.66 50.0407 29.86C50.3767 30.052 50.7487 30.148 51.1567 30.148C51.5647 30.148 51.9367 30.052 52.2727 29.86C52.6167 29.66 52.8887 29.376 53.0887 29.008C53.2887 28.632 53.3887 28.196 53.3887 27.7ZM62.8381 27.46C62.8381 27.668 62.8261 27.888 62.8021 28.12H57.5461C57.5861 28.768 57.8061 29.276 58.2061 29.644C58.6141 30.004 59.1061 30.184 59.6821 30.184C60.1541 30.184 60.5461 30.076 60.8581 29.86C61.1781 29.636 61.4021 29.34 61.5301 28.972H62.7061C62.5301 29.604 62.1781 30.12 61.6501 30.52C61.1221 30.912 60.4661 31.108 59.6821 31.108C59.0581 31.108 58.4981 30.968 58.0021 30.688C57.5141 30.408 57.1301 30.012 56.8501 29.5C56.5701 28.98 56.4301 28.38 56.4301 27.7C56.4301 27.02 56.5661 26.424 56.8381 25.912C57.1101 25.4 57.4901 25.008 57.9781 24.736C58.4741 24.456 59.0421 24.316 59.6821 24.316C60.3061 24.316 60.8581 24.452 61.3381 24.724C61.8181 24.996 62.1861 25.372 62.4421 25.852C62.7061 26.324 62.8381 26.86 62.8381 27.46ZM61.7101 27.232C61.7101 26.816 61.6181 26.46 61.4341 26.164C61.2501 25.86 60.9981 25.632 60.6781 25.48C60.3661 25.32 60.0181 25.24 59.6341 25.24C59.0821 25.24 58.6101 25.416 58.2181 25.768C57.8341 26.12 57.6141 26.608 57.5581 27.232H61.7101ZM65.8715 22.12V31H64.7795V22.12H65.8715ZM67.8246 27.688C67.8246 27.016 67.9606 26.428 68.2326 25.924C68.5046 25.412 68.8766 25.016 69.3486 24.736C69.8286 24.456 70.3606 24.316 70.9446 24.316C71.5206 24.316 72.0206 24.44 72.4446 24.688C72.8686 24.936 73.1846 25.248 73.3926 25.624V24.424H74.4966V31H73.3926V29.776C73.1766 30.16 72.8526 30.48 72.4206 30.736C71.9966 30.984 71.5006 31.108 70.9326 31.108C70.3486 31.108 69.8206 30.964 69.3486 30.676C68.8766 30.388 68.5046 29.984 68.2326 29.464C67.9606 28.944 67.8246 28.352 67.8246 27.688ZM73.3926 27.7C73.3926 27.204 73.2926 26.772 73.0926 26.404C72.8926 26.036 72.6206 25.756 72.2766 25.564C71.9406 25.364 71.5686 25.264 71.1606 25.264C70.7526 25.264 70.3806 25.36 70.0446 25.552C69.7086 25.744 69.4406 26.024 69.2406 26.392C69.0406 26.76 68.9406 27.192 68.9406 27.688C68.9406 28.192 69.0406 28.632 69.2406 29.008C69.4406 29.376 69.7086 29.66 70.0446 29.86C70.3806 30.052 70.7526 30.148 71.1606 30.148C71.5686 30.148 71.9406 30.052 72.2766 29.86C72.6206 29.66 72.8926 29.376 73.0926 29.008C73.2926 28.632 73.3926 28.196 73.3926 27.7ZM83.1932 31.084C82.6412 31.084 82.1452 30.988 81.7052 30.796C81.2732 30.596 80.9332 30.324 80.6852 29.98C80.4372 29.628 80.3092 29.224 80.3012 28.768H81.4652C81.5052 29.16 81.6652 29.492 81.9452 29.764C82.2332 30.028 82.6492 30.16 83.1932 30.16C83.7132 30.16 84.1212 30.032 84.4172 29.776C84.7212 29.512 84.8732 29.176 84.8732 28.768C84.8732 28.448 84.7852 28.188 84.6092 27.988C84.4332 27.788 84.2132 27.636 83.9492 27.532C83.6852 27.428 83.3292 27.316 82.8812 27.196C82.3292 27.052 81.8852 26.908 81.5492 26.764C81.2212 26.62 80.9372 26.396 80.6972 26.092C80.4652 25.78 80.3492 25.364 80.3492 24.844C80.3492 24.388 80.4652 23.984 80.6972 23.632C80.9292 23.28 81.2532 23.008 81.6692 22.816C82.0932 22.624 82.5772 22.528 83.1212 22.528C83.9052 22.528 84.5452 22.724 85.0412 23.116C85.5452 23.508 85.8292 24.028 85.8932 24.676H84.6932C84.6532 24.356 84.4852 24.076 84.1892 23.836C83.8932 23.588 83.5012 23.464 83.0132 23.464C82.5572 23.464 82.1852 23.584 81.8972 23.824C81.6092 24.056 81.4652 24.384 81.4652 24.808C81.4652 25.112 81.5492 25.36 81.7172 25.552C81.8932 25.744 82.1052 25.892 82.3532 25.996C82.6092 26.092 82.9652 26.204 83.4212 26.332C83.9732 26.484 84.4172 26.636 84.7532 26.788C85.0892 26.932 85.3772 27.16 85.6172 27.472C85.8572 27.776 85.9772 28.192 85.9772 28.72C85.9772 29.128 85.8692 29.512 85.6532 29.872C85.4372 30.232 85.1172 30.524 84.6932 30.748C84.2692 30.972 83.7692 31.084 83.1932 31.084ZM95.9922 24.304C96.5042 24.304 96.9602 24.412 97.3602 24.628C97.7602 24.836 98.0762 25.152 98.3082 25.576C98.5402 26 98.6562 26.516 98.6562 27.124V31H97.5762V27.28C97.5762 26.624 97.4122 26.124 97.0842 25.78C96.7642 25.428 96.3282 25.252 95.7762 25.252C95.2082 25.252 94.7562 25.436 94.4202 25.804C94.0842 26.164 93.9162 26.688 93.9162 27.376V31H92.8362V27.28C92.8362 26.624 92.6722 26.124 92.3442 25.78C92.0242 25.428 91.5882 25.252 91.0362 25.252C90.4682 25.252 90.0162 25.436 89.6802 25.804C89.3442 26.164 89.1762 26.688 89.1762 27.376V31H88.0842V24.424H89.1762V25.372C89.3922 25.028 89.6802 24.764 90.0402 24.58C90.4082 24.396 90.8122 24.304 91.2522 24.304C91.8042 24.304 92.2922 24.428 92.7162 24.676C93.1402 24.924 93.4562 25.288 93.6642 25.768C93.8482 25.304 94.1522 24.944 94.5762 24.688C95.0002 24.432 95.4722 24.304 95.9922 24.304ZM101.511 23.356C101.303 23.356 101.127 23.284 100.983 23.14C100.839 22.996 100.767 22.82 100.767 22.612C100.767 22.404 100.839 22.228 100.983 22.084C101.127 21.94 101.303 21.868 101.511 21.868C101.711 21.868 101.879 21.94 102.015 22.084C102.159 22.228 102.231 22.404 102.231 22.612C102.231 22.82 102.159 22.996 102.015 23.14C101.879 23.284 101.711 23.356 101.511 23.356ZM102.039 24.424V31H100.947V24.424H102.039ZM105.733 25.324V29.2C105.733 29.52 105.801 29.748 105.937 29.884C106.073 30.012 106.309 30.076 106.645 30.076H107.449V31H106.465C105.857 31 105.401 30.86 105.097 30.58C104.793 30.3 104.641 29.84 104.641 29.2V25.324H103.789V24.424H104.641V22.768H105.733V24.424H107.449V25.324H105.733ZM112.536 24.304C113.032 24.304 113.48 24.412 113.88 24.628C114.28 24.836 114.592 25.152 114.816 25.576C115.048 26 115.164 26.516 115.164 27.124V31H114.084V27.28C114.084 26.624 113.92 26.124 113.592 25.78C113.264 25.428 112.816 25.252 112.248 25.252C111.672 25.252 111.212 25.432 110.868 25.792C110.532 26.152 110.364 26.676 110.364 27.364V31H109.272V22.12H110.364V25.36C110.58 25.024 110.876 24.764 111.252 24.58C111.636 24.396 112.064 24.304 112.536 24.304Z" fill="#2C3A4B"/>
<path d="M3.952 11.091C3.34533 11.091 2.79933 10.987 2.314 10.779C1.82867 10.5623 1.44733 10.259 1.17 9.869C0.892667 9.479 0.754 9.024 0.754 8.504H2.34C2.37467 8.894 2.52633 9.21467 2.795 9.466C3.07233 9.71733 3.458 9.843 3.952 9.843C4.46333 9.843 4.862 9.72167 5.148 9.479C5.434 9.22767 5.577 8.907 5.577 8.517C5.577 8.21367 5.486 7.96667 5.304 7.776C5.13067 7.58533 4.90967 7.438 4.641 7.334C4.381 7.23 4.017 7.11733 3.549 6.996C2.95967 6.84 2.47867 6.684 2.106 6.528C1.742 6.36333 1.43 6.112 1.17 5.774C0.91 5.436 0.78 4.98533 0.78 4.422C0.78 3.902 0.91 3.447 1.17 3.057C1.43 2.667 1.794 2.368 2.262 2.16C2.73 1.952 3.27167 1.848 3.887 1.848C4.76233 1.848 5.47733 2.069 6.032 2.511C6.59533 2.94433 6.90733 3.54233 6.968 4.305H5.33C5.304 3.97567 5.148 3.694 4.862 3.46C4.576 3.226 4.199 3.109 3.731 3.109C3.30633 3.109 2.95967 3.21733 2.691 3.434C2.42233 3.65067 2.288 3.96267 2.288 4.37C2.288 4.64733 2.37033 4.877 2.535 5.059C2.70833 5.23233 2.925 5.371 3.185 5.475C3.445 5.579 3.80033 5.69167 4.251 5.813C4.849 5.97767 5.33433 6.14233 5.707 6.307C6.08833 6.47167 6.409 6.72733 6.669 7.074C6.93767 7.412 7.072 7.867 7.072 8.439C7.072 8.89833 6.94633 9.33167 6.695 9.739C6.45233 10.1463 6.09267 10.4757 5.616 10.727C5.148 10.9697 4.59333 11.091 3.952 11.091ZM10.8497 5.046V9.011C10.8497 9.27967 10.9104 9.47467 11.0317 9.596C11.1617 9.70867 11.3784 9.765 11.6817 9.765H12.5917V11H11.4217C10.7544 11 10.243 10.844 9.8877 10.532C9.53237 10.22 9.3547 9.713 9.3547 9.011V5.046H8.5097V3.837H9.3547V2.056H10.8497V3.837H12.5917V5.046H10.8497ZM13.7636 7.386C13.7636 6.66667 13.911 6.02967 14.2056 5.475C14.509 4.92033 14.9163 4.49133 15.4276 4.188C15.9476 3.876 16.5196 3.72 17.1436 3.72C17.707 3.72 18.1966 3.83267 18.6126 4.058C19.0373 4.27467 19.3753 4.54767 19.6266 4.877V3.837H21.1216V11H19.6266V9.934C19.3753 10.272 19.033 10.5537 18.5996 10.779C18.1663 11.0043 17.6723 11.117 17.1176 11.117C16.5023 11.117 15.939 10.961 15.4276 10.649C14.9163 10.3283 14.509 9.88633 14.2056 9.323C13.911 8.751 13.7636 8.10533 13.7636 7.386ZM19.6266 7.412C19.6266 6.918 19.5226 6.489 19.3146 6.125C19.1153 5.761 18.851 5.48367 18.5216 5.293C18.1923 5.10233 17.837 5.007 17.4556 5.007C17.0743 5.007 16.719 5.10233 16.3896 5.293C16.0603 5.475 15.7916 5.748 15.5836 6.112C15.3843 6.46733 15.2846 6.892 15.2846 7.386C15.2846 7.88 15.3843 8.31333 15.5836 8.686C15.7916 9.05867 16.0603 9.34467 16.3896 9.544C16.7276 9.73467 17.083 9.83 17.4556 9.83C17.837 9.83 18.1923 9.73467 18.5216 9.544C18.851 9.35333 19.1153 9.076 19.3146 8.712C19.5226 8.33933 19.6266 7.906 19.6266 7.412ZM24.8502 4.877C25.0668 4.513 25.3528 4.23133 25.7082 4.032C26.0722 3.824 26.5012 3.72 26.9952 3.72V5.254H26.6182C26.0375 5.254 25.5955 5.40133 25.2922 5.696C24.9975 5.99067 24.8502 6.502 24.8502 7.23V11H23.3682V3.837H24.8502V4.877ZM30.3864 5.046V9.011C30.3864 9.27967 30.4471 9.47467 30.5684 9.596C30.6984 9.70867 30.9151 9.765 31.2184 9.765H32.1284V11H30.9584C30.2911 11 29.7798 10.844 29.4244 10.532C29.0691 10.22 28.8914 9.713 28.8914 9.011V5.046H28.0464V3.837H28.8914V2.056H30.3864V3.837H32.1284V5.046H30.3864ZM45.2583 1.965L41.8653 11H40.1493L36.7433 1.965H38.3293L41.0073 9.479L43.6983 1.965H45.2583ZM47.5517 2.888C47.283 2.888 47.0577 2.797 46.8757 2.615C46.6937 2.433 46.6027 2.20767 46.6027 1.939C46.6027 1.67033 46.6937 1.445 46.8757 1.263C47.0577 1.081 47.283 0.989999 47.5517 0.989999C47.8117 0.989999 48.0327 1.081 48.2147 1.263C48.3967 1.445 48.4877 1.67033 48.4877 1.939C48.4877 2.20767 48.3967 2.433 48.2147 2.615C48.0327 2.797 47.8117 2.888 47.5517 2.888ZM48.2797 3.837V11H46.7977V3.837H48.2797ZM50.0314 7.386C50.0314 6.66667 50.1787 6.02967 50.4734 5.475C50.7767 4.92033 51.1841 4.49133 51.6954 4.188C52.2154 3.876 52.7917 3.72 53.4244 3.72C53.8924 3.72 54.3517 3.824 54.8024 4.032C55.2617 4.23133 55.6257 4.5 55.8944 4.838V1.38H57.3894V11H55.8944V9.921C55.6517 10.2677 55.3137 10.5537 54.8804 10.779C54.4557 11.0043 53.9661 11.117 53.4114 11.117C52.7874 11.117 52.2154 10.961 51.6954 10.649C51.1841 10.3283 50.7767 9.88633 50.4734 9.323C50.1787 8.751 50.0314 8.10533 50.0314 7.386ZM55.8944 7.412C55.8944 6.918 55.7904 6.489 55.5824 6.125C55.3831 5.761 55.1187 5.48367 54.7894 5.293C54.4601 5.10233 54.1047 5.007 53.7234 5.007C53.3421 5.007 52.9867 5.10233 52.6574 5.293C52.3281 5.475 52.0594 5.748 51.8514 6.112C51.6521 6.46733 51.5524 6.892 51.5524 7.386C51.5524 7.88 51.6521 8.31333 51.8514 8.686C52.0594 9.05867 52.3281 9.34467 52.6574 9.544C52.9954 9.73467 53.3507 9.83 53.7234 9.83C54.1047 9.83 54.4601 9.73467 54.7894 9.544C55.1187 9.35333 55.3831 9.076 55.5824 8.712C55.7904 8.33933 55.8944 7.906 55.8944 7.412ZM66.2009 7.243C66.2009 7.51167 66.1836 7.75433 66.1489 7.971H60.6759C60.7193 8.543 60.9316 9.00233 61.3129 9.349C61.6943 9.69567 62.1623 9.869 62.7169 9.869C63.5143 9.869 64.0776 9.53533 64.4069 8.868H66.0059C65.7893 9.52667 65.3949 10.0683 64.8229 10.493C64.2596 10.909 63.5576 11.117 62.7169 11.117C62.0323 11.117 61.4169 10.9653 60.8709 10.662C60.3336 10.35 59.9089 9.91667 59.5969 9.362C59.2936 8.79867 59.1419 8.14867 59.1419 7.412C59.1419 6.67533 59.2893 6.02967 59.5839 5.475C59.8873 4.91167 60.3076 4.47833 60.8449 4.175C61.3909 3.87167 62.0149 3.72 62.7169 3.72C63.3929 3.72 63.9953 3.86733 64.5239 4.162C65.0526 4.45667 65.4643 4.87267 65.7589 5.41C66.0536 5.93867 66.2009 6.54967 66.2009 7.243ZM64.6539 6.775C64.6453 6.229 64.4503 5.79133 64.0689 5.462C63.6876 5.13267 63.2153 4.968 62.6519 4.968C62.1406 4.968 61.7029 5.13267 61.3389 5.462C60.9749 5.78267 60.7583 6.22033 60.6889 6.775H64.6539ZM71.0664 11.117C70.3904 11.117 69.7794 10.9653 69.2334 10.662C68.6874 10.35 68.2584 9.91667 67.9464 9.362C67.6344 8.79867 67.4784 8.14867 67.4784 7.412C67.4784 6.684 67.6387 6.03833 67.9594 5.475C68.28 4.91167 68.7177 4.47833 69.2724 4.175C69.827 3.87167 70.4467 3.72 71.1314 3.72C71.816 3.72 72.4357 3.87167 72.9904 4.175C73.545 4.47833 73.9827 4.91167 74.3034 5.475C74.624 6.03833 74.7844 6.684 74.7844 7.412C74.7844 8.14 74.6197 8.78567 74.2904 9.349C73.961 9.91233 73.5104 10.35 72.9384 10.662C72.375 10.9653 71.751 11.117 71.0664 11.117ZM71.0664 9.83C71.4477 9.83 71.803 9.739 72.1324 9.557C72.4704 9.375 72.7434 9.102 72.9514 8.738C73.1594 8.374 73.2634 7.932 73.2634 7.412C73.2634 6.892 73.1637 6.45433 72.9644 6.099C72.765 5.735 72.5007 5.462 72.1714 5.28C71.842 5.098 71.4867 5.007 71.1054 5.007C70.724 5.007 70.3687 5.098 70.0394 5.28C69.7187 5.462 69.463 5.735 69.2724 6.099C69.0817 6.45433 68.9864 6.892 68.9864 7.412C68.9864 8.18333 69.1814 8.78133 69.5714 9.206C69.97 9.622 70.4684 9.83 71.0664 9.83ZM79.7324 6.463C79.7324 5.579 79.936 4.786 80.3434 4.084C80.7594 3.382 81.3184 2.836 82.0204 2.446C82.731 2.04733 83.5067 1.848 84.3474 1.848C85.3094 1.848 86.163 2.08633 86.9084 2.563C87.6624 3.031 88.2084 3.69833 88.5464 4.565H86.7654C86.5314 4.08833 86.2064 3.733 85.7904 3.499C85.3744 3.265 84.8934 3.148 84.3474 3.148C83.7494 3.148 83.2164 3.28233 82.7484 3.551C82.2804 3.81967 81.912 4.20533 81.6434 4.708C81.3834 5.21067 81.2534 5.79567 81.2534 6.463C81.2534 7.13033 81.3834 7.71533 81.6434 8.218C81.912 8.72067 82.2804 9.11067 82.7484 9.388C83.2164 9.65667 83.7494 9.791 84.3474 9.791C84.8934 9.791 85.3744 9.674 85.7904 9.44C86.2064 9.206 86.5314 8.85067 86.7654 8.374H88.5464C88.2084 9.24067 87.6624 9.908 86.9084 10.376C86.163 10.844 85.3094 11.078 84.3474 11.078C83.498 11.078 82.7224 10.883 82.0204 10.493C81.3184 10.0943 80.7594 9.544 80.3434 8.842C79.936 8.14 79.7324 7.347 79.7324 6.463ZM90.0871 7.386C90.0871 6.66667 90.2344 6.02967 90.5291 5.475C90.8324 4.92033 91.2397 4.49133 91.7511 4.188C92.2711 3.876 92.8431 3.72 93.4671 3.72C94.0304 3.72 94.5201 3.83267 94.9361 4.058C95.3607 4.27467 95.6987 4.54767 95.9501 4.877V3.837H97.4451V11H95.9501V9.934C95.6987 10.272 95.3564 10.5537 94.9231 10.779C94.4897 11.0043 93.9957 11.117 93.4411 11.117C92.8257 11.117 92.2624 10.961 91.7511 10.649C91.2397 10.3283 90.8324 9.88633 90.5291 9.323C90.2344 8.751 90.0871 8.10533 90.0871 7.386ZM95.9501 7.412C95.9501 6.918 95.8461 6.489 95.6381 6.125C95.4387 5.761 95.1744 5.48367 94.8451 5.293C94.5157 5.10233 94.1604 5.007 93.7791 5.007C93.3977 5.007 93.0424 5.10233 92.7131 5.293C92.3837 5.475 92.1151 5.748 91.9071 6.112C91.7077 6.46733 91.6081 6.892 91.6081 7.386C91.6081 7.88 91.7077 8.31333 91.9071 8.686C92.1151 9.05867 92.3837 9.34467 92.7131 9.544C93.0511 9.73467 93.4064 9.83 93.7791 9.83C94.1604 9.83 94.5157 9.73467 94.8451 9.544C95.1744 9.35333 95.4387 9.076 95.6381 8.712C95.8461 8.33933 95.9501 7.906 95.9501 7.412ZM101.174 1.38V11H99.6916V1.38H101.174ZM104.901 1.38V11H103.419V1.38H104.901Z" fill="#273240"/>
</svg>
