<svg width="61" height="61" viewBox="0 0 61 61" fill="none" xmlns="http://www.w3.org/2000/svg">
<circle cx="30.5" cy="30.5" r="30.5" fill="#43B671"/>
<path fill-rule="evenodd" clip-rule="evenodd" d="M25.113 23.5H30.9051C33.3271 23.5 35.0181 25.169 35.0181 27.5609V34.4391C35.0181 36.831 33.3271 38.5 30.9051 38.5H25.113C22.691 38.5 21 36.831 21 34.4391V27.5609C21 25.169 22.691 23.5 25.113 23.5ZM38.958 25.879C39.397 25.6556 39.912 25.679 40.331 25.9429C40.75 26.2059 41 26.6627 41 27.1622V34.8384C41 35.3389 40.75 35.7947 40.331 36.0577C40.102 36.2008 39.846 36.2739 39.588 36.2739C39.373 36.2739 39.158 36.2231 38.957 36.1206L37.476 35.3734C36.928 35.0952 36.588 34.5369 36.588 33.9165V28.083C36.588 27.4617 36.928 26.9034 37.476 26.6272L38.958 25.879Z" fill="white"/>
</svg>
