<svg width="842" height="283" viewBox="0 0 842 283" fill="none" xmlns="http://www.w3.org/2000/svg">
<g filter="url(#filter0_d_605_139)">
<path fill-rule="evenodd" clip-rule="evenodd" d="M80 60C80 54.4772 84.4772 50 90 50H752C757.523 50 762 54.4772 762 60V163C762 168.523 757.523 173 752 173H90C84.4771 173 80 168.523 80 163V60Z" fill="white"/>
</g>
<path fill-rule="evenodd" clip-rule="evenodd" d="M544 88C544 82.4772 548.477 78 554 78L724 78C729.523 78 734 82.4772 734 88V135C734 140.523 729.523 145 724 145H554C548.477 145 544 140.523 544 135V88Z" fill="#725BA2"/>
<path d="M615.006 117L612.85 113.192H611.926V117H609.966V107.228H613.634C614.39 107.228 615.034 107.363 615.566 107.634C616.098 107.895 616.495 108.255 616.756 108.712C617.027 109.16 617.162 109.664 617.162 110.224C617.162 110.868 616.975 111.451 616.602 111.974C616.229 112.487 615.673 112.842 614.936 113.038L617.274 117H615.006ZM611.926 111.722H613.564C614.096 111.722 614.493 111.596 614.754 111.344C615.015 111.083 615.146 110.723 615.146 110.266C615.146 109.818 615.015 109.473 614.754 109.23C614.493 108.978 614.096 108.852 613.564 108.852H611.926V111.722ZM626.468 112.954C626.468 113.234 626.449 113.486 626.412 113.71H620.742C620.788 114.27 620.984 114.709 621.33 115.026C621.675 115.343 622.1 115.502 622.604 115.502C623.332 115.502 623.85 115.189 624.158 114.564H626.272C626.048 115.311 625.618 115.927 624.984 116.412C624.349 116.888 623.57 117.126 622.646 117.126C621.899 117.126 621.227 116.963 620.63 116.636C620.042 116.3 619.58 115.829 619.244 115.222C618.917 114.615 618.754 113.915 618.754 113.122C618.754 112.319 618.917 111.615 619.244 111.008C619.57 110.401 620.028 109.935 620.616 109.608C621.204 109.281 621.88 109.118 622.646 109.118C623.383 109.118 624.041 109.277 624.62 109.594C625.208 109.911 625.66 110.364 625.978 110.952C626.304 111.531 626.468 112.198 626.468 112.954ZM624.438 112.394C624.428 111.89 624.246 111.489 623.892 111.19C623.537 110.882 623.103 110.728 622.59 110.728C622.104 110.728 621.694 110.877 621.358 111.176C621.031 111.465 620.83 111.871 620.756 112.394H624.438ZM631.26 109.118C631.838 109.118 632.347 109.235 632.786 109.468C633.224 109.692 633.57 109.986 633.822 110.35V109.244H635.796V117.056C635.796 117.775 635.651 118.414 635.362 118.974C635.072 119.543 634.638 119.991 634.06 120.318C633.481 120.654 632.781 120.822 631.96 120.822C630.858 120.822 629.953 120.565 629.244 120.052C628.544 119.539 628.147 118.839 628.054 117.952H630C630.102 118.307 630.322 118.587 630.658 118.792C631.003 119.007 631.418 119.114 631.904 119.114C632.473 119.114 632.935 118.941 633.29 118.596C633.644 118.26 633.822 117.747 633.822 117.056V115.852C633.57 116.216 633.22 116.519 632.772 116.762C632.333 117.005 631.829 117.126 631.26 117.126C630.606 117.126 630.009 116.958 629.468 116.622C628.926 116.286 628.497 115.815 628.18 115.208C627.872 114.592 627.718 113.887 627.718 113.094C627.718 112.31 627.872 111.615 628.18 111.008C628.497 110.401 628.922 109.935 629.454 109.608C629.995 109.281 630.597 109.118 631.26 109.118ZM633.822 113.122C633.822 112.646 633.728 112.24 633.542 111.904C633.355 111.559 633.103 111.297 632.786 111.12C632.468 110.933 632.128 110.84 631.764 110.84C631.4 110.84 631.064 110.929 630.756 111.106C630.448 111.283 630.196 111.545 630 111.89C629.813 112.226 629.72 112.627 629.72 113.094C629.72 113.561 629.813 113.971 630 114.326C630.196 114.671 630.448 114.937 630.756 115.124C631.073 115.311 631.409 115.404 631.764 115.404C632.128 115.404 632.468 115.315 632.786 115.138C633.103 114.951 633.355 114.69 633.542 114.354C633.728 114.009 633.822 113.598 633.822 113.122ZM639.027 108.32C638.682 108.32 638.392 108.213 638.159 107.998C637.935 107.774 637.823 107.499 637.823 107.172C637.823 106.845 637.935 106.575 638.159 106.36C638.392 106.136 638.682 106.024 639.027 106.024C639.372 106.024 639.657 106.136 639.881 106.36C640.114 106.575 640.231 106.845 640.231 107.172C640.231 107.499 640.114 107.774 639.881 107.998C639.657 108.213 639.372 108.32 639.027 108.32ZM639.993 109.244V117H638.033V109.244H639.993ZM645.22 117.126C644.586 117.126 644.016 117.014 643.512 116.79C643.008 116.557 642.607 116.244 642.308 115.852C642.019 115.46 641.86 115.026 641.832 114.55H643.806C643.844 114.849 643.988 115.096 644.24 115.292C644.502 115.488 644.824 115.586 645.206 115.586C645.58 115.586 645.869 115.511 646.074 115.362C646.289 115.213 646.396 115.021 646.396 114.788C646.396 114.536 646.266 114.349 646.004 114.228C645.752 114.097 645.346 113.957 644.786 113.808C644.208 113.668 643.732 113.523 643.358 113.374C642.994 113.225 642.677 112.996 642.406 112.688C642.145 112.38 642.014 111.965 642.014 111.442C642.014 111.013 642.136 110.621 642.378 110.266C642.63 109.911 642.985 109.631 643.442 109.426C643.909 109.221 644.455 109.118 645.08 109.118C646.004 109.118 646.742 109.351 647.292 109.818C647.843 110.275 648.146 110.896 648.202 111.68H646.326C646.298 111.372 646.168 111.129 645.934 110.952C645.71 110.765 645.407 110.672 645.024 110.672C644.67 110.672 644.394 110.737 644.198 110.868C644.012 110.999 643.918 111.181 643.918 111.414C643.918 111.675 644.049 111.876 644.31 112.016C644.572 112.147 644.978 112.282 645.528 112.422C646.088 112.562 646.55 112.707 646.914 112.856C647.278 113.005 647.591 113.239 647.852 113.556C648.123 113.864 648.263 114.275 648.272 114.788C648.272 115.236 648.146 115.637 647.894 115.992C647.652 116.347 647.297 116.627 646.83 116.832C646.373 117.028 645.836 117.126 645.22 117.126ZM652.486 110.854V114.606C652.486 114.867 652.547 115.059 652.668 115.18C652.799 115.292 653.014 115.348 653.312 115.348H654.222V117H652.99C651.338 117 650.512 116.197 650.512 114.592V110.854H649.588V109.244H650.512V107.326H652.486V109.244H654.222V110.854H652.486ZM663.165 112.954C663.165 113.234 663.147 113.486 663.109 113.71H657.439C657.486 114.27 657.682 114.709 658.027 115.026C658.373 115.343 658.797 115.502 659.301 115.502C660.029 115.502 660.547 115.189 660.855 114.564H662.969C662.745 115.311 662.316 115.927 661.681 116.412C661.047 116.888 660.267 117.126 659.343 117.126C658.597 117.126 657.925 116.963 657.327 116.636C656.739 116.3 656.277 115.829 655.941 115.222C655.615 114.615 655.451 113.915 655.451 113.122C655.451 112.319 655.615 111.615 655.941 111.008C656.268 110.401 656.725 109.935 657.313 109.608C657.901 109.281 658.578 109.118 659.343 109.118C660.081 109.118 660.739 109.277 661.317 109.594C661.905 109.911 662.358 110.364 662.675 110.952C663.002 111.531 663.165 112.198 663.165 112.954ZM661.135 112.394C661.126 111.89 660.944 111.489 660.589 111.19C660.235 110.882 659.801 110.728 659.287 110.728C658.802 110.728 658.391 110.877 658.055 111.176C657.729 111.465 657.528 111.871 657.453 112.394H661.135ZM666.879 110.448C667.131 110.037 667.458 109.715 667.859 109.482C668.27 109.249 668.736 109.132 669.259 109.132V111.19H668.741C668.125 111.19 667.658 111.335 667.341 111.624C667.033 111.913 666.879 112.417 666.879 113.136V117H664.919V109.244H666.879V110.448Z" fill="white"/>
<path d="M126.325 135.207C125.328 135.207 124.431 135.031 123.634 134.678C122.852 134.31 122.231 133.819 121.771 133.206C121.311 132.577 121.066 131.88 121.035 131.113H123.749C123.795 131.65 124.048 132.102 124.508 132.47C124.983 132.823 125.574 132.999 126.279 132.999C127.015 132.999 127.582 132.861 127.981 132.585C128.395 132.294 128.602 131.926 128.602 131.481C128.602 131.006 128.372 130.653 127.912 130.423C127.467 130.193 126.754 129.94 125.773 129.664C124.822 129.403 124.048 129.15 123.45 128.905C122.852 128.66 122.331 128.284 121.886 127.778C121.457 127.272 121.242 126.605 121.242 125.777C121.242 125.102 121.441 124.489 121.84 123.937C122.239 123.37 122.806 122.925 123.542 122.603C124.293 122.281 125.152 122.12 126.118 122.12C127.559 122.12 128.717 122.488 129.591 123.224C130.48 123.945 130.956 124.934 131.017 126.191H128.395C128.349 125.624 128.119 125.171 127.705 124.834C127.291 124.497 126.731 124.328 126.026 124.328C125.336 124.328 124.807 124.458 124.439 124.719C124.071 124.98 123.887 125.325 123.887 125.754C123.887 126.091 124.01 126.375 124.255 126.605C124.5 126.835 124.799 127.019 125.152 127.157C125.505 127.28 126.026 127.441 126.716 127.64C127.636 127.885 128.387 128.138 128.97 128.399C129.568 128.644 130.082 129.012 130.511 129.503C130.94 129.994 131.163 130.645 131.178 131.458C131.178 132.179 130.979 132.823 130.58 133.39C130.181 133.957 129.614 134.402 128.878 134.724C128.157 135.046 127.306 135.207 126.325 135.207ZM133.367 128.606C133.367 127.333 133.628 126.206 134.149 125.225C134.686 124.244 135.406 123.485 136.311 122.948C137.231 122.396 138.243 122.12 139.347 122.12C140.344 122.12 141.21 122.319 141.946 122.718C142.697 123.101 143.295 123.584 143.74 124.167V122.327H146.385V135H143.74V133.114C143.295 133.712 142.69 134.21 141.923 134.609C141.156 135.008 140.282 135.207 139.301 135.207C138.212 135.207 137.216 134.931 136.311 134.379C135.406 133.812 134.686 133.03 134.149 132.033C133.628 131.021 133.367 129.879 133.367 128.606ZM143.74 128.652C143.74 127.778 143.556 127.019 143.188 126.375C142.835 125.731 142.368 125.24 141.785 124.903C141.202 124.566 140.574 124.397 139.899 124.397C139.224 124.397 138.596 124.566 138.013 124.903C137.43 125.225 136.955 125.708 136.587 126.352C136.234 126.981 136.058 127.732 136.058 128.606C136.058 129.48 136.234 130.247 136.587 130.906C136.955 131.565 137.43 132.071 138.013 132.424C138.611 132.761 139.24 132.93 139.899 132.93C140.574 132.93 141.202 132.761 141.785 132.424C142.368 132.087 142.835 131.596 143.188 130.952C143.556 130.293 143.74 129.526 143.74 128.652ZM165.4 122.12C166.397 122.12 167.286 122.327 168.068 122.741C168.865 123.155 169.486 123.768 169.931 124.581C170.391 125.394 170.621 126.375 170.621 127.525V135H168.022V127.916C168.022 126.781 167.738 125.915 167.171 125.317C166.604 124.704 165.829 124.397 164.848 124.397C163.867 124.397 163.085 124.704 162.502 125.317C161.935 125.915 161.651 126.781 161.651 127.916V135H159.052V127.916C159.052 126.781 158.768 125.915 158.201 125.317C157.634 124.704 156.859 124.397 155.878 124.397C154.897 124.397 154.115 124.704 153.532 125.317C152.965 125.915 152.681 126.781 152.681 127.916V135H150.059V122.327H152.681V123.776C153.11 123.255 153.655 122.848 154.314 122.557C154.973 122.266 155.679 122.12 156.43 122.12C157.442 122.12 158.347 122.335 159.144 122.764C159.941 123.193 160.555 123.814 160.984 124.627C161.367 123.86 161.965 123.255 162.778 122.81C163.591 122.35 164.465 122.12 165.4 122.12ZM173.313 128.606C173.313 127.333 173.574 126.206 174.095 125.225C174.632 124.244 175.353 123.485 176.257 122.948C177.177 122.396 178.189 122.12 179.293 122.12C180.29 122.12 181.156 122.319 181.892 122.718C182.644 123.101 183.242 123.584 183.686 124.167V122.327H186.331V135H183.686V133.114C183.242 133.712 182.636 134.21 181.869 134.609C181.103 135.008 180.229 135.207 179.247 135.207C178.159 135.207 177.162 134.931 176.257 134.379C175.353 133.812 174.632 133.03 174.095 132.033C173.574 131.021 173.313 129.879 173.313 128.606ZM183.686 128.652C183.686 127.778 183.502 127.019 183.134 126.375C182.782 125.731 182.314 125.24 181.731 124.903C181.149 124.566 180.52 124.397 179.845 124.397C179.171 124.397 178.542 124.566 177.959 124.903C177.377 125.225 176.901 125.708 176.533 126.352C176.181 126.981 176.004 127.732 176.004 128.606C176.004 129.48 176.181 130.247 176.533 130.906C176.901 131.565 177.377 132.071 177.959 132.424C178.557 132.761 179.186 132.93 179.845 132.93C180.52 132.93 181.149 132.761 181.731 132.424C182.314 132.087 182.782 131.596 183.134 130.952C183.502 130.293 183.686 129.526 183.686 128.652ZM196.399 122.12C197.396 122.12 198.285 122.327 199.067 122.741C199.865 123.155 200.486 123.768 200.93 124.581C201.375 125.394 201.597 126.375 201.597 127.525V135H198.998V127.916C198.998 126.781 198.715 125.915 198.147 125.317C197.58 124.704 196.806 124.397 195.824 124.397C194.843 124.397 194.061 124.704 193.478 125.317C192.911 125.915 192.627 126.781 192.627 127.916V135H190.005V122.327H192.627V123.776C193.057 123.255 193.601 122.848 194.26 122.557C194.935 122.266 195.648 122.12 196.399 122.12ZM208.231 124.466V131.481C208.231 131.956 208.338 132.301 208.553 132.516C208.783 132.715 209.166 132.815 209.703 132.815H211.313V135H209.243C208.062 135 207.158 134.724 206.529 134.172C205.9 133.62 205.586 132.723 205.586 131.481V124.466H204.091V122.327H205.586V119.176H208.231V122.327H211.313V124.466H208.231ZM220.514 122.12C221.48 122.12 222.339 122.327 223.09 122.741C223.857 123.155 224.455 123.768 224.884 124.581C225.329 125.394 225.551 126.375 225.551 127.525V135H222.952V127.916C222.952 126.781 222.669 125.915 222.101 125.317C221.534 124.704 220.76 124.397 219.778 124.397C218.797 124.397 218.015 124.704 217.432 125.317C216.865 125.915 216.581 126.781 216.581 127.916V135H213.959V117.98H216.581V123.799C217.026 123.262 217.586 122.848 218.26 122.557C218.95 122.266 219.702 122.12 220.514 122.12ZM228.252 128.606C228.252 127.333 228.513 126.206 229.034 125.225C229.571 124.244 230.291 123.485 231.196 122.948C232.116 122.396 233.128 122.12 234.232 122.12C235.229 122.12 236.095 122.319 236.831 122.718C237.582 123.101 238.18 123.584 238.625 124.167V122.327H241.27V135H238.625V133.114C238.18 133.712 237.575 134.21 236.808 134.609C236.041 135.008 235.167 135.207 234.186 135.207C233.097 135.207 232.101 134.931 231.196 134.379C230.291 133.812 229.571 133.03 229.034 132.033C228.513 131.021 228.252 129.879 228.252 128.606ZM238.625 128.652C238.625 127.778 238.441 127.019 238.073 126.375C237.72 125.731 237.253 125.24 236.67 124.903C236.087 124.566 235.459 124.397 234.784 124.397C234.109 124.397 233.481 124.566 232.898 124.903C232.315 125.225 231.84 125.708 231.472 126.352C231.119 126.981 230.943 127.732 230.943 128.606C230.943 129.48 231.119 130.247 231.472 130.906C231.84 131.565 232.315 132.071 232.898 132.424C233.496 132.761 234.125 132.93 234.784 132.93C235.459 132.93 236.087 132.761 236.67 132.424C237.253 132.087 237.72 131.596 238.073 130.952C238.441 130.293 238.625 129.526 238.625 128.652ZM256.743 120.142C258.491 120.142 260.001 120.464 261.274 121.108C262.547 121.752 263.513 122.657 264.172 123.822C264.847 124.972 265.184 126.314 265.184 127.847C265.184 129.074 264.969 130.247 264.54 131.366C264.126 132.485 263.52 133.398 262.723 134.103C261.941 134.808 261.013 135.161 259.94 135.161C259.158 135.161 258.545 134.992 258.1 134.655C257.655 134.302 257.379 133.812 257.272 133.183C256.797 133.796 256.199 134.279 255.478 134.632C254.757 134.985 254.006 135.161 253.224 135.161C252.043 135.161 251.116 134.808 250.441 134.103C249.782 133.382 249.452 132.409 249.452 131.182C249.452 130.017 249.69 128.928 250.165 127.916C250.656 126.904 251.338 126.099 252.212 125.501C253.086 124.888 254.067 124.581 255.156 124.581C256.49 124.581 257.425 125.033 257.962 125.938L258.169 124.788H260.446L259.296 131.366C259.25 131.688 259.227 131.972 259.227 132.217C259.227 132.616 259.304 132.915 259.457 133.114C259.626 133.313 259.917 133.413 260.331 133.413C260.914 133.413 261.412 133.129 261.826 132.562C262.24 131.979 262.547 131.266 262.746 130.423C262.961 129.58 263.068 128.759 263.068 127.962C263.068 126.015 262.501 124.527 261.366 123.5C260.231 122.473 258.583 121.959 256.421 121.959C254.612 121.959 252.986 122.388 251.545 123.247C250.119 124.106 249 125.286 248.187 126.789C247.374 128.292 246.968 129.963 246.968 131.803C246.968 133.766 247.551 135.261 248.716 136.288C249.881 137.315 251.545 137.829 253.707 137.829C255.164 137.829 256.436 137.561 257.525 137.024L257.87 138.772C256.475 139.37 254.911 139.669 253.178 139.669C251.507 139.669 250.042 139.355 248.785 138.726C247.528 138.097 246.554 137.2 245.864 136.035C245.174 134.885 244.829 133.543 244.829 132.01C244.829 129.817 245.335 127.816 246.347 126.007C247.374 124.198 248.793 122.772 250.602 121.729C252.411 120.671 254.458 120.142 256.743 120.142ZM254.029 133.137C254.673 133.137 255.256 132.953 255.777 132.585C256.314 132.202 256.735 131.703 257.042 131.09C257.349 130.461 257.502 129.794 257.502 129.089C257.502 128.353 257.295 127.755 256.881 127.295C256.482 126.82 255.915 126.582 255.179 126.582C254.52 126.582 253.937 126.789 253.431 127.203C252.94 127.602 252.557 128.123 252.281 128.767C252.02 129.411 251.89 130.086 251.89 130.791C251.89 131.512 252.066 132.087 252.419 132.516C252.772 132.93 253.308 133.137 254.029 133.137ZM280.373 128.353C280.373 128.828 280.342 129.258 280.281 129.641H270.598C270.675 130.653 271.05 131.466 271.725 132.079C272.4 132.692 273.228 132.999 274.209 132.999C275.62 132.999 276.616 132.409 277.199 131.228H280.028C279.645 132.393 278.947 133.352 277.935 134.103C276.938 134.839 275.696 135.207 274.209 135.207C272.998 135.207 271.909 134.939 270.943 134.402C269.992 133.85 269.241 133.083 268.689 132.102C268.152 131.105 267.884 129.955 267.884 128.652C267.884 127.349 268.145 126.206 268.666 125.225C269.203 124.228 269.946 123.462 270.897 122.925C271.863 122.388 272.967 122.12 274.209 122.12C275.405 122.12 276.471 122.381 277.406 122.902C278.341 123.423 279.07 124.159 279.591 125.11C280.112 126.045 280.373 127.126 280.373 128.353ZM277.636 127.525C277.621 126.559 277.276 125.785 276.601 125.202C275.926 124.619 275.091 124.328 274.094 124.328C273.189 124.328 272.415 124.619 271.771 125.202C271.127 125.769 270.744 126.544 270.621 127.525H277.636ZM298.524 122.12C299.521 122.12 300.41 122.327 301.192 122.741C301.99 123.155 302.611 123.768 303.055 124.581C303.515 125.394 303.745 126.375 303.745 127.525V135H301.146V127.916C301.146 126.781 300.863 125.915 300.295 125.317C299.728 124.704 298.954 124.397 297.972 124.397C296.991 124.397 296.209 124.704 295.626 125.317C295.059 125.915 294.775 126.781 294.775 127.916V135H292.176V127.916C292.176 126.781 291.893 125.915 291.325 125.317C290.758 124.704 289.984 124.397 289.002 124.397C288.021 124.397 287.239 124.704 286.656 125.317C286.089 125.915 285.805 126.781 285.805 127.916V135H283.183V122.327H285.805V123.776C286.235 123.255 286.779 122.848 287.438 122.557C288.098 122.266 288.803 122.12 289.554 122.12C290.566 122.12 291.471 122.335 292.268 122.764C293.066 123.193 293.679 123.814 294.108 124.627C294.492 123.86 295.09 123.255 295.902 122.81C296.715 122.35 297.589 122.12 298.524 122.12ZM306.438 128.606C306.438 127.333 306.698 126.206 307.22 125.225C307.756 124.244 308.477 123.485 309.382 122.948C310.302 122.396 311.314 122.12 312.418 122.12C313.414 122.12 314.281 122.319 315.017 122.718C315.768 123.101 316.366 123.584 316.811 124.167V122.327H319.456V135H316.811V133.114C316.366 133.712 315.76 134.21 314.994 134.609C314.227 135.008 313.353 135.207 312.372 135.207C311.283 135.207 310.286 134.931 309.382 134.379C308.477 133.812 307.756 133.03 307.22 132.033C306.698 131.021 306.438 129.879 306.438 128.606ZM316.811 128.652C316.811 127.778 316.627 127.019 316.259 126.375C315.906 125.731 315.438 125.24 314.856 124.903C314.273 124.566 313.644 124.397 312.97 124.397C312.295 124.397 311.666 124.566 311.084 124.903C310.501 125.225 310.026 125.708 309.658 126.352C309.305 126.981 309.129 127.732 309.129 128.606C309.129 129.48 309.305 130.247 309.658 130.906C310.026 131.565 310.501 132.071 311.084 132.424C311.682 132.761 312.31 132.93 312.97 132.93C313.644 132.93 314.273 132.761 314.856 132.424C315.438 132.087 315.906 131.596 316.259 130.952C316.627 130.293 316.811 129.526 316.811 128.652ZM324.464 120.648C323.988 120.648 323.59 120.487 323.268 120.165C322.946 119.843 322.785 119.444 322.785 118.969C322.785 118.494 322.946 118.095 323.268 117.773C323.59 117.451 323.988 117.29 324.464 117.29C324.924 117.29 325.315 117.451 325.637 117.773C325.959 118.095 326.12 118.494 326.12 118.969C326.12 119.444 325.959 119.843 325.637 120.165C325.315 120.487 324.924 120.648 324.464 120.648ZM325.752 122.327V135H323.13V122.327H325.752ZM332.046 117.98V135H329.424V117.98H332.046ZM336.776 135.161C336.301 135.161 335.902 135 335.58 134.678C335.258 134.356 335.097 133.957 335.097 133.482C335.097 133.007 335.258 132.608 335.58 132.286C335.902 131.964 336.301 131.803 336.776 131.803C337.236 131.803 337.627 131.964 337.949 132.286C338.271 132.608 338.432 133.007 338.432 133.482C338.432 133.957 338.271 134.356 337.949 134.678C337.627 135 337.236 135.161 336.776 135.161ZM340.622 128.652C340.622 127.349 340.883 126.206 341.404 125.225C341.941 124.228 342.677 123.462 343.612 122.925C344.548 122.388 345.621 122.12 346.832 122.12C348.366 122.12 349.631 122.488 350.627 123.224C351.639 123.945 352.322 124.98 352.674 126.329H349.845C349.615 125.7 349.247 125.21 348.741 124.857C348.235 124.504 347.599 124.328 346.832 124.328C345.759 124.328 344.9 124.711 344.256 125.478C343.628 126.229 343.313 127.287 343.313 128.652C343.313 130.017 343.628 131.082 344.256 131.849C344.9 132.616 345.759 132.999 346.832 132.999C348.35 132.999 349.355 132.332 349.845 130.998H352.674C352.306 132.286 351.616 133.313 350.604 134.08C349.592 134.831 348.335 135.207 346.832 135.207C345.621 135.207 344.548 134.939 343.612 134.402C342.677 133.85 341.941 133.083 341.404 132.102C340.883 131.105 340.622 129.955 340.622 128.652ZM361.014 135.207C359.818 135.207 358.737 134.939 357.771 134.402C356.805 133.85 356.046 133.083 355.494 132.102C354.942 131.105 354.666 129.955 354.666 128.652C354.666 127.364 354.95 126.222 355.517 125.225C356.085 124.228 356.859 123.462 357.84 122.925C358.822 122.388 359.918 122.12 361.129 122.12C362.341 122.12 363.437 122.388 364.418 122.925C365.4 123.462 366.174 124.228 366.741 125.225C367.309 126.222 367.592 127.364 367.592 128.652C367.592 129.94 367.301 131.082 366.718 132.079C366.136 133.076 365.338 133.85 364.326 134.402C363.33 134.939 362.226 135.207 361.014 135.207ZM361.014 132.93C361.689 132.93 362.318 132.769 362.9 132.447C363.498 132.125 363.981 131.642 364.349 130.998C364.717 130.354 364.901 129.572 364.901 128.652C364.901 127.732 364.725 126.958 364.372 126.329C364.02 125.685 363.552 125.202 362.969 124.88C362.387 124.558 361.758 124.397 361.083 124.397C360.409 124.397 359.78 124.558 359.197 124.88C358.63 125.202 358.178 125.685 357.84 126.329C357.503 126.958 357.334 127.732 357.334 128.652C357.334 130.017 357.679 131.075 358.369 131.826C359.075 132.562 359.956 132.93 361.014 132.93ZM385.755 122.12C386.752 122.12 387.641 122.327 388.423 122.741C389.221 123.155 389.842 123.768 390.286 124.581C390.746 125.394 390.976 126.375 390.976 127.525V135H388.377V127.916C388.377 126.781 388.094 125.915 387.526 125.317C386.959 124.704 386.185 124.397 385.203 124.397C384.222 124.397 383.44 124.704 382.857 125.317C382.29 125.915 382.006 126.781 382.006 127.916V135H379.407V127.916C379.407 126.781 379.124 125.915 378.556 125.317C377.989 124.704 377.215 124.397 376.233 124.397C375.252 124.397 374.47 124.704 373.887 125.317C373.32 125.915 373.036 126.781 373.036 127.916V135H370.414V122.327H373.036V123.776C373.466 123.255 374.01 122.848 374.669 122.557C375.329 122.266 376.034 122.12 376.785 122.12C377.797 122.12 378.702 122.335 379.499 122.764C380.297 123.193 380.91 123.814 381.339 124.627C381.723 123.86 382.321 123.255 383.133 122.81C383.946 122.35 384.82 122.12 385.755 122.12Z" fill="black"/>
<path d="M125.772 96L123.614 92.295H122.184V96H121.001V86.939H123.926C124.611 86.939 125.187 87.056 125.655 87.29C126.132 87.524 126.487 87.8403 126.721 88.239C126.955 88.6377 127.072 89.0927 127.072 89.604C127.072 90.228 126.89 90.7783 126.526 91.255C126.171 91.7317 125.633 92.048 124.914 92.204L127.189 96H125.772ZM122.184 91.346H123.926C124.567 91.346 125.048 91.19 125.369 90.878C125.69 90.5573 125.85 90.1327 125.85 89.604C125.85 89.0667 125.69 88.6507 125.369 88.356C125.057 88.0613 124.576 87.914 123.926 87.914H122.184V91.346ZM135.71 92.165C135.71 92.3903 135.697 92.6287 135.671 92.88H129.977C130.021 93.582 130.259 94.1323 130.692 94.531C131.134 94.921 131.667 95.116 132.291 95.116C132.803 95.116 133.227 94.999 133.565 94.765C133.912 94.5223 134.155 94.2017 134.293 93.803H135.567C135.377 94.4877 134.995 95.0467 134.423 95.48C133.851 95.9047 133.141 96.117 132.291 96.117C131.615 96.117 131.009 95.9653 130.471 95.662C129.943 95.3587 129.527 94.9297 129.223 94.375C128.92 93.8117 128.768 93.1617 128.768 92.425C128.768 91.6883 128.916 91.0427 129.21 90.488C129.505 89.9333 129.917 89.5087 130.445 89.214C130.983 88.9107 131.598 88.759 132.291 88.759C132.967 88.759 133.565 88.9063 134.085 89.201C134.605 89.4957 135.004 89.903 135.281 90.423C135.567 90.9343 135.71 91.515 135.71 92.165ZM134.488 91.918C134.488 91.4673 134.389 91.0817 134.189 90.761C133.99 90.4317 133.717 90.1847 133.37 90.02C133.032 89.8467 132.655 89.76 132.239 89.76C131.641 89.76 131.13 89.9507 130.705 90.332C130.289 90.7133 130.051 91.242 129.99 91.918H134.488ZM140.51 88.759C141.125 88.759 141.662 88.8933 142.122 89.162C142.59 89.4307 142.936 89.7687 143.162 90.176V88.876H144.358V96.156C144.358 96.806 144.219 97.3823 143.942 97.885C143.664 98.3963 143.266 98.795 142.746 99.081C142.234 99.367 141.636 99.51 140.952 99.51C140.016 99.51 139.236 99.289 138.612 98.847C137.988 98.405 137.619 97.8027 137.507 97.04H138.677C138.807 97.4733 139.075 97.82 139.483 98.08C139.89 98.3487 140.38 98.483 140.952 98.483C141.602 98.483 142.13 98.2793 142.538 97.872C142.954 97.4647 143.162 96.8927 143.162 96.156V94.661C142.928 95.077 142.581 95.4237 142.122 95.701C141.662 95.9783 141.125 96.117 140.51 96.117C139.877 96.117 139.301 95.961 138.781 95.649C138.269 95.337 137.866 94.8993 137.572 94.336C137.277 93.7727 137.13 93.1313 137.13 92.412C137.13 91.684 137.277 91.047 137.572 90.501C137.866 89.9463 138.269 89.5173 138.781 89.214C139.301 88.9107 139.877 88.759 140.51 88.759ZM143.162 92.425C143.162 91.8877 143.053 91.4197 142.837 91.021C142.62 90.6223 142.325 90.319 141.953 90.111C141.589 89.8943 141.186 89.786 140.744 89.786C140.302 89.786 139.899 89.89 139.535 90.098C139.171 90.306 138.88 90.6093 138.664 91.008C138.447 91.4067 138.339 91.8747 138.339 92.412C138.339 92.958 138.447 93.4347 138.664 93.842C138.88 94.2407 139.171 94.5483 139.535 94.765C139.899 94.973 140.302 95.077 140.744 95.077C141.186 95.077 141.589 94.973 141.953 94.765C142.325 94.5483 142.62 94.2407 142.837 93.842C143.053 93.4347 143.162 92.9623 143.162 92.425ZM147.268 87.719C147.043 87.719 146.852 87.641 146.696 87.485C146.54 87.329 146.462 87.1383 146.462 86.913C146.462 86.6877 146.54 86.497 146.696 86.341C146.852 86.185 147.043 86.107 147.268 86.107C147.485 86.107 147.667 86.185 147.814 86.341C147.97 86.497 148.048 86.6877 148.048 86.913C148.048 87.1383 147.97 87.329 147.814 87.485C147.667 87.641 147.485 87.719 147.268 87.719ZM147.84 88.876V96H146.657V88.876H147.84ZM152.678 96.117C152.132 96.117 151.642 96.026 151.209 95.844C150.776 95.6533 150.433 95.3933 150.182 95.064C149.931 94.726 149.792 94.3403 149.766 93.907H150.988C151.023 94.2623 151.187 94.5527 151.482 94.778C151.785 95.0033 152.18 95.116 152.665 95.116C153.116 95.116 153.471 95.0163 153.731 94.817C153.991 94.6177 154.121 94.3663 154.121 94.063C154.121 93.751 153.982 93.5213 153.705 93.374C153.428 93.218 152.999 93.0663 152.418 92.919C151.889 92.7803 151.456 92.6417 151.118 92.503C150.789 92.3557 150.503 92.1433 150.26 91.866C150.026 91.58 149.909 91.2073 149.909 90.748C149.909 90.384 150.017 90.0503 150.234 89.747C150.451 89.4437 150.758 89.2053 151.157 89.032C151.556 88.85 152.011 88.759 152.522 88.759C153.311 88.759 153.948 88.9583 154.433 89.357C154.918 89.7557 155.178 90.3017 155.213 90.995H154.03C154.004 90.6223 153.852 90.3233 153.575 90.098C153.306 89.8727 152.942 89.76 152.483 89.76C152.058 89.76 151.72 89.851 151.469 90.033C151.218 90.215 151.092 90.4533 151.092 90.748C151.092 90.982 151.166 91.177 151.313 91.333C151.469 91.4803 151.66 91.6017 151.885 91.697C152.119 91.7837 152.44 91.8833 152.847 91.996C153.358 92.1347 153.774 92.2733 154.095 92.412C154.416 92.542 154.689 92.7413 154.914 93.01C155.148 93.2787 155.269 93.6297 155.278 94.063C155.278 94.453 155.17 94.804 154.953 95.116C154.736 95.428 154.429 95.675 154.03 95.857C153.64 96.0303 153.189 96.117 152.678 96.117ZM158.691 89.851V94.05C158.691 94.3967 158.765 94.6437 158.912 94.791C159.059 94.9297 159.315 94.999 159.679 94.999H160.55V96H159.484C158.825 96 158.331 95.8483 158.002 95.545C157.673 95.2417 157.508 94.7433 157.508 94.05V89.851H156.585V88.876H157.508V87.082H158.691V88.876H160.55V89.851H158.691ZM168.783 92.165C168.783 92.3903 168.77 92.6287 168.744 92.88H163.05C163.094 93.582 163.332 94.1323 163.765 94.531C164.207 94.921 164.74 95.116 165.364 95.116C165.876 95.116 166.3 94.999 166.638 94.765C166.985 94.5223 167.228 94.2017 167.366 93.803H168.64C168.45 94.4877 168.068 95.0467 167.496 95.48C166.924 95.9047 166.214 96.117 165.364 96.117C164.688 96.117 164.082 95.9653 163.544 95.662C163.016 95.3587 162.6 94.9297 162.296 94.375C161.993 93.8117 161.841 93.1617 161.841 92.425C161.841 91.6883 161.989 91.0427 162.283 90.488C162.578 89.9333 162.99 89.5087 163.518 89.214C164.056 88.9107 164.671 88.759 165.364 88.759C166.04 88.759 166.638 88.9063 167.158 89.201C167.678 89.4957 168.077 89.903 168.354 90.423C168.64 90.9343 168.783 91.515 168.783 92.165ZM167.561 91.918C167.561 91.4673 167.462 91.0817 167.262 90.761C167.063 90.4317 166.79 90.1847 166.443 90.02C166.105 89.8467 165.728 89.76 165.312 89.76C164.714 89.76 164.203 89.9507 163.778 90.332C163.362 90.7133 163.124 91.242 163.063 91.918H167.561ZM171.828 90.033C172.036 89.6257 172.331 89.3093 172.712 89.084C173.102 88.8587 173.574 88.746 174.129 88.746V89.968H173.817C172.491 89.968 171.828 90.6873 171.828 92.126V96H170.645V88.876H171.828V90.033ZM185.878 88.876V96H184.695V94.947C184.47 95.311 184.154 95.597 183.746 95.805C183.348 96.0043 182.906 96.104 182.42 96.104C181.866 96.104 181.367 95.9913 180.925 95.766C180.483 95.532 180.132 95.1853 179.872 94.726C179.621 94.2667 179.495 93.7077 179.495 93.049V88.876H180.665V92.893C180.665 93.595 180.843 94.1367 181.198 94.518C181.554 94.8907 182.039 95.077 182.654 95.077C183.287 95.077 183.785 94.882 184.149 94.492C184.513 94.102 184.695 93.5343 184.695 92.789V88.876H185.878ZM190.698 96.117C190.152 96.117 189.662 96.026 189.229 95.844C188.795 95.6533 188.453 95.3933 188.202 95.064C187.95 94.726 187.812 94.3403 187.786 93.907H189.008C189.042 94.2623 189.207 94.5527 189.502 94.778C189.805 95.0033 190.199 95.116 190.685 95.116C191.135 95.116 191.491 95.0163 191.751 94.817C192.011 94.6177 192.141 94.3663 192.141 94.063C192.141 93.751 192.002 93.5213 191.725 93.374C191.447 93.218 191.018 93.0663 190.438 92.919C189.909 92.7803 189.476 92.6417 189.138 92.503C188.808 92.3557 188.522 92.1433 188.28 91.866C188.046 91.58 187.929 91.2073 187.929 90.748C187.929 90.384 188.037 90.0503 188.254 89.747C188.47 89.4437 188.778 89.2053 189.177 89.032C189.575 88.85 190.03 88.759 190.542 88.759C191.33 88.759 191.967 88.9583 192.453 89.357C192.938 89.7557 193.198 90.3017 193.233 90.995H192.05C192.024 90.6223 191.872 90.3233 191.595 90.098C191.326 89.8727 190.962 89.76 190.503 89.76C190.078 89.76 189.74 89.851 189.489 90.033C189.237 90.215 189.112 90.4533 189.112 90.748C189.112 90.982 189.185 91.177 189.333 91.333C189.489 91.4803 189.679 91.6017 189.905 91.697C190.139 91.7837 190.459 91.8833 190.867 91.996C191.378 92.1347 191.794 92.2733 192.115 92.412C192.435 92.542 192.708 92.7413 192.934 93.01C193.168 93.2787 193.289 93.6297 193.298 94.063C193.298 94.453 193.189 94.804 192.973 95.116C192.756 95.428 192.448 95.675 192.05 95.857C191.66 96.0303 191.209 96.117 190.698 96.117ZM195.879 87.719C195.653 87.719 195.463 87.641 195.307 87.485C195.151 87.329 195.073 87.1383 195.073 86.913C195.073 86.6877 195.151 86.497 195.307 86.341C195.463 86.185 195.653 86.107 195.879 86.107C196.095 86.107 196.277 86.185 196.425 86.341C196.581 86.497 196.659 86.6877 196.659 86.913C196.659 87.1383 196.581 87.329 196.425 87.485C196.277 87.641 196.095 87.719 195.879 87.719ZM196.451 88.876V96H195.268V88.876H196.451ZM202.238 88.746C203.105 88.746 203.807 89.0103 204.344 89.539C204.881 90.059 205.15 90.813 205.15 91.801V96H203.98V91.97C203.98 91.2593 203.802 90.7177 203.447 90.345C203.092 89.9637 202.606 89.773 201.991 89.773C201.367 89.773 200.869 89.968 200.496 90.358C200.132 90.748 199.95 91.3157 199.95 92.061V96H198.767V88.876H199.95V89.89C200.184 89.526 200.5 89.2443 200.899 89.045C201.306 88.8457 201.753 88.746 202.238 88.746ZM210.32 88.759C210.936 88.759 211.473 88.8933 211.932 89.162C212.4 89.4307 212.747 89.7687 212.972 90.176V88.876H214.168V96.156C214.168 96.806 214.03 97.3823 213.752 97.885C213.475 98.3963 213.076 98.795 212.556 99.081C212.045 99.367 211.447 99.51 210.762 99.51C209.826 99.51 209.046 99.289 208.422 98.847C207.798 98.405 207.43 97.8027 207.317 97.04H208.487C208.617 97.4733 208.886 97.82 209.293 98.08C209.701 98.3487 210.19 98.483 210.762 98.483C211.412 98.483 211.941 98.2793 212.348 97.872C212.764 97.4647 212.972 96.8927 212.972 96.156V94.661C212.738 95.077 212.392 95.4237 211.932 95.701C211.473 95.9783 210.936 96.117 210.32 96.117C209.688 96.117 209.111 95.961 208.591 95.649C208.08 95.337 207.677 94.8993 207.382 94.336C207.088 93.7727 206.94 93.1313 206.94 92.412C206.94 91.684 207.088 91.047 207.382 90.501C207.677 89.9463 208.08 89.5173 208.591 89.214C209.111 88.9107 209.688 88.759 210.32 88.759ZM212.972 92.425C212.972 91.8877 212.864 91.4197 212.647 91.021C212.431 90.6223 212.136 90.319 211.763 90.111C211.399 89.8943 210.996 89.786 210.554 89.786C210.112 89.786 209.709 89.89 209.345 90.098C208.981 90.306 208.691 90.6093 208.474 91.008C208.258 91.4067 208.149 91.8747 208.149 92.412C208.149 92.958 208.258 93.4347 208.474 93.842C208.691 94.2407 208.981 94.5483 209.345 94.765C209.709 94.973 210.112 95.077 210.554 95.077C210.996 95.077 211.399 94.973 211.763 94.765C212.136 94.5483 212.431 94.2407 212.647 93.842C212.864 93.4347 212.972 92.9623 212.972 92.425ZM226.733 92.165C226.733 92.3903 226.72 92.6287 226.694 92.88H221C221.044 93.582 221.282 94.1323 221.715 94.531C222.157 94.921 222.69 95.116 223.314 95.116C223.826 95.116 224.25 94.999 224.588 94.765C224.935 94.5223 225.178 94.2017 225.316 93.803H226.59C226.4 94.4877 226.018 95.0467 225.446 95.48C224.874 95.9047 224.164 96.117 223.314 96.117C222.638 96.117 222.032 95.9653 221.494 95.662C220.966 95.3587 220.55 94.9297 220.246 94.375C219.943 93.8117 219.791 93.1617 219.791 92.425C219.791 91.6883 219.939 91.0427 220.233 90.488C220.528 89.9333 220.94 89.5087 221.468 89.214C222.006 88.9107 222.621 88.759 223.314 88.759C223.99 88.759 224.588 88.9063 225.108 89.201C225.628 89.4957 226.027 89.903 226.304 90.423C226.59 90.9343 226.733 91.515 226.733 92.165ZM225.511 91.918C225.511 91.4673 225.412 91.0817 225.212 90.761C225.013 90.4317 224.74 90.1847 224.393 90.02C224.055 89.8467 223.678 89.76 223.262 89.76C222.664 89.76 222.153 89.9507 221.728 90.332C221.312 90.7133 221.074 91.242 221.013 91.918H225.511ZM237.162 88.746C237.717 88.746 238.211 88.863 238.644 89.097C239.077 89.3223 239.42 89.6647 239.671 90.124C239.922 90.5833 240.048 91.1423 240.048 91.801V96H238.878V91.97C238.878 91.2593 238.7 90.7177 238.345 90.345C237.998 89.9637 237.526 89.773 236.928 89.773C236.313 89.773 235.823 89.9723 235.459 90.371C235.095 90.761 234.913 91.3287 234.913 92.074V96H233.743V91.97C233.743 91.2593 233.565 90.7177 233.21 90.345C232.863 89.9637 232.391 89.773 231.793 89.773C231.178 89.773 230.688 89.9723 230.324 90.371C229.96 90.761 229.778 91.3287 229.778 92.074V96H228.595V88.876H229.778V89.903C230.012 89.5303 230.324 89.2443 230.714 89.045C231.113 88.8457 231.55 88.746 232.027 88.746C232.625 88.746 233.154 88.8803 233.613 89.149C234.072 89.4177 234.415 89.812 234.64 90.332C234.839 89.8293 235.169 89.4393 235.628 89.162C236.087 88.8847 236.599 88.746 237.162 88.746ZM241.846 92.412C241.846 91.684 241.994 91.047 242.288 90.501C242.583 89.9463 242.986 89.5173 243.497 89.214C244.017 88.9107 244.594 88.759 245.226 88.759C245.85 88.759 246.392 88.8933 246.851 89.162C247.311 89.4307 247.653 89.7687 247.878 90.176V88.876H249.074V96H247.878V94.674C247.644 95.09 247.293 95.4367 246.825 95.714C246.366 95.9827 245.829 96.117 245.213 96.117C244.581 96.117 244.009 95.961 243.497 95.649C242.986 95.337 242.583 94.8993 242.288 94.336C241.994 93.7727 241.846 93.1313 241.846 92.412ZM247.878 92.425C247.878 91.8877 247.77 91.4197 247.553 91.021C247.337 90.6223 247.042 90.319 246.669 90.111C246.305 89.8943 245.902 89.786 245.46 89.786C245.018 89.786 244.615 89.89 244.251 90.098C243.887 90.306 243.597 90.6093 243.38 91.008C243.164 91.4067 243.055 91.8747 243.055 92.412C243.055 92.958 243.164 93.4347 243.38 93.842C243.597 94.2407 243.887 94.5483 244.251 94.765C244.615 94.973 245.018 95.077 245.46 95.077C245.902 95.077 246.305 94.973 246.669 94.765C247.042 94.5483 247.337 94.2407 247.553 93.842C247.77 93.4347 247.878 92.9623 247.878 92.425ZM251.985 87.719C251.759 87.719 251.569 87.641 251.413 87.485C251.257 87.329 251.179 87.1383 251.179 86.913C251.179 86.6877 251.257 86.497 251.413 86.341C251.569 86.185 251.759 86.107 251.985 86.107C252.201 86.107 252.383 86.185 252.531 86.341C252.687 86.497 252.765 86.6877 252.765 86.913C252.765 87.1383 252.687 87.329 252.531 87.485C252.383 87.641 252.201 87.719 251.985 87.719ZM252.557 88.876V96H251.374V88.876H252.557ZM256.056 86.38V96H254.873V86.38H256.056ZM261.696 92.412C261.696 91.684 261.843 91.047 262.138 90.501C262.433 89.9463 262.836 89.5173 263.347 89.214C263.867 88.9107 264.443 88.759 265.076 88.759C265.7 88.759 266.242 88.8933 266.701 89.162C267.16 89.4307 267.503 89.7687 267.728 90.176V88.876H268.924V96H267.728V94.674C267.494 95.09 267.143 95.4367 266.675 95.714C266.216 95.9827 265.678 96.117 265.063 96.117C264.43 96.117 263.858 95.961 263.347 95.649C262.836 95.337 262.433 94.8993 262.138 94.336C261.843 93.7727 261.696 93.1313 261.696 92.412ZM267.728 92.425C267.728 91.8877 267.62 91.4197 267.403 91.021C267.186 90.6223 266.892 90.319 266.519 90.111C266.155 89.8943 265.752 89.786 265.31 89.786C264.868 89.786 264.465 89.89 264.101 90.098C263.737 90.306 263.447 90.6093 263.23 91.008C263.013 91.4067 262.905 91.8747 262.905 92.412C262.905 92.958 263.013 93.4347 263.23 93.842C263.447 94.2407 263.737 94.5483 264.101 94.765C264.465 94.973 264.868 95.077 265.31 95.077C265.752 95.077 266.155 94.973 266.519 94.765C266.892 94.5483 267.186 94.2407 267.403 93.842C267.62 93.4347 267.728 92.9623 267.728 92.425ZM270.781 92.412C270.781 91.684 270.928 91.047 271.223 90.501C271.518 89.9463 271.921 89.5173 272.432 89.214C272.952 88.9107 273.533 88.759 274.174 88.759C274.729 88.759 275.244 88.889 275.721 89.149C276.198 89.4003 276.562 89.734 276.813 90.15V86.38H278.009V96H276.813V94.661C276.579 95.0857 276.232 95.4367 275.773 95.714C275.314 95.9827 274.776 96.117 274.161 96.117C273.528 96.117 272.952 95.961 272.432 95.649C271.921 95.337 271.518 94.8993 271.223 94.336C270.928 93.7727 270.781 93.1313 270.781 92.412ZM276.813 92.425C276.813 91.8877 276.705 91.4197 276.488 91.021C276.271 90.6223 275.977 90.319 275.604 90.111C275.24 89.8943 274.837 89.786 274.395 89.786C273.953 89.786 273.55 89.89 273.186 90.098C272.822 90.306 272.532 90.6093 272.315 91.008C272.098 91.4067 271.99 91.8747 271.99 92.412C271.99 92.958 272.098 93.4347 272.315 93.842C272.532 94.2407 272.822 94.5483 273.186 94.765C273.55 94.973 273.953 95.077 274.395 95.077C274.837 95.077 275.24 94.973 275.604 94.765C275.977 94.5483 276.271 94.2407 276.488 93.842C276.705 93.4347 276.813 92.9623 276.813 92.425ZM279.866 92.412C279.866 91.684 280.014 91.047 280.308 90.501C280.603 89.9463 281.006 89.5173 281.517 89.214C282.037 88.9107 282.618 88.759 283.259 88.759C283.814 88.759 284.33 88.889 284.806 89.149C285.283 89.4003 285.647 89.734 285.898 90.15V86.38H287.094V96H285.898V94.661C285.664 95.0857 285.318 95.4367 284.858 95.714C284.399 95.9827 283.862 96.117 283.246 96.117C282.614 96.117 282.037 95.961 281.517 95.649C281.006 95.337 280.603 94.8993 280.308 94.336C280.014 93.7727 279.866 93.1313 279.866 92.412ZM285.898 92.425C285.898 91.8877 285.79 91.4197 285.573 91.021C285.357 90.6223 285.062 90.319 284.689 90.111C284.325 89.8943 283.922 89.786 283.48 89.786C283.038 89.786 282.635 89.89 282.271 90.098C281.907 90.306 281.617 90.6093 281.4 91.008C281.184 91.4067 281.075 91.8747 281.075 92.412C281.075 92.958 281.184 93.4347 281.4 93.842C281.617 94.2407 281.907 94.5483 282.271 94.765C282.635 94.973 283.038 95.077 283.48 95.077C283.922 95.077 284.325 94.973 284.689 94.765C285.062 94.5483 285.357 94.2407 285.573 93.842C285.79 93.4347 285.898 92.9623 285.898 92.425ZM290.576 90.033C290.784 89.6257 291.079 89.3093 291.46 89.084C291.85 88.8587 292.323 88.746 292.877 88.746V89.968H292.565C291.239 89.968 290.576 90.6873 290.576 92.126V96H289.393V88.876H290.576V90.033ZM301.043 92.165C301.043 92.3903 301.03 92.6287 301.004 92.88H295.31C295.353 93.582 295.592 94.1323 296.025 94.531C296.467 94.921 297 95.116 297.624 95.116C298.135 95.116 298.56 94.999 298.898 94.765C299.245 94.5223 299.487 94.2017 299.626 93.803H300.9C300.709 94.4877 300.328 95.0467 299.756 95.48C299.184 95.9047 298.473 96.117 297.624 96.117C296.948 96.117 296.341 95.9653 295.804 95.662C295.275 95.3587 294.859 94.9297 294.556 94.375C294.253 93.8117 294.101 93.1617 294.101 92.425C294.101 91.6883 294.248 91.0427 294.543 90.488C294.838 89.9333 295.249 89.5087 295.778 89.214C296.315 88.9107 296.931 88.759 297.624 88.759C298.3 88.759 298.898 88.9063 299.418 89.201C299.938 89.4957 300.337 89.903 300.614 90.423C300.9 90.9343 301.043 91.515 301.043 92.165ZM299.821 91.918C299.821 91.4673 299.721 91.0817 299.522 90.761C299.323 90.4317 299.05 90.1847 298.703 90.02C298.365 89.8467 297.988 89.76 297.572 89.76C296.974 89.76 296.463 89.9507 296.038 90.332C295.622 90.7133 295.384 91.242 295.323 91.918H299.821ZM305.427 96.117C304.881 96.117 304.391 96.026 303.958 95.844C303.524 95.6533 303.182 95.3933 302.931 95.064C302.679 94.726 302.541 94.3403 302.515 93.907H303.737C303.771 94.2623 303.936 94.5527 304.231 94.778C304.534 95.0033 304.928 95.116 305.414 95.116C305.864 95.116 306.22 95.0163 306.48 94.817C306.74 94.6177 306.87 94.3663 306.87 94.063C306.87 93.751 306.731 93.5213 306.454 93.374C306.176 93.218 305.747 93.0663 305.167 92.919C304.638 92.7803 304.205 92.6417 303.867 92.503C303.537 92.3557 303.251 92.1433 303.009 91.866C302.775 91.58 302.658 91.2073 302.658 90.748C302.658 90.384 302.766 90.0503 302.983 89.747C303.199 89.4437 303.507 89.2053 303.906 89.032C304.304 88.85 304.759 88.759 305.271 88.759C306.059 88.759 306.696 88.9583 307.182 89.357C307.667 89.7557 307.927 90.3017 307.962 90.995H306.779C306.753 90.6223 306.601 90.3233 306.324 90.098C306.055 89.8727 305.691 89.76 305.232 89.76C304.807 89.76 304.469 89.851 304.218 90.033C303.966 90.215 303.841 90.4533 303.841 90.748C303.841 90.982 303.914 91.177 304.062 91.333C304.218 91.4803 304.408 91.6017 304.634 91.697C304.868 91.7837 305.188 91.8833 305.596 91.996C306.107 92.1347 306.523 92.2733 306.844 92.412C307.164 92.542 307.437 92.7413 307.663 93.01C307.897 93.2787 308.018 93.6297 308.027 94.063C308.027 94.453 307.918 94.804 307.702 95.116C307.485 95.428 307.177 95.675 306.779 95.857C306.389 96.0303 305.938 96.117 305.427 96.117ZM312.519 96.117C311.973 96.117 311.483 96.026 311.05 95.844C310.616 95.6533 310.274 95.3933 310.023 95.064C309.771 94.726 309.633 94.3403 309.607 93.907H310.829C310.863 94.2623 311.028 94.5527 311.323 94.778C311.626 95.0033 312.02 95.116 312.506 95.116C312.956 95.116 313.312 95.0163 313.572 94.817C313.832 94.6177 313.962 94.3663 313.962 94.063C313.962 93.751 313.823 93.5213 313.546 93.374C313.268 93.218 312.839 93.0663 312.259 92.919C311.73 92.7803 311.297 92.6417 310.959 92.503C310.629 92.3557 310.343 92.1433 310.101 91.866C309.867 91.58 309.75 91.2073 309.75 90.748C309.75 90.384 309.858 90.0503 310.075 89.747C310.291 89.4437 310.599 89.2053 310.998 89.032C311.396 88.85 311.851 88.759 312.363 88.759C313.151 88.759 313.788 88.9583 314.274 89.357C314.759 89.7557 315.019 90.3017 315.054 90.995H313.871C313.845 90.6223 313.693 90.3233 313.416 90.098C313.147 89.8727 312.783 89.76 312.324 89.76C311.899 89.76 311.561 89.851 311.31 90.033C311.058 90.215 310.933 90.4533 310.933 90.748C310.933 90.982 311.006 91.177 311.154 91.333C311.31 91.4803 311.5 91.6017 311.726 91.697C311.96 91.7837 312.28 91.8833 312.688 91.996C313.199 92.1347 313.615 92.2733 313.936 92.412C314.256 92.542 314.529 92.7413 314.755 93.01C314.989 93.2787 315.11 93.6297 315.119 94.063C315.119 94.453 315.01 94.804 314.794 95.116C314.577 95.428 314.269 95.675 313.871 95.857C313.481 96.0303 313.03 96.117 312.519 96.117Z" fill="#7D8186"/>
<defs>
<filter id="filter0_d_605_139" x="0" y="0" width="842" height="283" filterUnits="userSpaceOnUse" color-interpolation-filters="sRGB">
<feFlood flood-opacity="0" result="BackgroundImageFix"/>
<feColorMatrix in="SourceAlpha" type="matrix" values="0 0 0 0 0 0 0 0 0 0 0 0 0 0 0 0 0 0 127 0" result="hardAlpha"/>
<feOffset dy="30"/>
<feGaussianBlur stdDeviation="40"/>
<feColorMatrix type="matrix" values="0 0 0 0 0.184314 0 0 0 0 0.254902 0 0 0 0 0.345098 0 0 0 0.2 0"/>
<feBlend mode="normal" in2="BackgroundImageFix" result="effect1_dropShadow_605_139"/>
<feBlend mode="normal" in="SourceGraphic" in2="effect1_dropShadow_605_139" result="shape"/>
</filter>
</defs>
</svg>
