<svg width="234" height="94" viewBox="0 0 234 94" fill="none" xmlns="http://www.w3.org/2000/svg">
<path d="M0 24C0 10.7452 10.7452 0 24 0H210C223.255 0 234 10.7452 234 24V94H24C10.7452 94 0 83.2548 0 70V24Z" fill="#7D6353"/>
<path d="M38.82 20.27V30H37.224V25.744H32.646V30H31.05V20.27H32.646V24.442H37.224V20.27H38.82ZM42.0331 21.264C41.7438 21.264 41.5011 21.166 41.3051 20.97C41.1091 20.774 41.0111 20.5313 41.0111 20.242C41.0111 19.9527 41.1091 19.71 41.3051 19.514C41.5011 19.318 41.7438 19.22 42.0331 19.22C42.3131 19.22 42.5511 19.318 42.7471 19.514C42.9431 19.71 43.0411 19.9527 43.0411 20.242C43.0411 20.5313 42.9431 20.774 42.7471 20.97C42.5511 21.166 42.3131 21.264 42.0331 21.264ZM42.8171 22.286V30H41.2211V22.286H42.8171ZM54.5112 30L50.7452 25.646V30H49.1492V20.27H50.7452V24.708L54.5252 20.27H56.5272L52.2992 25.142L56.5972 30H54.5112ZM57.7766 26.108C57.7766 25.3333 57.9353 24.6473 58.2526 24.05C58.5793 23.4527 59.0179 22.9907 59.5686 22.664C60.1286 22.328 60.7446 22.16 61.4166 22.16C62.0233 22.16 62.5506 22.2813 62.9986 22.524C63.4559 22.7573 63.8199 23.0513 64.0906 23.406V22.286H65.7006V30H64.0906V28.852C63.8199 29.216 63.4513 29.5193 62.9846 29.762C62.5179 30.0047 61.9859 30.126 61.3886 30.126C60.7259 30.126 60.1193 29.958 59.5686 29.622C59.0179 29.2767 58.5793 28.8007 58.2526 28.194C57.9353 27.578 57.7766 26.8827 57.7766 26.108ZM64.0906 26.136C64.0906 25.604 63.9786 25.142 63.7546 24.75C63.5399 24.358 63.2553 24.0593 62.9006 23.854C62.5459 23.6487 62.1633 23.546 61.7526 23.546C61.3419 23.546 60.9593 23.6487 60.6046 23.854C60.2499 24.05 59.9606 24.344 59.7366 24.736C59.5219 25.1187 59.4146 25.576 59.4146 26.108C59.4146 26.64 59.5219 27.1067 59.7366 27.508C59.9606 27.9093 60.2499 28.2173 60.6046 28.432C60.9686 28.6373 61.3513 28.74 61.7526 28.74C62.1633 28.74 62.5459 28.6373 62.9006 28.432C63.2553 28.2267 63.5399 27.928 63.7546 27.536C63.9786 27.1347 64.0906 26.668 64.0906 26.136ZM69.6929 23.406C69.9262 23.014 70.2342 22.7107 70.6169 22.496C71.0089 22.272 71.4709 22.16 72.0029 22.16V23.812H71.5969C70.9715 23.812 70.4955 23.9707 70.1689 24.288C69.8515 24.6053 69.6929 25.156 69.6929 25.94V30H68.0969V22.286H69.6929V23.406ZM80.8399 25.954C80.8399 26.2433 80.8213 26.5047 80.7839 26.738H74.8899C74.9366 27.354 75.1653 27.8487 75.5759 28.222C75.9866 28.5953 76.4906 28.782 77.0879 28.782C77.9466 28.782 78.5533 28.4227 78.9079 27.704H80.6299C80.3966 28.4133 79.9719 28.9967 79.3559 29.454C78.7493 29.902 77.9933 30.126 77.0879 30.126C76.3506 30.126 75.6879 29.9627 75.0999 29.636C74.5213 29.3 74.0639 28.8333 73.7279 28.236C73.4013 27.6293 73.2379 26.9293 73.2379 26.136C73.2379 25.3427 73.3966 24.6473 73.7139 24.05C74.0406 23.4433 74.4933 22.9767 75.0719 22.65C75.6599 22.3233 76.3319 22.16 77.0879 22.16C77.8159 22.16 78.4646 22.3187 79.0339 22.636C79.6033 22.9533 80.0466 23.4013 80.3639 23.98C80.6813 24.5493 80.8399 25.2073 80.8399 25.954ZM79.1739 25.45C79.1646 24.862 78.9546 24.3907 78.5439 24.036C78.1333 23.6813 77.6246 23.504 77.0179 23.504C76.4673 23.504 75.9959 23.6813 75.6039 24.036C75.2119 24.3813 74.9786 24.8527 74.9039 25.45H79.1739ZM86.6025 22.16C87.2092 22.16 87.7505 22.286 88.2265 22.538C88.7119 22.79 89.0899 23.1633 89.3605 23.658C89.6312 24.1527 89.7665 24.75 89.7665 25.45V30H88.1845V25.688C88.1845 24.9973 88.0119 24.47 87.6665 24.106C87.3212 23.7327 86.8499 23.546 86.2525 23.546C85.6552 23.546 85.1792 23.7327 84.8245 24.106C84.4792 24.47 84.3065 24.9973 84.3065 25.688V30H82.7105V22.286H84.3065V23.168C84.5679 22.8507 84.8992 22.6033 85.3005 22.426C85.7112 22.2487 86.1452 22.16 86.6025 22.16ZM93.8523 28.082L92.1583 31.946H91.1223L92.1163 28.082H93.8523ZM101.08 20.27V30H99.4836V20.27H101.08ZM103.727 20.27H105.463L103.993 23.602H102.873L103.727 20.27ZM116.504 22.16C117.11 22.16 117.652 22.286 118.128 22.538C118.613 22.79 118.991 23.1633 119.262 23.658C119.542 24.1527 119.682 24.75 119.682 25.45V30H118.1V25.688C118.1 24.9973 117.927 24.47 117.582 24.106C117.236 23.7327 116.765 23.546 116.168 23.546C115.57 23.546 115.094 23.7327 114.74 24.106C114.394 24.47 114.222 24.9973 114.222 25.688V30H112.64V25.688C112.64 24.9973 112.467 24.47 112.122 24.106C111.776 23.7327 111.305 23.546 110.708 23.546C110.11 23.546 109.634 23.7327 109.28 24.106C108.934 24.47 108.762 24.9973 108.762 25.688V30H107.166V22.286H108.762V23.168C109.023 22.8507 109.354 22.6033 109.756 22.426C110.157 22.2487 110.586 22.16 111.044 22.16C111.66 22.16 112.21 22.2907 112.696 22.552C113.181 22.8133 113.554 23.1913 113.816 23.686C114.049 23.2193 114.413 22.8507 114.908 22.58C115.402 22.3 115.934 22.16 116.504 22.16ZM136.309 22.286L133.915 30H132.235L130.681 24.302L129.127 30H127.447L125.039 22.286H126.663L128.273 28.488L129.911 22.286H131.577L133.145 28.46L134.741 22.286H136.309ZM137.27 26.108C137.27 25.3333 137.429 24.6473 137.746 24.05C138.073 23.4527 138.511 22.9907 139.062 22.664C139.622 22.328 140.238 22.16 140.91 22.16C141.517 22.16 142.044 22.2813 142.492 22.524C142.949 22.7573 143.313 23.0513 143.584 23.406V22.286H145.194V30H143.584V28.852C143.313 29.216 142.945 29.5193 142.478 29.762C142.011 30.0047 141.479 30.126 140.882 30.126C140.219 30.126 139.613 29.958 139.062 29.622C138.511 29.2767 138.073 28.8007 137.746 28.194C137.429 27.578 137.27 26.8827 137.27 26.108ZM143.584 26.136C143.584 25.604 143.472 25.142 143.248 24.75C143.033 24.358 142.749 24.0593 142.394 23.854C142.039 23.6487 141.657 23.546 141.246 23.546C140.835 23.546 140.453 23.6487 140.098 23.854C139.743 24.05 139.454 24.344 139.23 24.736C139.015 25.1187 138.908 25.576 138.908 26.108C138.908 26.64 139.015 27.1067 139.23 27.508C139.454 27.9093 139.743 28.2173 140.098 28.432C140.462 28.6373 140.845 28.74 141.246 28.74C141.657 28.74 142.039 28.6373 142.394 28.432C142.749 28.2267 143.033 27.928 143.248 27.536C143.472 27.1347 143.584 26.668 143.584 26.136ZM151.482 22.16C152.089 22.16 152.63 22.286 153.106 22.538C153.592 22.79 153.97 23.1633 154.24 23.658C154.511 24.1527 154.646 24.75 154.646 25.45V30H153.064V25.688C153.064 24.9973 152.892 24.47 152.546 24.106C152.201 23.7327 151.73 23.546 151.132 23.546C150.535 23.546 150.059 23.7327 149.704 24.106C149.359 24.47 149.186 24.9973 149.186 25.688V30H147.59V22.286H149.186V23.168C149.448 22.8507 149.779 22.6033 150.18 22.426C150.591 22.2487 151.025 22.16 151.482 22.16ZM156.45 26.108C156.45 25.3333 156.609 24.6473 156.926 24.05C157.253 23.4527 157.691 22.9907 158.242 22.664C158.802 22.328 159.423 22.16 160.104 22.16C160.608 22.16 161.103 22.272 161.588 22.496C162.083 22.7107 162.475 23 162.764 23.364V19.64H164.374V30H162.764V28.838C162.503 29.2113 162.139 29.5193 161.672 29.762C161.215 30.0047 160.687 30.126 160.09 30.126C159.418 30.126 158.802 29.958 158.242 29.622C157.691 29.2767 157.253 28.8007 156.926 28.194C156.609 27.578 156.45 26.8827 156.45 26.108ZM162.764 26.136C162.764 25.604 162.652 25.142 162.428 24.75C162.213 24.358 161.929 24.0593 161.574 23.854C161.219 23.6487 160.837 23.546 160.426 23.546C160.015 23.546 159.633 23.6487 159.278 23.854C158.923 24.05 158.634 24.344 158.41 24.736C158.195 25.1187 158.088 25.576 158.088 26.108C158.088 26.64 158.195 27.1067 158.41 27.508C158.634 27.9093 158.923 28.2173 159.278 28.432C159.642 28.6373 160.025 28.74 160.426 28.74C160.837 28.74 161.219 28.6373 161.574 28.432C161.929 28.2267 162.213 27.928 162.428 27.536C162.652 27.1347 162.764 26.668 162.764 26.136ZM173.84 25.954C173.84 26.2433 173.822 26.5047 173.784 26.738H167.89C167.937 27.354 168.166 27.8487 168.576 28.222C168.987 28.5953 169.491 28.782 170.088 28.782C170.947 28.782 171.554 28.4227 171.908 27.704H173.63C173.397 28.4133 172.972 28.9967 172.356 29.454C171.75 29.902 170.994 30.126 170.088 30.126C169.351 30.126 168.688 29.9627 168.1 29.636C167.522 29.3 167.064 28.8333 166.728 28.236C166.402 27.6293 166.238 26.9293 166.238 26.136C166.238 25.3427 166.397 24.6473 166.714 24.05C167.041 23.4433 167.494 22.9767 168.072 22.65C168.66 22.3233 169.332 22.16 170.088 22.16C170.816 22.16 171.465 22.3187 172.034 22.636C172.604 22.9533 173.047 23.4013 173.364 23.98C173.682 24.5493 173.84 25.2073 173.84 25.954ZM172.174 25.45C172.165 24.862 171.955 24.3907 171.544 24.036C171.134 23.6813 170.625 23.504 170.018 23.504C169.468 23.504 168.996 23.6813 168.604 24.036C168.212 24.3813 167.979 24.8527 167.904 25.45H172.174ZM177.307 23.406C177.54 23.014 177.848 22.7107 178.231 22.496C178.623 22.272 179.085 22.16 179.617 22.16V23.812H179.211C178.586 23.812 178.11 23.9707 177.783 24.288C177.466 24.6053 177.307 25.156 177.307 25.94V30H175.711V22.286H177.307V23.406ZM182.196 21.264C181.907 21.264 181.664 21.166 181.468 20.97C181.272 20.774 181.174 20.5313 181.174 20.242C181.174 19.9527 181.272 19.71 181.468 19.514C181.664 19.318 181.907 19.22 182.196 19.22C182.476 19.22 182.714 19.318 182.91 19.514C183.106 19.71 183.204 19.9527 183.204 20.242C183.204 20.5313 183.106 20.774 182.91 20.97C182.714 21.166 182.476 21.264 182.196 21.264ZM182.98 22.286V30H181.384V22.286H182.98ZM189.267 22.16C189.874 22.16 190.415 22.286 190.891 22.538C191.377 22.79 191.755 23.1633 192.025 23.658C192.296 24.1527 192.431 24.75 192.431 25.45V30H190.849V25.688C190.849 24.9973 190.677 24.47 190.331 24.106C189.986 23.7327 189.515 23.546 188.917 23.546C188.32 23.546 187.844 23.7327 187.489 24.106C187.144 24.47 186.971 24.9973 186.971 25.688V30H185.375V22.286H186.971V23.168C187.233 22.8507 187.564 22.6033 187.965 22.426C188.376 22.2487 188.81 22.16 189.267 22.16ZM197.875 22.16C198.473 22.16 199 22.2813 199.457 22.524C199.924 22.7573 200.288 23.0513 200.549 23.406V22.286H202.159V30.126C202.159 30.8353 202.01 31.4653 201.711 32.016C201.413 32.576 200.979 33.0147 200.409 33.332C199.849 33.6493 199.177 33.808 198.393 33.808C197.348 33.808 196.48 33.5607 195.789 33.066C195.099 32.5807 194.707 31.918 194.613 31.078H196.195C196.317 31.4793 196.573 31.8013 196.965 32.044C197.367 32.296 197.843 32.422 198.393 32.422C199.037 32.422 199.555 32.226 199.947 31.834C200.349 31.442 200.549 30.8727 200.549 30.126V28.838C200.279 29.202 199.91 29.51 199.443 29.762C198.986 30.0047 198.463 30.126 197.875 30.126C197.203 30.126 196.587 29.958 196.027 29.622C195.477 29.2767 195.038 28.8007 194.711 28.194C194.394 27.578 194.235 26.8827 194.235 26.108C194.235 25.3333 194.394 24.6473 194.711 24.05C195.038 23.4527 195.477 22.9907 196.027 22.664C196.587 22.328 197.203 22.16 197.875 22.16ZM200.549 26.136C200.549 25.604 200.437 25.142 200.213 24.75C199.999 24.358 199.714 24.0593 199.359 23.854C199.005 23.6487 198.622 23.546 198.211 23.546C197.801 23.546 197.418 23.6487 197.063 23.854C196.709 24.05 196.419 24.344 196.195 24.736C195.981 25.1187 195.873 25.576 195.873 26.108C195.873 26.64 195.981 27.1067 196.195 27.508C196.419 27.9093 196.709 28.2173 197.063 28.432C197.427 28.6373 197.81 28.74 198.211 28.74C198.622 28.74 199.005 28.6373 199.359 28.432C199.714 28.2267 199.999 27.928 200.213 27.536C200.437 27.1347 200.549 26.668 200.549 26.136ZM31.862 43.264C31.5727 43.264 31.33 43.166 31.134 42.97C30.938 42.774 30.84 42.5313 30.84 42.242C30.84 41.9527 30.938 41.71 31.134 41.514C31.33 41.318 31.5727 41.22 31.862 41.22C32.142 41.22 32.38 41.318 32.576 41.514C32.772 41.71 32.87 41.9527 32.87 42.242C32.87 42.5313 32.772 42.774 32.576 42.97C32.38 43.166 32.142 43.264 31.862 43.264ZM32.646 44.286V52H31.05V44.286H32.646ZM37.8414 52.126C37.2347 52.126 36.6887 52.0187 36.2034 51.804C35.7274 51.58 35.3494 51.2813 35.0694 50.908C34.7894 50.5253 34.6401 50.1007 34.6214 49.634H36.2734C36.3014 49.9607 36.4554 50.236 36.7354 50.46C37.0247 50.6747 37.3841 50.782 37.8134 50.782C38.2614 50.782 38.6067 50.698 38.8494 50.53C39.1014 50.3527 39.2274 50.1287 39.2274 49.858C39.2274 49.5687 39.0874 49.354 38.8074 49.214C38.5367 49.074 38.1027 48.92 37.5054 48.752C36.9267 48.5933 36.4554 48.4393 36.0914 48.29C35.7274 48.1407 35.4101 47.912 35.1394 47.604C34.8781 47.296 34.7474 46.89 34.7474 46.386C34.7474 45.9753 34.8687 45.602 35.1114 45.266C35.3541 44.9207 35.6994 44.65 36.1474 44.454C36.6047 44.258 37.1274 44.16 37.7154 44.16C38.5927 44.16 39.2974 44.384 39.8294 44.832C40.3707 45.2707 40.6601 45.8727 40.6974 46.638H39.1014C39.0734 46.2927 38.9334 46.0173 38.6814 45.812C38.4294 45.6067 38.0887 45.504 37.6594 45.504C37.2394 45.504 36.9174 45.5833 36.6934 45.742C36.4694 45.9007 36.3574 46.1107 36.3574 46.372C36.3574 46.5773 36.4321 46.75 36.5814 46.89C36.7307 47.03 36.9127 47.142 37.1274 47.226C37.3421 47.3007 37.6594 47.3987 38.0794 47.52C38.6394 47.6693 39.0967 47.8233 39.4514 47.982C39.8154 48.1313 40.1281 48.3553 40.3894 48.654C40.6507 48.9527 40.7861 49.3493 40.7954 49.844C40.7954 50.2827 40.6741 50.6747 40.4314 51.02C40.1887 51.3653 39.8434 51.636 39.3954 51.832C38.9567 52.028 38.4387 52.126 37.8414 52.126ZM47.5686 43.264C47.2793 43.264 47.0366 43.166 46.8406 42.97C46.6446 42.774 46.5466 42.5313 46.5466 42.242C46.5466 41.9527 46.6446 41.71 46.8406 41.514C47.0366 41.318 47.2793 41.22 47.5686 41.22C47.8486 41.22 48.0866 41.318 48.2826 41.514C48.4786 41.71 48.5766 41.9527 48.5766 42.242C48.5766 42.5313 48.4786 42.774 48.2826 42.97C48.0866 43.166 47.8486 43.264 47.5686 43.264ZM48.3526 44.286V52H46.7566V44.286H48.3526ZM52.61 45.588V49.858C52.61 50.1473 52.6754 50.3573 52.806 50.488C52.946 50.6093 53.1794 50.67 53.506 50.67H54.486V52H53.226C52.5074 52 51.9567 51.832 51.574 51.496C51.1914 51.16 51 50.614 51 49.858V45.588H50.09V44.286H51V42.368H52.61V44.286H54.486V45.588H52.61ZM61.7897 45.42C62.0604 45.0653 62.4291 44.7667 62.8957 44.524C63.3624 44.2813 63.8897 44.16 64.4777 44.16C65.1497 44.16 65.7611 44.328 66.3117 44.664C66.8717 44.9907 67.3104 45.4527 67.6277 46.05C67.9451 46.6473 68.1037 47.3333 68.1037 48.108C68.1037 48.8827 67.9451 49.578 67.6277 50.194C67.3104 50.8007 66.8717 51.2767 66.3117 51.622C65.7611 51.958 65.1497 52.126 64.4777 52.126C63.8897 52.126 63.3671 52.0093 62.9097 51.776C62.4524 51.5333 62.0791 51.2347 61.7897 50.88V55.668H60.1937V44.286H61.7897V45.42ZM66.4797 48.108C66.4797 47.576 66.3677 47.1187 66.1437 46.736C65.9291 46.344 65.6397 46.05 65.2757 45.854C64.9211 45.6487 64.5384 45.546 64.1277 45.546C63.7264 45.546 63.3437 45.6487 62.9797 45.854C62.6251 46.0593 62.3357 46.358 62.1117 46.75C61.8971 47.142 61.7897 47.604 61.7897 48.136C61.7897 48.668 61.8971 49.1347 62.1117 49.536C62.3357 49.928 62.6251 50.2267 62.9797 50.432C63.3437 50.6373 63.7264 50.74 64.1277 50.74C64.5384 50.74 64.9211 50.6373 65.2757 50.432C65.6397 50.2173 65.9291 49.9093 66.1437 49.508C66.3677 49.1067 66.4797 48.64 66.4797 48.108ZM73.328 52.126C72.6 52.126 71.942 51.9627 71.354 51.636C70.766 51.3 70.304 50.8333 69.968 50.236C69.632 49.6293 69.464 48.9293 69.464 48.136C69.464 47.352 69.6367 46.6567 69.982 46.05C70.3274 45.4433 70.7987 44.9767 71.396 44.65C71.9934 44.3233 72.6607 44.16 73.398 44.16C74.1354 44.16 74.8027 44.3233 75.4 44.65C75.9974 44.9767 76.4687 45.4433 76.814 46.05C77.1594 46.6567 77.332 47.352 77.332 48.136C77.332 48.92 77.1547 49.6153 76.8 50.222C76.4454 50.8287 75.96 51.3 75.344 51.636C74.7374 51.9627 74.0654 52.126 73.328 52.126ZM73.328 50.74C73.7387 50.74 74.1214 50.642 74.476 50.446C74.84 50.25 75.134 49.956 75.358 49.564C75.582 49.172 75.694 48.696 75.694 48.136C75.694 47.576 75.5867 47.1047 75.372 46.722C75.1574 46.33 74.8727 46.036 74.518 45.84C74.1634 45.644 73.7807 45.546 73.37 45.546C72.9594 45.546 72.5767 45.644 72.222 45.84C71.8767 46.036 71.6014 46.33 71.396 46.722C71.1907 47.1047 71.088 47.576 71.088 48.136C71.088 48.9667 71.298 49.6107 71.718 50.068C72.1474 50.516 72.684 50.74 73.328 50.74ZM82.0098 52.126C81.4031 52.126 80.8571 52.0187 80.3718 51.804C79.8958 51.58 79.5178 51.2813 79.2378 50.908C78.9578 50.5253 78.8084 50.1007 78.7898 49.634H80.4418C80.4698 49.9607 80.6238 50.236 80.9038 50.46C81.1931 50.6747 81.5524 50.782 81.9818 50.782C82.4298 50.782 82.7751 50.698 83.0178 50.53C83.2698 50.3527 83.3958 50.1287 83.3958 49.858C83.3958 49.5687 83.2558 49.354 82.9758 49.214C82.7051 49.074 82.2711 48.92 81.6738 48.752C81.0951 48.5933 80.6238 48.4393 80.2598 48.29C79.8958 48.1407 79.5784 47.912 79.3078 47.604C79.0464 47.296 78.9158 46.89 78.9158 46.386C78.9158 45.9753 79.0371 45.602 79.2798 45.266C79.5224 44.9207 79.8678 44.65 80.3158 44.454C80.7731 44.258 81.2958 44.16 81.8838 44.16C82.7611 44.16 83.4658 44.384 83.9978 44.832C84.5391 45.2707 84.8284 45.8727 84.8658 46.638H83.2698C83.2418 46.2927 83.1018 46.0173 82.8498 45.812C82.5978 45.6067 82.2571 45.504 81.8278 45.504C81.4078 45.504 81.0858 45.5833 80.8618 45.742C80.6378 45.9007 80.5258 46.1107 80.5258 46.372C80.5258 46.5773 80.6004 46.75 80.7498 46.89C80.8991 47.03 81.0811 47.142 81.2958 47.226C81.5104 47.3007 81.8278 47.3987 82.2478 47.52C82.8078 47.6693 83.2651 47.8233 83.6198 47.982C83.9838 48.1313 84.2964 48.3553 84.5578 48.654C84.8191 48.9527 84.9544 49.3493 84.9638 49.844C84.9638 50.2827 84.8424 50.6747 84.5998 51.02C84.3571 51.3653 84.0118 51.636 83.5638 51.832C83.1251 52.028 82.6071 52.126 82.0098 52.126ZM89.7883 52.126C89.1816 52.126 88.6356 52.0187 88.1503 51.804C87.6743 51.58 87.2963 51.2813 87.0163 50.908C86.7363 50.5253 86.5869 50.1007 86.5683 49.634H88.2203C88.2483 49.9607 88.4023 50.236 88.6823 50.46C88.9716 50.6747 89.3309 50.782 89.7603 50.782C90.2083 50.782 90.5536 50.698 90.7963 50.53C91.0483 50.3527 91.1743 50.1287 91.1743 49.858C91.1743 49.5687 91.0343 49.354 90.7543 49.214C90.4836 49.074 90.0496 48.92 89.4523 48.752C88.8736 48.5933 88.4023 48.4393 88.0383 48.29C87.6743 48.1407 87.3569 47.912 87.0863 47.604C86.8249 47.296 86.6943 46.89 86.6943 46.386C86.6943 45.9753 86.8156 45.602 87.0583 45.266C87.3009 44.9207 87.6463 44.65 88.0943 44.454C88.5516 44.258 89.0743 44.16 89.6623 44.16C90.5396 44.16 91.2443 44.384 91.7763 44.832C92.3176 45.2707 92.6069 45.8727 92.6443 46.638H91.0483C91.0203 46.2927 90.8803 46.0173 90.6283 45.812C90.3763 45.6067 90.0356 45.504 89.6063 45.504C89.1863 45.504 88.8643 45.5833 88.6403 45.742C88.4163 45.9007 88.3043 46.1107 88.3043 46.372C88.3043 46.5773 88.3789 46.75 88.5283 46.89C88.6776 47.03 88.8596 47.142 89.0743 47.226C89.2889 47.3007 89.6063 47.3987 90.0263 47.52C90.5863 47.6693 91.0436 47.8233 91.3983 47.982C91.7623 48.1313 92.0749 48.3553 92.3363 48.654C92.5976 48.9527 92.7329 49.3493 92.7423 49.844C92.7423 50.2827 92.6209 50.6747 92.3783 51.02C92.1356 51.3653 91.7903 51.636 91.3423 51.832C90.9036 52.028 90.3856 52.126 89.7883 52.126ZM95.5788 43.264C95.2895 43.264 95.0468 43.166 94.8508 42.97C94.6548 42.774 94.5568 42.5313 94.5568 42.242C94.5568 41.9527 94.6548 41.71 94.8508 41.514C95.0468 41.318 95.2895 41.22 95.5788 41.22C95.8588 41.22 96.0968 41.318 96.2928 41.514C96.4888 41.71 96.5868 41.9527 96.5868 42.242C96.5868 42.5313 96.4888 42.774 96.2928 42.97C96.0968 43.166 95.8588 43.264 95.5788 43.264ZM96.3628 44.286V52H94.7668V44.286H96.3628ZM100.354 45.434C100.625 45.0607 100.994 44.7573 101.46 44.524C101.936 44.2813 102.464 44.16 103.042 44.16C103.724 44.16 104.34 44.3233 104.89 44.65C105.441 44.9767 105.875 45.4433 106.192 46.05C106.51 46.6473 106.668 47.3333 106.668 48.108C106.668 48.8827 106.51 49.578 106.192 50.194C105.875 50.8007 105.436 51.2767 104.876 51.622C104.326 51.958 103.714 52.126 103.042 52.126C102.445 52.126 101.913 52.0093 101.446 51.776C100.989 51.5427 100.625 51.244 100.354 50.88V52H98.7582V41.64H100.354V45.434ZM105.044 48.108C105.044 47.576 104.932 47.1187 104.708 46.736C104.494 46.344 104.204 46.05 103.84 45.854C103.486 45.6487 103.103 45.546 102.692 45.546C102.291 45.546 101.908 45.6487 101.544 45.854C101.19 46.0593 100.9 46.358 100.676 46.75C100.462 47.142 100.354 47.604 100.354 48.136C100.354 48.668 100.462 49.1347 100.676 49.536C100.9 49.928 101.19 50.2267 101.544 50.432C101.908 50.6373 102.291 50.74 102.692 50.74C103.103 50.74 103.486 50.6373 103.84 50.432C104.204 50.2173 104.494 49.9093 104.708 49.508C104.932 49.1067 105.044 48.64 105.044 48.108ZM110.142 41.64V52H108.546V41.64H110.142ZM119.608 47.954C119.608 48.2433 119.589 48.5047 119.552 48.738H113.658C113.705 49.354 113.933 49.8487 114.344 50.222C114.755 50.5953 115.259 50.782 115.856 50.782C116.715 50.782 117.321 50.4227 117.676 49.704H119.398C119.165 50.4133 118.74 50.9967 118.124 51.454C117.517 51.902 116.761 52.126 115.856 52.126C115.119 52.126 114.456 51.9627 113.868 51.636C113.289 51.3 112.832 50.8333 112.496 50.236C112.169 49.6293 112.006 48.9293 112.006 48.136C112.006 47.3427 112.165 46.6473 112.482 46.05C112.809 45.4433 113.261 44.9767 113.84 44.65C114.428 44.3233 115.1 44.16 115.856 44.16C116.584 44.16 117.233 44.3187 117.802 44.636C118.371 44.9533 118.815 45.4013 119.132 45.98C119.449 46.5493 119.608 47.2073 119.608 47.954ZM117.942 47.45C117.933 46.862 117.723 46.3907 117.312 46.036C116.901 45.6813 116.393 45.504 115.786 45.504C115.235 45.504 114.764 45.6813 114.372 46.036C113.98 46.3813 113.747 46.8527 113.672 47.45H117.942ZM127.277 45.588V49.858C127.277 50.1473 127.343 50.3573 127.473 50.488C127.613 50.6093 127.847 50.67 128.173 50.67H129.153V52H127.893C127.175 52 126.624 51.832 126.241 51.496C125.859 51.16 125.667 50.614 125.667 49.858V45.588H124.757V44.286H125.667V42.368H127.277V44.286H129.153V45.588H127.277ZM134.27 52.126C133.542 52.126 132.884 51.9627 132.296 51.636C131.708 51.3 131.246 50.8333 130.91 50.236C130.574 49.6293 130.406 48.9293 130.406 48.136C130.406 47.352 130.579 46.6567 130.924 46.05C131.27 45.4433 131.741 44.9767 132.338 44.65C132.936 44.3233 133.603 44.16 134.34 44.16C135.078 44.16 135.745 44.3233 136.342 44.65C136.94 44.9767 137.411 45.4433 137.756 46.05C138.102 46.6567 138.274 47.352 138.274 48.136C138.274 48.92 138.097 49.6153 137.742 50.222C137.388 50.8287 136.902 51.3 136.286 51.636C135.68 51.9627 135.008 52.126 134.27 52.126ZM134.27 50.74C134.681 50.74 135.064 50.642 135.418 50.446C135.782 50.25 136.076 49.956 136.3 49.564C136.524 49.172 136.636 48.696 136.636 48.136C136.636 47.576 136.529 47.1047 136.314 46.722C136.1 46.33 135.815 46.036 135.46 45.84C135.106 45.644 134.723 45.546 134.312 45.546C133.902 45.546 133.519 45.644 133.164 45.84C132.819 46.036 132.544 46.33 132.338 46.722C132.133 47.1047 132.03 47.576 132.03 48.136C132.03 48.9667 132.24 49.6107 132.66 50.068C133.09 50.516 133.626 50.74 134.27 50.74ZM147.435 52.126C146.707 52.126 146.049 51.9627 145.461 51.636C144.873 51.3 144.411 50.8333 144.075 50.236C143.739 49.6293 143.571 48.9293 143.571 48.136C143.571 47.352 143.743 46.6567 144.089 46.05C144.434 45.4433 144.905 44.9767 145.503 44.65C146.1 44.3233 146.767 44.16 147.505 44.16C148.242 44.16 148.909 44.3233 149.507 44.65C150.104 44.9767 150.575 45.4433 150.921 46.05C151.266 46.6567 151.439 47.352 151.439 48.136C151.439 48.92 151.261 49.6153 150.907 50.222C150.552 50.8287 150.067 51.3 149.451 51.636C148.844 51.9627 148.172 52.126 147.435 52.126ZM147.435 50.74C147.845 50.74 148.228 50.642 148.583 50.446C148.947 50.25 149.241 49.956 149.465 49.564C149.689 49.172 149.801 48.696 149.801 48.136C149.801 47.576 149.693 47.1047 149.479 46.722C149.264 46.33 148.979 46.036 148.625 45.84C148.27 45.644 147.887 45.546 147.477 45.546C147.066 45.546 146.683 45.644 146.329 45.84C145.983 46.036 145.708 46.33 145.503 46.722C145.297 47.1047 145.195 47.576 145.195 48.136C145.195 48.9667 145.405 49.6107 145.825 50.068C146.254 50.516 146.791 50.74 147.435 50.74ZM154.912 45.406C155.146 45.014 155.454 44.7107 155.836 44.496C156.228 44.272 156.69 44.16 157.222 44.16V45.812H156.816C156.191 45.812 155.715 45.9707 155.388 46.288C155.071 46.6053 154.912 47.156 154.912 47.94V52H153.316V44.286H154.912V45.406ZM158.457 48.108C158.457 47.3333 158.616 46.6473 158.933 46.05C159.26 45.4527 159.699 44.9907 160.249 44.664C160.809 44.328 161.43 44.16 162.111 44.16C162.615 44.16 163.11 44.272 163.595 44.496C164.09 44.7107 164.482 45 164.771 45.364V41.64H166.381V52H164.771V50.838C164.51 51.2113 164.146 51.5193 163.679 51.762C163.222 52.0047 162.695 52.126 162.097 52.126C161.425 52.126 160.809 51.958 160.249 51.622C159.699 51.2767 159.26 50.8007 158.933 50.194C158.616 49.578 158.457 48.8827 158.457 48.108ZM164.771 48.136C164.771 47.604 164.659 47.142 164.435 46.75C164.221 46.358 163.936 46.0593 163.581 45.854C163.227 45.6487 162.844 45.546 162.433 45.546C162.023 45.546 161.64 45.6487 161.285 45.854C160.931 46.05 160.641 46.344 160.417 46.736C160.203 47.1187 160.095 47.576 160.095 48.108C160.095 48.64 160.203 49.1067 160.417 49.508C160.641 49.9093 160.931 50.2173 161.285 50.432C161.649 50.6373 162.032 50.74 162.433 50.74C162.844 50.74 163.227 50.6373 163.581 50.432C163.936 50.2267 164.221 49.928 164.435 49.536C164.659 49.1347 164.771 48.668 164.771 48.136ZM175.848 47.954C175.848 48.2433 175.829 48.5047 175.792 48.738H169.898C169.944 49.354 170.173 49.8487 170.584 50.222C170.994 50.5953 171.498 50.782 172.096 50.782C172.954 50.782 173.561 50.4227 173.916 49.704H175.638C175.404 50.4133 174.98 50.9967 174.364 51.454C173.757 51.902 173.001 52.126 172.096 52.126C171.358 52.126 170.696 51.9627 170.108 51.636C169.529 51.3 169.072 50.8333 168.736 50.236C168.409 49.6293 168.246 48.9293 168.246 48.136C168.246 47.3427 168.404 46.6473 168.722 46.05C169.048 45.4433 169.501 44.9767 170.08 44.65C170.668 44.3233 171.34 44.16 172.096 44.16C172.824 44.16 173.472 44.3187 174.042 44.636C174.611 44.9533 175.054 45.4013 175.372 45.98C175.689 46.5493 175.848 47.2073 175.848 47.954ZM174.182 47.45C174.172 46.862 173.962 46.3907 173.552 46.036C173.141 45.6813 172.632 45.504 172.026 45.504C171.475 45.504 171.004 45.6813 170.612 46.036C170.22 46.3813 169.986 46.8527 169.912 47.45H174.182ZM179.314 45.406C179.548 45.014 179.856 44.7107 180.238 44.496C180.63 44.272 181.092 44.16 181.624 44.16V45.812H181.218C180.593 45.812 180.117 45.9707 179.79 46.288C179.473 46.6053 179.314 47.156 179.314 47.94V52H177.718V44.286H179.314V45.406ZM30.518 70.136C30.518 69.3427 30.6767 68.6473 30.994 68.05C31.3207 67.4433 31.7687 66.9767 32.338 66.65C32.9073 66.3233 33.5607 66.16 34.298 66.16C35.2313 66.16 36.0013 66.384 36.608 66.832C37.224 67.2707 37.6393 67.9007 37.854 68.722H36.132C35.992 68.3393 35.768 68.0407 35.46 67.826C35.152 67.6113 34.7647 67.504 34.298 67.504C33.6447 67.504 33.122 67.7373 32.73 68.204C32.3473 68.6613 32.156 69.3053 32.156 70.136C32.156 70.9667 32.3473 71.6153 32.73 72.082C33.122 72.5487 33.6447 72.782 34.298 72.782C35.222 72.782 35.8333 72.376 36.132 71.564H37.854C37.63 72.348 37.21 72.9733 36.594 73.44C35.978 73.8973 35.2127 74.126 34.298 74.126C33.5607 74.126 32.9073 73.9627 32.338 73.636C31.7687 73.3 31.3207 72.8333 30.994 72.236C30.6767 71.6293 30.518 70.9293 30.518 70.136ZM46.7305 66.286V74H45.1345V73.09C44.8825 73.4073 44.5512 73.6593 44.1405 73.846C43.7392 74.0233 43.3099 74.112 42.8525 74.112C42.2459 74.112 41.6999 73.986 41.2145 73.734C40.7385 73.482 40.3605 73.1087 40.0805 72.614C39.8099 72.1193 39.6745 71.522 39.6745 70.822V66.286H41.2565V70.584C41.2565 71.2747 41.4292 71.8067 41.7745 72.18C42.1199 72.544 42.5912 72.726 43.1885 72.726C43.7859 72.726 44.2572 72.544 44.6025 72.18C44.9572 71.8067 45.1345 71.2747 45.1345 70.584V66.286H46.7305ZM51.9363 74.126C51.3297 74.126 50.7837 74.0187 50.2983 73.804C49.8223 73.58 49.4443 73.2813 49.1643 72.908C48.8843 72.5253 48.735 72.1007 48.7163 71.634H50.3683C50.3963 71.9607 50.5503 72.236 50.8303 72.46C51.1197 72.6747 51.479 72.782 51.9083 72.782C52.3563 72.782 52.7017 72.698 52.9443 72.53C53.1963 72.3527 53.3223 72.1287 53.3223 71.858C53.3223 71.5687 53.1823 71.354 52.9023 71.214C52.6317 71.074 52.1977 70.92 51.6003 70.752C51.0217 70.5933 50.5503 70.4393 50.1863 70.29C49.8223 70.1407 49.505 69.912 49.2343 69.604C48.973 69.296 48.8423 68.89 48.8423 68.386C48.8423 67.9753 48.9637 67.602 49.2063 67.266C49.449 66.9207 49.7943 66.65 50.2423 66.454C50.6997 66.258 51.2223 66.16 51.8103 66.16C52.6877 66.16 53.3923 66.384 53.9243 66.832C54.4657 67.2707 54.755 67.8727 54.7923 68.638H53.1963C53.1683 68.2927 53.0283 68.0173 52.7763 67.812C52.5243 67.6067 52.1837 67.504 51.7543 67.504C51.3343 67.504 51.0123 67.5833 50.7883 67.742C50.5643 67.9007 50.4523 68.1107 50.4523 68.372C50.4523 68.5773 50.527 68.75 50.6763 68.89C50.8257 69.03 51.0077 69.142 51.2223 69.226C51.437 69.3007 51.7543 69.3987 52.1743 69.52C52.7343 69.6693 53.1917 69.8233 53.5463 69.982C53.9103 70.1313 54.223 70.3553 54.4843 70.654C54.7457 70.9527 54.881 71.3493 54.8903 71.844C54.8903 72.2827 54.769 72.6747 54.5263 73.02C54.2837 73.3653 53.9383 73.636 53.4903 73.832C53.0517 74.028 52.5337 74.126 51.9363 74.126ZM58.7768 67.588V71.858C58.7768 72.1473 58.8422 72.3573 58.9728 72.488C59.1128 72.6093 59.3462 72.67 59.6728 72.67H60.6528V74H59.3928C58.6742 74 58.1235 73.832 57.7408 73.496C57.3582 73.16 57.1668 72.614 57.1668 71.858V67.588H56.2568V66.286H57.1668V64.368H58.7768V66.286H60.6528V67.588H58.7768ZM65.7698 74.126C65.0418 74.126 64.3838 73.9627 63.7958 73.636C63.2078 73.3 62.7458 72.8333 62.4098 72.236C62.0738 71.6293 61.9058 70.9293 61.9058 70.136C61.9058 69.352 62.0785 68.6567 62.4238 68.05C62.7692 67.4433 63.2405 66.9767 63.8378 66.65C64.4352 66.3233 65.1025 66.16 65.8398 66.16C66.5772 66.16 67.2445 66.3233 67.8418 66.65C68.4392 66.9767 68.9105 67.4433 69.2558 68.05C69.6012 68.6567 69.7738 69.352 69.7738 70.136C69.7738 70.92 69.5965 71.6153 69.2418 72.222C68.8872 72.8287 68.4018 73.3 67.7858 73.636C67.1792 73.9627 66.5072 74.126 65.7698 74.126ZM65.7698 72.74C66.1805 72.74 66.5632 72.642 66.9178 72.446C67.2818 72.25 67.5758 71.956 67.7998 71.564C68.0238 71.172 68.1358 70.696 68.1358 70.136C68.1358 69.576 68.0285 69.1047 67.8138 68.722C67.5992 68.33 67.3145 68.036 66.9598 67.84C66.6052 67.644 66.2225 67.546 65.8118 67.546C65.4012 67.546 65.0185 67.644 64.6638 67.84C64.3185 68.036 64.0432 68.33 63.8378 68.722C63.6325 69.1047 63.5298 69.576 63.5298 70.136C63.5298 70.9667 63.7398 71.6107 64.1598 72.068C64.5892 72.516 65.1258 72.74 65.7698 72.74ZM80.9896 66.16C81.5962 66.16 82.1376 66.286 82.6136 66.538C83.0989 66.79 83.4769 67.1633 83.7476 67.658C84.0276 68.1527 84.1676 68.75 84.1676 69.45V74H82.5856V69.688C82.5856 68.9973 82.4129 68.47 82.0676 68.106C81.7222 67.7327 81.2509 67.546 80.6536 67.546C80.0562 67.546 79.5802 67.7327 79.2256 68.106C78.8802 68.47 78.7076 68.9973 78.7076 69.688V74H77.1256V69.688C77.1256 68.9973 76.9529 68.47 76.6076 68.106C76.2622 67.7327 75.7909 67.546 75.1936 67.546C74.5962 67.546 74.1202 67.7327 73.7656 68.106C73.4202 68.47 73.2476 68.9973 73.2476 69.688V74H71.6516V66.286H73.2476V67.168C73.5089 66.8507 73.8402 66.6033 74.2416 66.426C74.6429 66.2487 75.0722 66.16 75.5296 66.16C76.1456 66.16 76.6962 66.2907 77.1816 66.552C77.6669 66.8133 78.0402 67.1913 78.3016 67.686C78.5349 67.2193 78.8989 66.8507 79.3936 66.58C79.8882 66.3 80.4202 66.16 80.9896 66.16ZM89.9032 70.108C89.9032 69.3333 90.0618 68.6473 90.3792 68.05C90.7058 67.4527 91.1445 66.9907 91.6952 66.664C92.2552 66.328 92.8758 66.16 93.5572 66.16C94.0612 66.16 94.5558 66.272 95.0412 66.496C95.5358 66.7107 95.9278 67 96.2172 67.364V63.64H97.8272V74H96.2172V72.838C95.9558 73.2113 95.5918 73.5193 95.1252 73.762C94.6678 74.0047 94.1405 74.126 93.5432 74.126C92.8712 74.126 92.2552 73.958 91.6952 73.622C91.1445 73.2767 90.7058 72.8007 90.3792 72.194C90.0618 71.578 89.9032 70.8827 89.9032 70.108ZM96.2172 70.136C96.2172 69.604 96.1052 69.142 95.8812 68.75C95.6665 68.358 95.3818 68.0593 95.0272 67.854C94.6725 67.6487 94.2898 67.546 93.8792 67.546C93.4685 67.546 93.0858 67.6487 92.7312 67.854C92.3765 68.05 92.0872 68.344 91.8632 68.736C91.6485 69.1187 91.5412 69.576 91.5412 70.108C91.5412 70.64 91.6485 71.1067 91.8632 71.508C92.0872 71.9093 92.3765 72.2173 92.7312 72.432C93.0952 72.6373 93.4778 72.74 93.8792 72.74C94.2898 72.74 94.6725 72.6373 95.0272 72.432C95.3818 72.2267 95.6665 71.928 95.8812 71.536C96.1052 71.1347 96.2172 70.668 96.2172 70.136ZM101.819 67.406C102.053 67.014 102.361 66.7107 102.743 66.496C103.135 66.272 103.597 66.16 104.129 66.16V67.812H103.723C103.098 67.812 102.622 67.9707 102.295 68.288C101.978 68.6053 101.819 69.156 101.819 69.94V74H100.223V66.286H101.819V67.406ZM105.364 70.108C105.364 69.3333 105.523 68.6473 105.84 68.05C106.167 67.4527 106.606 66.9907 107.156 66.664C107.716 66.328 108.332 66.16 109.004 66.16C109.611 66.16 110.138 66.2813 110.586 66.524C111.044 66.7573 111.408 67.0513 111.678 67.406V66.286H113.288V74H111.678V72.852C111.408 73.216 111.039 73.5193 110.572 73.762C110.106 74.0047 109.574 74.126 108.976 74.126C108.314 74.126 107.707 73.958 107.156 73.622C106.606 73.2767 106.167 72.8007 105.84 72.194C105.523 71.578 105.364 70.8827 105.364 70.108ZM111.678 70.136C111.678 69.604 111.566 69.142 111.342 68.75C111.128 68.358 110.843 68.0593 110.488 67.854C110.134 67.6487 109.751 67.546 109.34 67.546C108.93 67.546 108.547 67.6487 108.192 67.854C107.838 68.05 107.548 68.344 107.324 68.736C107.11 69.1187 107.002 69.576 107.002 70.108C107.002 70.64 107.11 71.1067 107.324 71.508C107.548 71.9093 107.838 72.2173 108.192 72.432C108.556 72.6373 108.939 72.74 109.34 72.74C109.751 72.74 110.134 72.6373 110.488 72.432C110.843 72.2267 111.128 71.928 111.342 71.536C111.566 71.1347 111.678 70.668 111.678 70.136ZM126.045 66.286L123.651 74H121.971L120.417 68.302L118.863 74H117.183L114.775 66.286H116.399L118.009 72.488L119.647 66.286H121.313L122.881 72.46L124.477 66.286H126.045ZM128.35 65.264C128.06 65.264 127.818 65.166 127.622 64.97C127.426 64.774 127.328 64.5313 127.328 64.242C127.328 63.9527 127.426 63.71 127.622 63.514C127.818 63.318 128.06 63.22 128.35 63.22C128.63 63.22 128.868 63.318 129.064 63.514C129.26 63.71 129.358 63.9527 129.358 64.242C129.358 64.5313 129.26 64.774 129.064 64.97C128.868 65.166 128.63 65.264 128.35 65.264ZM129.134 66.286V74H127.538V66.286H129.134ZM135.421 66.16C136.028 66.16 136.569 66.286 137.045 66.538C137.53 66.79 137.908 67.1633 138.179 67.658C138.45 68.1527 138.585 68.75 138.585 69.45V74H137.003V69.688C137.003 68.9973 136.83 68.47 136.485 68.106C136.14 67.7327 135.668 67.546 135.071 67.546C134.474 67.546 133.998 67.7327 133.643 68.106C133.298 68.47 133.125 68.9973 133.125 69.688V74H131.529V66.286H133.125V67.168C133.386 66.8507 133.718 66.6033 134.119 66.426C134.53 66.2487 134.964 66.16 135.421 66.16ZM144.029 66.16C144.626 66.16 145.153 66.2813 145.611 66.524C146.077 66.7573 146.441 67.0513 146.703 67.406V66.286H148.313V74.126C148.313 74.8353 148.163 75.4653 147.865 76.016C147.566 76.576 147.132 77.0147 146.563 77.332C146.003 77.6493 145.331 77.808 144.547 77.808C143.501 77.808 142.633 77.5607 141.943 77.066C141.252 76.5807 140.86 75.918 140.767 75.078H142.349C142.47 75.4793 142.727 75.8013 143.119 76.044C143.52 76.296 143.996 76.422 144.547 76.422C145.191 76.422 145.709 76.226 146.101 75.834C146.502 75.442 146.703 74.8727 146.703 74.126V72.838C146.432 73.202 146.063 73.51 145.597 73.762C145.139 74.0047 144.617 74.126 144.029 74.126C143.357 74.126 142.741 73.958 142.181 73.622C141.63 73.2767 141.191 72.8007 140.865 72.194C140.547 71.578 140.389 70.8827 140.389 70.108C140.389 69.3333 140.547 68.6473 140.865 68.05C141.191 67.4527 141.63 66.9907 142.181 66.664C142.741 66.328 143.357 66.16 144.029 66.16ZM146.703 70.136C146.703 69.604 146.591 69.142 146.367 68.75C146.152 68.358 145.867 68.0593 145.513 67.854C145.158 67.6487 144.775 67.546 144.365 67.546C143.954 67.546 143.571 67.6487 143.217 67.854C142.862 68.05 142.573 68.344 142.349 68.736C142.134 69.1187 142.027 69.576 142.027 70.108C142.027 70.64 142.134 71.1067 142.349 71.508C142.573 71.9093 142.862 72.2173 143.217 72.432C143.581 72.6373 143.963 72.74 144.365 72.74C144.775 72.74 145.158 72.6373 145.513 72.432C145.867 72.2267 146.152 71.928 146.367 71.536C146.591 71.1347 146.703 70.668 146.703 70.136ZM153.327 64.13C154.279 64.13 155.04 64.3913 155.609 64.914C156.188 65.4367 156.477 66.1507 156.477 67.056C156.477 67.9987 156.178 68.708 155.581 69.184C154.984 69.66 154.19 69.898 153.201 69.898L153.145 71.004H151.759L151.689 68.806H152.151C153.056 68.806 153.747 68.6847 154.223 68.442C154.708 68.1993 154.951 67.7373 154.951 67.056C154.951 66.5613 154.806 66.174 154.517 65.894C154.237 65.614 153.845 65.474 153.341 65.474C152.837 65.474 152.44 65.6093 152.151 65.88C151.862 66.1507 151.717 66.5287 151.717 67.014H150.219C150.219 66.454 150.345 65.9547 150.597 65.516C150.849 65.0773 151.208 64.7367 151.675 64.494C152.151 64.2513 152.702 64.13 153.327 64.13ZM152.431 74.098C152.142 74.098 151.899 74 151.703 73.804C151.507 73.608 151.409 73.3653 151.409 73.076C151.409 72.7867 151.507 72.544 151.703 72.348C151.899 72.152 152.142 72.054 152.431 72.054C152.711 72.054 152.949 72.152 153.145 72.348C153.341 72.544 153.439 72.7867 153.439 73.076C153.439 73.3653 153.341 73.608 153.145 73.804C152.949 74 152.711 74.098 152.431 74.098Z" fill="white"/>
</svg>
