<svg width="156" height="50" viewBox="0 0 156 50" fill="none" xmlns="http://www.w3.org/2000/svg">
<path d="M0 24C0 10.7452 10.7452 0 24 0H132C145.255 0 156 10.7452 156 24V26C156 39.2548 145.255 50 132 50H24C10.7452 50 0 39.2548 0 26V24Z" fill="#726985"/>
<path d="M38.82 20.27V30H37.224V25.744H32.646V30H31.05V20.27H32.646V24.442H37.224V20.27H38.82ZM42.0331 21.264C41.7438 21.264 41.5011 21.166 41.3051 20.97C41.1091 20.774 41.0111 20.5313 41.0111 20.242C41.0111 19.9527 41.1091 19.71 41.3051 19.514C41.5011 19.318 41.7438 19.22 42.0331 19.22C42.3131 19.22 42.5511 19.318 42.7471 19.514C42.9431 19.71 43.0411 19.9527 43.0411 20.242C43.0411 20.5313 42.9431 20.774 42.7471 20.97C42.5511 21.166 42.3131 21.264 42.0331 21.264ZM42.8171 22.286V30H41.2211V22.286H42.8171ZM52.3552 30.098C51.7019 30.098 51.1139 29.986 50.5912 29.762C50.0686 29.5287 49.6579 29.202 49.3592 28.782C49.0606 28.362 48.9112 27.872 48.9112 27.312H50.6192C50.6566 27.732 50.8199 28.0773 51.1092 28.348C51.4079 28.6187 51.8232 28.754 52.3552 28.754C52.9059 28.754 53.3352 28.6233 53.6432 28.362C53.9512 28.0913 54.1052 27.746 54.1052 27.326C54.1052 26.9993 54.0072 26.7333 53.8112 26.528C53.6246 26.3227 53.3866 26.164 53.0972 26.052C52.8172 25.94 52.4252 25.8187 51.9212 25.688C51.2866 25.52 50.7686 25.352 50.3672 25.184C49.9752 25.0067 49.6392 24.736 49.3592 24.372C49.0792 24.008 48.9392 23.5227 48.9392 22.916C48.9392 22.356 49.0792 21.866 49.3592 21.446C49.6392 21.026 50.0312 20.704 50.5352 20.48C51.0392 20.256 51.6226 20.144 52.2852 20.144C53.2279 20.144 53.9979 20.382 54.5952 20.858C55.2019 21.3247 55.5379 21.9687 55.6032 22.79H53.8392C53.8112 22.4353 53.6432 22.132 53.3352 21.88C53.0272 21.628 52.6212 21.502 52.1172 21.502C51.6599 21.502 51.2866 21.6187 50.9972 21.852C50.7079 22.0853 50.5632 22.4213 50.5632 22.86C50.5632 23.1587 50.6519 23.406 50.8292 23.602C51.0159 23.7887 51.2492 23.938 51.5292 24.05C51.8092 24.162 52.1919 24.2833 52.6772 24.414C53.3212 24.5913 53.8439 24.7687 54.2452 24.946C54.6559 25.1233 55.0012 25.3987 55.2812 25.772C55.5706 26.136 55.7152 26.626 55.7152 27.242C55.7152 27.7367 55.5799 28.2033 55.3092 28.642C55.0479 29.0807 54.6606 29.4353 54.1472 29.706C53.6432 29.9673 53.0459 30.098 52.3552 30.098ZM57.3664 26.108C57.3664 25.3333 57.5251 24.6473 57.8424 24.05C58.1691 23.4527 58.6078 22.9907 59.1584 22.664C59.7184 22.328 60.3344 22.16 61.0064 22.16C61.6131 22.16 62.1404 22.2813 62.5884 22.524C63.0458 22.7573 63.4098 23.0513 63.6804 23.406V22.286H65.2904V30H63.6804V28.852C63.4098 29.216 63.0411 29.5193 62.5744 29.762C62.1078 30.0047 61.5758 30.126 60.9784 30.126C60.3158 30.126 59.7091 29.958 59.1584 29.622C58.6078 29.2767 58.1691 28.8007 57.8424 28.194C57.5251 27.578 57.3664 26.8827 57.3664 26.108ZM63.6804 26.136C63.6804 25.604 63.5684 25.142 63.3444 24.75C63.1298 24.358 62.8451 24.0593 62.4904 23.854C62.1358 23.6487 61.7531 23.546 61.3424 23.546C60.9318 23.546 60.5491 23.6487 60.1944 23.854C59.8398 24.05 59.5504 24.344 59.3264 24.736C59.1118 25.1187 59.0044 25.576 59.0044 26.108C59.0044 26.64 59.1118 27.1067 59.3264 27.508C59.5504 27.9093 59.8398 28.2173 60.1944 28.432C60.5584 28.6373 60.9411 28.74 61.3424 28.74C61.7531 28.74 62.1358 28.6373 62.4904 28.432C62.8451 28.2267 63.1298 27.928 63.3444 27.536C63.5684 27.1347 63.6804 26.668 63.6804 26.136ZM77.0247 22.16C77.6314 22.16 78.1727 22.286 78.6487 22.538C79.1341 22.79 79.5121 23.1633 79.7827 23.658C80.0627 24.1527 80.2027 24.75 80.2027 25.45V30H78.6207V25.688C78.6207 24.9973 78.4481 24.47 78.1027 24.106C77.7574 23.7327 77.2861 23.546 76.6887 23.546C76.0914 23.546 75.6154 23.7327 75.2607 24.106C74.9154 24.47 74.7427 24.9973 74.7427 25.688V30H73.1607V25.688C73.1607 24.9973 72.9881 24.47 72.6427 24.106C72.2974 23.7327 71.8261 23.546 71.2287 23.546C70.6314 23.546 70.1554 23.7327 69.8007 24.106C69.4554 24.47 69.2827 24.9973 69.2827 25.688V30H67.6867V22.286H69.2827V23.168C69.5441 22.8507 69.8754 22.6033 70.2767 22.426C70.6781 22.2487 71.1074 22.16 71.5647 22.16C72.1807 22.16 72.7314 22.2907 73.2167 22.552C73.7021 22.8133 74.0754 23.1913 74.3367 23.686C74.5701 23.2193 74.9341 22.8507 75.4287 22.58C75.9234 22.3 76.4554 22.16 77.0247 22.16ZM82.0016 26.108C82.0016 25.3333 82.1603 24.6473 82.4776 24.05C82.8043 23.4527 83.2429 22.9907 83.7936 22.664C84.3536 22.328 84.9696 22.16 85.6416 22.16C86.2483 22.16 86.7756 22.2813 87.2236 22.524C87.6809 22.7573 88.0449 23.0513 88.3156 23.406V22.286H89.9256V30H88.3156V28.852C88.0449 29.216 87.6763 29.5193 87.2096 29.762C86.7429 30.0047 86.2109 30.126 85.6136 30.126C84.9509 30.126 84.3443 29.958 83.7936 29.622C83.2429 29.2767 82.8043 28.8007 82.4776 28.194C82.1603 27.578 82.0016 26.8827 82.0016 26.108ZM88.3156 26.136C88.3156 25.604 88.2036 25.142 87.9796 24.75C87.7649 24.358 87.4803 24.0593 87.1256 23.854C86.7709 23.6487 86.3883 23.546 85.9776 23.546C85.5669 23.546 85.1843 23.6487 84.8296 23.854C84.4749 24.05 84.1856 24.344 83.9616 24.736C83.7469 25.1187 83.6396 25.576 83.6396 26.108C83.6396 26.64 83.7469 27.1067 83.9616 27.508C84.1856 27.9093 84.4749 28.2173 84.8296 28.432C85.1936 28.6373 85.5763 28.74 85.9776 28.74C86.3883 28.74 86.7709 28.6373 87.1256 28.432C87.4803 28.2267 87.7649 27.928 87.9796 27.536C88.2036 27.1347 88.3156 26.668 88.3156 26.136ZM96.2139 22.16C96.8205 22.16 97.3619 22.286 97.8379 22.538C98.3232 22.79 98.7012 23.1633 98.9719 23.658C99.2425 24.1527 99.3779 24.75 99.3779 25.45V30H97.7959V25.688C97.7959 24.9973 97.6232 24.47 97.2779 24.106C96.9325 23.7327 96.4612 23.546 95.8639 23.546C95.2665 23.546 94.7905 23.7327 94.4359 24.106C94.0905 24.47 93.9179 24.9973 93.9179 25.688V30H92.3219V22.286H93.9179V23.168C94.1792 22.8507 94.5105 22.6033 94.9119 22.426C95.3225 22.2487 95.7565 22.16 96.2139 22.16ZM103.576 23.588V27.858C103.576 28.1473 103.641 28.3573 103.772 28.488C103.912 28.6093 104.145 28.67 104.472 28.67H105.452V30H104.192C103.473 30 102.922 29.832 102.54 29.496C102.157 29.16 101.966 28.614 101.966 27.858V23.588H101.056V22.286H101.966V20.368H103.576V22.286H105.452V23.588H103.576ZM111.213 22.16C111.801 22.16 112.323 22.286 112.781 22.538C113.247 22.79 113.611 23.1633 113.873 23.658C114.143 24.1527 114.279 24.75 114.279 25.45V30H112.697V25.688C112.697 24.9973 112.524 24.47 112.179 24.106C111.833 23.7327 111.362 23.546 110.765 23.546C110.167 23.546 109.691 23.7327 109.337 24.106C108.991 24.47 108.819 24.9973 108.819 25.688V30H107.223V19.64H108.819V23.182C109.089 22.8553 109.43 22.6033 109.841 22.426C110.261 22.2487 110.718 22.16 111.213 22.16ZM116.082 26.108C116.082 25.3333 116.241 24.6473 116.558 24.05C116.885 23.4527 117.324 22.9907 117.874 22.664C118.434 22.328 119.05 22.16 119.722 22.16C120.329 22.16 120.856 22.2813 121.304 22.524C121.762 22.7573 122.126 23.0513 122.396 23.406V22.286H124.006V30H122.396V28.852C122.126 29.216 121.757 29.5193 121.29 29.762C120.824 30.0047 120.292 30.126 119.694 30.126C119.032 30.126 118.425 29.958 117.874 29.622C117.324 29.2767 116.885 28.8007 116.558 28.194C116.241 27.578 116.082 26.8827 116.082 26.108ZM122.396 26.136C122.396 25.604 122.284 25.142 122.06 24.75C121.846 24.358 121.561 24.0593 121.206 23.854C120.852 23.6487 120.469 23.546 120.058 23.546C119.648 23.546 119.265 23.6487 118.91 23.854C118.556 24.05 118.266 24.344 118.042 24.736C117.828 25.1187 117.72 25.576 117.72 26.108C117.72 26.64 117.828 27.1067 118.042 27.508C118.266 27.9093 118.556 28.2173 118.91 28.432C119.274 28.6373 119.657 28.74 120.058 28.74C120.469 28.74 120.852 28.6373 121.206 28.432C121.561 28.2267 121.846 27.928 122.06 27.536C122.284 27.1347 122.396 26.668 122.396 26.136Z" fill="white"/>
</svg>
