<svg width="319" height="50" viewBox="0 0 319 50" fill="none" xmlns="http://www.w3.org/2000/svg">
<path d="M0 24C0 10.7452 10.7452 0 24 0H295C308.255 0 319 10.7452 319 24V26C319 39.2548 308.255 50 295 50H0V24Z" fill="#726985"/>
<path d="M38.26 20.27L35.04 26.472V30H33.444V26.472L30.21 20.27H31.988L34.242 25.044L36.496 20.27H38.26ZM46.8966 25.954C46.8966 26.2433 46.8779 26.5047 46.8406 26.738H40.9466C40.9932 27.354 41.2219 27.8487 41.6326 28.222C42.0432 28.5953 42.5472 28.782 43.1446 28.782C44.0032 28.782 44.6099 28.4227 44.9646 27.704H46.6866C46.4532 28.4133 46.0286 28.9967 45.4126 29.454C44.8059 29.902 44.0499 30.126 43.1446 30.126C42.4072 30.126 41.7446 29.9627 41.1566 29.636C40.5779 29.3 40.1206 28.8333 39.7846 28.236C39.4579 27.6293 39.2946 26.9293 39.2946 26.136C39.2946 25.3427 39.4532 24.6473 39.7706 24.05C40.0972 23.4433 40.5499 22.9767 41.1286 22.65C41.7166 22.3233 42.3886 22.16 43.1446 22.16C43.8726 22.16 44.5212 22.3187 45.0906 22.636C45.6599 22.9533 46.1032 23.4013 46.4206 23.98C46.7379 24.5493 46.8966 25.2073 46.8966 25.954ZM45.2306 25.45C45.2212 24.862 45.0112 24.3907 44.6006 24.036C44.1899 23.6813 43.6812 23.504 43.0746 23.504C42.5239 23.504 42.0526 23.6813 41.6606 24.036C41.2686 24.3813 41.0352 24.8527 40.9606 25.45H45.2306ZM51.5672 30.126C50.9605 30.126 50.4145 30.0187 49.9292 29.804C49.4532 29.58 49.0752 29.2813 48.7952 28.908C48.5152 28.5253 48.3659 28.1007 48.3472 27.634H49.9992C50.0272 27.9607 50.1812 28.236 50.4612 28.46C50.7505 28.6747 51.1099 28.782 51.5392 28.782C51.9872 28.782 52.3325 28.698 52.5752 28.53C52.8272 28.3527 52.9532 28.1287 52.9532 27.858C52.9532 27.5687 52.8132 27.354 52.5332 27.214C52.2625 27.074 51.8285 26.92 51.2312 26.752C50.6525 26.5933 50.1812 26.4393 49.8172 26.29C49.4532 26.1407 49.1359 25.912 48.8652 25.604C48.6039 25.296 48.4732 24.89 48.4732 24.386C48.4732 23.9753 48.5945 23.602 48.8372 23.266C49.0799 22.9207 49.4252 22.65 49.8732 22.454C50.3305 22.258 50.8532 22.16 51.4412 22.16C52.3185 22.16 53.0232 22.384 53.5552 22.832C54.0965 23.2707 54.3859 23.8727 54.4232 24.638H52.8272C52.7992 24.2927 52.6592 24.0173 52.4072 23.812C52.1552 23.6067 51.8145 23.504 51.3852 23.504C50.9652 23.504 50.6432 23.5833 50.4192 23.742C50.1952 23.9007 50.0832 24.1107 50.0832 24.372C50.0832 24.5773 50.1579 24.75 50.3072 24.89C50.4565 25.03 50.6385 25.142 50.8532 25.226C51.0679 25.3007 51.3852 25.3987 51.8052 25.52C52.3652 25.6693 52.8225 25.8233 53.1772 25.982C53.5412 26.1313 53.8539 26.3553 54.1152 26.654C54.3765 26.9527 54.5119 27.3493 54.5212 27.844C54.5212 28.2827 54.3999 28.6747 54.1572 29.02C53.9145 29.3653 53.5692 29.636 53.1212 29.832C52.6825 30.028 52.1645 30.126 51.5672 30.126ZM58.2957 28.082L56.6017 31.946H55.5657L56.5597 28.082H58.2957ZM71.137 20.27L67.917 26.472V30H66.321V26.472L63.087 20.27H64.865L67.119 25.044L69.373 20.27H71.137ZM76.0495 30.126C75.3215 30.126 74.6635 29.9627 74.0755 29.636C73.4875 29.3 73.0255 28.8333 72.6895 28.236C72.3535 27.6293 72.1855 26.9293 72.1855 26.136C72.1855 25.352 72.3582 24.6567 72.7035 24.05C73.0488 23.4433 73.5202 22.9767 74.1175 22.65C74.7148 22.3233 75.3822 22.16 76.1195 22.16C76.8568 22.16 77.5242 22.3233 78.1215 22.65C78.7188 22.9767 79.1902 23.4433 79.5355 24.05C79.8808 24.6567 80.0535 25.352 80.0535 26.136C80.0535 26.92 79.8762 27.6153 79.5215 28.222C79.1668 28.8287 78.6815 29.3 78.0655 29.636C77.4588 29.9627 76.7868 30.126 76.0495 30.126ZM76.0495 28.74C76.4602 28.74 76.8428 28.642 77.1975 28.446C77.5615 28.25 77.8555 27.956 78.0795 27.564C78.3035 27.172 78.4155 26.696 78.4155 26.136C78.4155 25.576 78.3082 25.1047 78.0935 24.722C77.8788 24.33 77.5942 24.036 77.2395 23.84C76.8848 23.644 76.5022 23.546 76.0915 23.546C75.6808 23.546 75.2982 23.644 74.9435 23.84C74.5982 24.036 74.3228 24.33 74.1175 24.722C73.9122 25.1047 73.8095 25.576 73.8095 26.136C73.8095 26.9667 74.0195 27.6107 74.4395 28.068C74.8688 28.516 75.4055 28.74 76.0495 28.74ZM88.9172 22.286V30H87.3212V29.09C87.0692 29.4073 86.7379 29.6593 86.3272 29.846C85.9259 30.0233 85.4966 30.112 85.0392 30.112C84.4326 30.112 83.8866 29.986 83.4012 29.734C82.9252 29.482 82.5472 29.1087 82.2672 28.614C81.9966 28.1193 81.8612 27.522 81.8612 26.822V22.286H83.4432V26.584C83.4432 27.2747 83.6159 27.8067 83.9612 28.18C84.3066 28.544 84.7779 28.726 85.3752 28.726C85.9726 28.726 86.4439 28.544 86.7892 28.18C87.1439 27.8067 87.3212 27.2747 87.3212 26.584V22.286H88.9172ZM94.7278 26.136C94.7278 25.3427 94.8864 24.6473 95.2038 24.05C95.5304 23.4433 95.9784 22.9767 96.5478 22.65C97.1171 22.3233 97.7704 22.16 98.5078 22.16C99.4411 22.16 100.211 22.384 100.818 22.832C101.434 23.2707 101.849 23.9007 102.064 24.722H100.342C100.202 24.3393 99.9778 24.0407 99.6698 23.826C99.3618 23.6113 98.9744 23.504 98.5078 23.504C97.8544 23.504 97.3318 23.7373 96.9398 24.204C96.5571 24.6613 96.3658 25.3053 96.3658 26.136C96.3658 26.9667 96.5571 27.6153 96.9398 28.082C97.3318 28.5487 97.8544 28.782 98.5078 28.782C99.4318 28.782 100.043 28.376 100.342 27.564H102.064C101.84 28.348 101.42 28.9733 100.804 29.44C100.188 29.8973 99.4224 30.126 98.5078 30.126C97.7704 30.126 97.1171 29.9627 96.5478 29.636C95.9784 29.3 95.5304 28.8333 95.2038 28.236C94.8864 27.6293 94.7278 26.9293 94.7278 26.136ZM103.422 26.108C103.422 25.3333 103.581 24.6473 103.898 24.05C104.225 23.4527 104.664 22.9907 105.214 22.664C105.774 22.328 106.39 22.16 107.062 22.16C107.669 22.16 108.196 22.2813 108.644 22.524C109.102 22.7573 109.466 23.0513 109.736 23.406V22.286H111.346V30H109.736V28.852C109.466 29.216 109.097 29.5193 108.63 29.762C108.164 30.0047 107.632 30.126 107.034 30.126C106.372 30.126 105.765 29.958 105.214 29.622C104.664 29.2767 104.225 28.8007 103.898 28.194C103.581 27.578 103.422 26.8827 103.422 26.108ZM109.736 26.136C109.736 25.604 109.624 25.142 109.4 24.75C109.186 24.358 108.901 24.0593 108.546 23.854C108.192 23.6487 107.809 23.546 107.398 23.546C106.988 23.546 106.605 23.6487 106.25 23.854C105.896 24.05 105.606 24.344 105.382 24.736C105.168 25.1187 105.06 25.576 105.06 26.108C105.06 26.64 105.168 27.1067 105.382 27.508C105.606 27.9093 105.896 28.2173 106.25 28.432C106.614 28.6373 106.997 28.74 107.398 28.74C107.809 28.74 108.192 28.6373 108.546 28.432C108.901 28.2267 109.186 27.928 109.4 27.536C109.624 27.1347 109.736 26.668 109.736 26.136ZM117.635 22.16C118.241 22.16 118.783 22.286 119.259 22.538C119.744 22.79 120.122 23.1633 120.393 23.658C120.663 24.1527 120.799 24.75 120.799 25.45V30H119.217V25.688C119.217 24.9973 119.044 24.47 118.699 24.106C118.353 23.7327 117.882 23.546 117.285 23.546C116.687 23.546 116.211 23.7327 115.857 24.106C115.511 24.47 115.339 24.9973 115.339 25.688V30H113.743V22.286H115.339V23.168C115.6 22.8507 115.931 22.6033 116.333 22.426C116.743 22.2487 117.177 22.16 117.635 22.16ZM130.417 30.126C129.689 30.126 129.031 29.9627 128.443 29.636C127.855 29.3 127.393 28.8333 127.057 28.236C126.721 27.6293 126.553 26.9293 126.553 26.136C126.553 25.352 126.726 24.6567 127.071 24.05C127.416 23.4433 127.888 22.9767 128.485 22.65C129.082 22.3233 129.75 22.16 130.487 22.16C131.224 22.16 131.892 22.3233 132.489 22.65C133.086 22.9767 133.558 23.4433 133.903 24.05C134.248 24.6567 134.421 25.352 134.421 26.136C134.421 26.92 134.244 27.6153 133.889 28.222C133.534 28.8287 133.049 29.3 132.433 29.636C131.826 29.9627 131.154 30.126 130.417 30.126ZM130.417 28.74C130.828 28.74 131.21 28.642 131.565 28.446C131.929 28.25 132.223 27.956 132.447 27.564C132.671 27.172 132.783 26.696 132.783 26.136C132.783 25.576 132.676 25.1047 132.461 24.722C132.246 24.33 131.962 24.036 131.607 23.84C131.252 23.644 130.87 23.546 130.459 23.546C130.048 23.546 129.666 23.644 129.311 23.84C128.966 24.036 128.69 24.33 128.485 24.722C128.28 25.1047 128.177 25.576 128.177 26.136C128.177 26.9667 128.387 27.6107 128.807 28.068C129.236 28.516 129.773 28.74 130.417 28.74ZM137.895 23.406C138.128 23.014 138.436 22.7107 138.819 22.496C139.211 22.272 139.673 22.16 140.205 22.16V23.812H139.799C139.173 23.812 138.697 23.9707 138.371 24.288C138.053 24.6053 137.895 25.156 137.895 25.94V30H136.299V22.286H137.895V23.406ZM141.44 26.108C141.44 25.3333 141.599 24.6473 141.916 24.05C142.243 23.4527 142.681 22.9907 143.232 22.664C143.792 22.328 144.413 22.16 145.094 22.16C145.598 22.16 146.093 22.272 146.578 22.496C147.073 22.7107 147.465 23 147.754 23.364V19.64H149.364V30H147.754V28.838C147.493 29.2113 147.129 29.5193 146.662 29.762C146.205 30.0047 145.677 30.126 145.08 30.126C144.408 30.126 143.792 29.958 143.232 29.622C142.681 29.2767 142.243 28.8007 141.916 28.194C141.599 27.578 141.44 26.8827 141.44 26.108ZM147.754 26.136C147.754 25.604 147.642 25.142 147.418 24.75C147.203 24.358 146.919 24.0593 146.564 23.854C146.209 23.6487 145.827 23.546 145.416 23.546C145.005 23.546 144.623 23.6487 144.268 23.854C143.913 24.05 143.624 24.344 143.4 24.736C143.185 25.1187 143.078 25.576 143.078 26.108C143.078 26.64 143.185 27.1067 143.4 27.508C143.624 27.9093 143.913 28.2173 144.268 28.432C144.632 28.6373 145.015 28.74 145.416 28.74C145.827 28.74 146.209 28.6373 146.564 28.432C146.919 28.2267 147.203 27.928 147.418 27.536C147.642 27.1347 147.754 26.668 147.754 26.136ZM158.83 25.954C158.83 26.2433 158.811 26.5047 158.774 26.738H152.88C152.927 27.354 153.155 27.8487 153.566 28.222C153.977 28.5953 154.481 28.782 155.078 28.782C155.937 28.782 156.543 28.4227 156.898 27.704H158.62C158.387 28.4133 157.962 28.9967 157.346 29.454C156.739 29.902 155.983 30.126 155.078 30.126C154.341 30.126 153.678 29.9627 153.09 29.636C152.511 29.3 152.054 28.8333 151.718 28.236C151.391 27.6293 151.228 26.9293 151.228 26.136C151.228 25.3427 151.387 24.6473 151.704 24.05C152.031 23.4433 152.483 22.9767 153.062 22.65C153.65 22.3233 154.322 22.16 155.078 22.16C155.806 22.16 156.455 22.3187 157.024 22.636C157.593 22.9533 158.037 23.4013 158.354 23.98C158.671 24.5493 158.83 25.2073 158.83 25.954ZM157.164 25.45C157.155 24.862 156.945 24.3907 156.534 24.036C156.123 23.6813 155.615 23.504 155.008 23.504C154.457 23.504 153.986 23.6813 153.594 24.036C153.202 24.3813 152.969 24.8527 152.894 25.45H157.164ZM162.297 23.406C162.53 23.014 162.838 22.7107 163.221 22.496C163.613 22.272 164.075 22.16 164.607 22.16V23.812H164.201C163.575 23.812 163.099 23.9707 162.773 24.288C162.455 24.6053 162.297 25.156 162.297 25.94V30H160.701V22.286H162.297V23.406ZM169.779 26.136C169.779 25.3427 169.937 24.6473 170.255 24.05C170.581 23.4433 171.029 22.9767 171.599 22.65C172.168 22.3233 172.821 22.16 173.559 22.16C174.492 22.16 175.262 22.384 175.869 22.832C176.485 23.2707 176.9 23.9007 177.115 24.722H175.393C175.253 24.3393 175.029 24.0407 174.721 23.826C174.413 23.6113 174.025 23.504 173.559 23.504C172.905 23.504 172.383 23.7373 171.991 24.204C171.608 24.6613 171.417 25.3053 171.417 26.136C171.417 26.9667 171.608 27.6153 171.991 28.082C172.383 28.5487 172.905 28.782 173.559 28.782C174.483 28.782 175.094 28.376 175.393 27.564H177.115C176.891 28.348 176.471 28.9733 175.855 29.44C175.239 29.8973 174.473 30.126 173.559 30.126C172.821 30.126 172.168 29.9627 171.599 29.636C171.029 29.3 170.581 28.8333 170.255 28.236C169.937 27.6293 169.779 26.9293 169.779 26.136ZM185.991 22.286V30H184.395V29.09C184.143 29.4073 183.812 29.6593 183.401 29.846C183 30.0233 182.57 30.112 182.113 30.112C181.506 30.112 180.96 29.986 180.475 29.734C179.999 29.482 179.621 29.1087 179.341 28.614C179.07 28.1193 178.935 27.522 178.935 26.822V22.286H180.517V26.584C180.517 27.2747 180.69 27.8067 181.035 28.18C181.38 28.544 181.852 28.726 182.449 28.726C183.046 28.726 183.518 28.544 183.863 28.18C184.218 27.8067 184.395 27.2747 184.395 26.584V22.286H185.991ZM191.197 30.126C190.59 30.126 190.044 30.0187 189.559 29.804C189.083 29.58 188.705 29.2813 188.425 28.908C188.145 28.5253 187.996 28.1007 187.977 27.634H189.629C189.657 27.9607 189.811 28.236 190.091 28.46C190.38 28.6747 190.74 28.782 191.169 28.782C191.617 28.782 191.962 28.698 192.205 28.53C192.457 28.3527 192.583 28.1287 192.583 27.858C192.583 27.5687 192.443 27.354 192.163 27.214C191.892 27.074 191.458 26.92 190.861 26.752C190.282 26.5933 189.811 26.4393 189.447 26.29C189.083 26.1407 188.766 25.912 188.495 25.604C188.234 25.296 188.103 24.89 188.103 24.386C188.103 23.9753 188.224 23.602 188.467 23.266C188.71 22.9207 189.055 22.65 189.503 22.454C189.96 22.258 190.483 22.16 191.071 22.16C191.948 22.16 192.653 22.384 193.185 22.832C193.726 23.2707 194.016 23.8727 194.053 24.638H192.457C192.429 24.2927 192.289 24.0173 192.037 23.812C191.785 23.6067 191.444 23.504 191.015 23.504C190.595 23.504 190.273 23.5833 190.049 23.742C189.825 23.9007 189.713 24.1107 189.713 24.372C189.713 24.5773 189.788 24.75 189.937 24.89C190.086 25.03 190.268 25.142 190.483 25.226C190.698 25.3007 191.015 25.3987 191.435 25.52C191.995 25.6693 192.452 25.8233 192.807 25.982C193.171 26.1313 193.484 26.3553 193.745 26.654C194.006 26.9527 194.142 27.3493 194.151 27.844C194.151 28.2827 194.03 28.6747 193.787 29.02C193.544 29.3653 193.199 29.636 192.751 29.832C192.312 30.028 191.794 30.126 191.197 30.126ZM198.037 23.588V27.858C198.037 28.1473 198.103 28.3573 198.233 28.488C198.373 28.6093 198.607 28.67 198.933 28.67H199.913V30H198.653C197.935 30 197.384 29.832 197.001 29.496C196.619 29.16 196.427 28.614 196.427 27.858V23.588H195.517V22.286H196.427V20.368H198.037V22.286H199.913V23.588H198.037ZM205.03 30.126C204.302 30.126 203.644 29.9627 203.056 29.636C202.468 29.3 202.006 28.8333 201.67 28.236C201.334 27.6293 201.166 26.9293 201.166 26.136C201.166 25.352 201.339 24.6567 201.684 24.05C202.03 23.4433 202.501 22.9767 203.098 22.65C203.696 22.3233 204.363 22.16 205.1 22.16C205.838 22.16 206.505 22.3233 207.102 22.65C207.7 22.9767 208.171 23.4433 208.516 24.05C208.862 24.6567 209.034 25.352 209.034 26.136C209.034 26.92 208.857 27.6153 208.502 28.222C208.148 28.8287 207.662 29.3 207.046 29.636C206.44 29.9627 205.768 30.126 205.03 30.126ZM205.03 28.74C205.441 28.74 205.824 28.642 206.178 28.446C206.542 28.25 206.836 27.956 207.06 27.564C207.284 27.172 207.396 26.696 207.396 26.136C207.396 25.576 207.289 25.1047 207.074 24.722C206.86 24.33 206.575 24.036 206.22 23.84C205.866 23.644 205.483 23.546 205.072 23.546C204.662 23.546 204.279 23.644 203.924 23.84C203.579 24.036 203.304 24.33 203.098 24.722C202.893 25.1047 202.79 25.576 202.79 26.136C202.79 26.9667 203 27.6107 203.42 28.068C203.85 28.516 204.386 28.74 205.03 28.74ZM220.25 22.16C220.857 22.16 221.398 22.286 221.874 22.538C222.359 22.79 222.737 23.1633 223.008 23.658C223.288 24.1527 223.428 24.75 223.428 25.45V30H221.846V25.688C221.846 24.9973 221.673 24.47 221.328 24.106C220.983 23.7327 220.511 23.546 219.914 23.546C219.317 23.546 218.841 23.7327 218.486 24.106C218.141 24.47 217.968 24.9973 217.968 25.688V30H216.386V25.688C216.386 24.9973 216.213 24.47 215.868 24.106C215.523 23.7327 215.051 23.546 214.454 23.546C213.857 23.546 213.381 23.7327 213.026 24.106C212.681 24.47 212.508 24.9973 212.508 25.688V30H210.912V22.286H212.508V23.168C212.769 22.8507 213.101 22.6033 213.502 22.426C213.903 22.2487 214.333 22.16 214.79 22.16C215.406 22.16 215.957 22.2907 216.442 22.552C216.927 22.8133 217.301 23.1913 217.562 23.686C217.795 23.2193 218.159 22.8507 218.654 22.58C219.149 22.3 219.681 22.16 220.25 22.16ZM229.164 26.108C229.164 25.3333 229.322 24.6473 229.64 24.05C229.966 23.4527 230.405 22.9907 230.956 22.664C231.516 22.328 232.136 22.16 232.818 22.16C233.322 22.16 233.816 22.272 234.302 22.496C234.796 22.7107 235.188 23 235.478 23.364V19.64H237.088V30H235.478V28.838C235.216 29.2113 234.852 29.5193 234.386 29.762C233.928 30.0047 233.401 30.126 232.804 30.126C232.132 30.126 231.516 29.958 230.956 29.622C230.405 29.2767 229.966 28.8007 229.64 28.194C229.322 27.578 229.164 26.8827 229.164 26.108ZM235.478 26.136C235.478 25.604 235.366 25.142 235.142 24.75C234.927 24.358 234.642 24.0593 234.288 23.854C233.933 23.6487 233.55 23.546 233.14 23.546C232.729 23.546 232.346 23.6487 231.992 23.854C231.637 24.05 231.348 24.344 231.124 24.736C230.909 25.1187 230.802 25.576 230.802 26.108C230.802 26.64 230.909 27.1067 231.124 27.508C231.348 27.9093 231.637 28.2173 231.992 28.432C232.356 28.6373 232.738 28.74 233.14 28.74C233.55 28.74 233.933 28.6373 234.288 28.432C234.642 28.2267 234.927 27.928 235.142 27.536C235.366 27.1347 235.478 26.668 235.478 26.136ZM241.08 23.406C241.313 23.014 241.621 22.7107 242.004 22.496C242.396 22.272 242.858 22.16 243.39 22.16V23.812H242.984C242.359 23.812 241.883 23.9707 241.556 24.288C241.239 24.6053 241.08 25.156 241.08 25.94V30H239.484V22.286H241.08V23.406ZM244.625 26.108C244.625 25.3333 244.784 24.6473 245.101 24.05C245.428 23.4527 245.866 22.9907 246.417 22.664C246.977 22.328 247.593 22.16 248.265 22.16C248.872 22.16 249.399 22.2813 249.847 22.524C250.304 22.7573 250.668 23.0513 250.939 23.406V22.286H252.549V30H250.939V28.852C250.668 29.216 250.3 29.5193 249.833 29.762C249.366 30.0047 248.834 30.126 248.237 30.126C247.574 30.126 246.968 29.958 246.417 29.622C245.866 29.2767 245.428 28.8007 245.101 28.194C244.784 27.578 244.625 26.8827 244.625 26.108ZM250.939 26.136C250.939 25.604 250.827 25.142 250.603 24.75C250.388 24.358 250.104 24.0593 249.749 23.854C249.394 23.6487 249.012 23.546 248.601 23.546C248.19 23.546 247.808 23.6487 247.453 23.854C247.098 24.05 246.809 24.344 246.585 24.736C246.37 25.1187 246.263 25.576 246.263 26.108C246.263 26.64 246.37 27.1067 246.585 27.508C246.809 27.9093 247.098 28.2173 247.453 28.432C247.817 28.6373 248.2 28.74 248.601 28.74C249.012 28.74 249.394 28.6373 249.749 28.432C250.104 28.2267 250.388 27.928 250.603 27.536C250.827 27.1347 250.939 26.668 250.939 26.136ZM265.305 22.286L262.911 30H261.231L259.677 24.302L258.123 30H256.443L254.035 22.286H255.659L257.269 28.488L258.907 22.286H260.573L262.141 28.46L263.737 22.286H265.305ZM267.61 21.264C267.321 21.264 267.078 21.166 266.882 20.97C266.686 20.774 266.588 20.5313 266.588 20.242C266.588 19.9527 266.686 19.71 266.882 19.514C267.078 19.318 267.321 19.22 267.61 19.22C267.89 19.22 268.128 19.318 268.324 19.514C268.52 19.71 268.618 19.9527 268.618 20.242C268.618 20.5313 268.52 20.774 268.324 20.97C268.128 21.166 267.89 21.264 267.61 21.264ZM268.394 22.286V30H266.798V22.286H268.394ZM274.681 22.16C275.288 22.16 275.829 22.286 276.305 22.538C276.791 22.79 277.169 23.1633 277.439 23.658C277.71 24.1527 277.845 24.75 277.845 25.45V30H276.263V25.688C276.263 24.9973 276.091 24.47 275.745 24.106C275.4 23.7327 274.929 23.546 274.331 23.546C273.734 23.546 273.258 23.7327 272.903 24.106C272.558 24.47 272.385 24.9973 272.385 25.688V30H270.789V22.286H272.385V23.168C272.647 22.8507 272.978 22.6033 273.379 22.426C273.79 22.2487 274.224 22.16 274.681 22.16ZM283.289 22.16C283.887 22.16 284.414 22.2813 284.871 22.524C285.338 22.7573 285.702 23.0513 285.963 23.406V22.286H287.573V30.126C287.573 30.8353 287.424 31.4653 287.125 32.016C286.827 32.576 286.393 33.0147 285.823 33.332C285.263 33.6493 284.591 33.808 283.807 33.808C282.762 33.808 281.894 33.5607 281.203 33.066C280.513 32.5807 280.121 31.918 280.027 31.078H281.609C281.731 31.4793 281.987 31.8013 282.379 32.044C282.781 32.296 283.257 32.422 283.807 32.422C284.451 32.422 284.969 32.226 285.361 31.834C285.763 31.442 285.963 30.8727 285.963 30.126V28.838C285.693 29.202 285.324 29.51 284.857 29.762C284.4 30.0047 283.877 30.126 283.289 30.126C282.617 30.126 282.001 29.958 281.441 29.622C280.891 29.2767 280.452 28.8007 280.125 28.194C279.808 27.578 279.649 26.8827 279.649 26.108C279.649 25.3333 279.808 24.6473 280.125 24.05C280.452 23.4527 280.891 22.9907 281.441 22.664C282.001 22.328 282.617 22.16 283.289 22.16ZM285.963 26.136C285.963 25.604 285.851 25.142 285.627 24.75C285.413 24.358 285.128 24.0593 284.773 23.854C284.419 23.6487 284.036 23.546 283.625 23.546C283.215 23.546 282.832 23.6487 282.477 23.854C282.123 24.05 281.833 24.344 281.609 24.736C281.395 25.1187 281.287 25.576 281.287 26.108C281.287 26.64 281.395 27.1067 281.609 27.508C281.833 27.9093 282.123 28.2173 282.477 28.432C282.841 28.6373 283.224 28.74 283.625 28.74C284.036 28.74 284.419 28.6373 284.773 28.432C285.128 28.2267 285.413 27.928 285.627 27.536C285.851 27.1347 285.963 26.668 285.963 26.136Z" fill="white"/>
</svg>
