<svg width="193" height="33" viewBox="0 0 193 33" fill="none" xmlns="http://www.w3.org/2000/svg">
<path opacity="0.5" d="M4.716 31.084C3.94 31.084 3.232 30.904 2.592 30.544C1.952 30.176 1.444 29.668 1.068 29.02C0.7 28.364 0.516 27.628 0.516 26.812C0.516 25.996 0.7 25.264 1.068 24.616C1.444 23.96 1.952 23.452 2.592 23.092C3.232 22.724 3.94 22.54 4.716 22.54C5.5 22.54 6.212 22.724 6.852 23.092C7.492 23.452 7.996 23.956 8.364 24.604C8.732 25.252 8.916 25.988 8.916 26.812C8.916 27.636 8.732 28.372 8.364 29.02C7.996 29.668 7.492 30.176 6.852 30.544C6.212 30.904 5.5 31.084 4.716 31.084ZM4.716 30.136C5.3 30.136 5.824 30 6.288 29.728C6.76 29.456 7.128 29.068 7.392 28.564C7.664 28.06 7.8 27.476 7.8 26.812C7.8 26.14 7.664 25.556 7.392 25.06C7.128 24.556 6.764 24.168 6.3 23.896C5.836 23.624 5.308 23.488 4.716 23.488C4.124 23.488 3.596 23.624 3.132 23.896C2.668 24.168 2.3 24.556 2.028 25.06C1.764 25.556 1.632 26.14 1.632 26.812C1.632 27.476 1.764 28.06 2.028 28.564C2.3 29.068 2.668 29.456 3.132 29.728C3.604 30 4.132 30.136 4.716 30.136ZM19.6176 24.424L17.5656 31H16.4376L14.8536 25.78L13.2696 31H12.1416L10.0776 24.424H11.1936L12.7056 29.944L14.3376 24.424H15.4536L17.0496 29.956L18.5376 24.424H19.6176ZM24.4053 24.304C25.2053 24.304 25.8533 24.548 26.3493 25.036C26.8453 25.516 27.0933 26.212 27.0933 27.124V31H26.0133V27.28C26.0133 26.624 25.8493 26.124 25.5213 25.78C25.1933 25.428 24.7453 25.252 24.1773 25.252C23.6013 25.252 23.1413 25.432 22.7973 25.792C22.4613 26.152 22.2933 26.676 22.2933 27.364V31H21.2013V24.424H22.2933V25.36C22.5093 25.024 22.8013 24.764 23.1693 24.58C23.5453 24.396 23.9573 24.304 24.4053 24.304ZM35.3771 27.46C35.3771 27.668 35.3651 27.888 35.3411 28.12H30.0851C30.1251 28.768 30.3451 29.276 30.7451 29.644C31.1531 30.004 31.6451 30.184 32.2211 30.184C32.6931 30.184 33.0851 30.076 33.3971 29.86C33.7171 29.636 33.9411 29.34 34.0691 28.972H35.2451C35.0691 29.604 34.7171 30.12 34.1891 30.52C33.6611 30.912 33.0051 31.108 32.2211 31.108C31.5971 31.108 31.0371 30.968 30.5411 30.688C30.0531 30.408 29.6691 30.012 29.3891 29.5C29.1091 28.98 28.9691 28.38 28.9691 27.7C28.9691 27.02 29.1051 26.424 29.3771 25.912C29.6491 25.4 30.0291 25.008 30.5171 24.736C31.0131 24.456 31.5811 24.316 32.2211 24.316C32.8451 24.316 33.3971 24.452 33.8771 24.724C34.3571 24.996 34.7251 25.372 34.9811 25.852C35.2451 26.324 35.3771 26.86 35.3771 27.46ZM34.2491 27.232C34.2491 26.816 34.1571 26.46 33.9731 26.164C33.7891 25.86 33.5371 25.632 33.2171 25.48C32.9051 25.32 32.5571 25.24 32.1731 25.24C31.6211 25.24 31.1491 25.416 30.7571 25.768C30.3731 26.12 30.1531 26.608 30.0971 27.232H34.2491ZM38.4105 25.492C38.6025 25.116 38.8745 24.824 39.2265 24.616C39.5865 24.408 40.0225 24.304 40.5345 24.304V25.432H40.2465C39.0225 25.432 38.4105 26.096 38.4105 27.424V31H37.3185V24.424H38.4105V25.492ZM48.8623 31.108C48.2463 31.108 47.6863 30.968 47.1823 30.688C46.6863 30.408 46.2943 30.012 46.0063 29.5C45.7263 28.98 45.5863 28.38 45.5863 27.7C45.5863 27.028 45.7303 26.436 46.0183 25.924C46.3143 25.404 46.7143 25.008 47.2183 24.736C47.7223 24.456 48.2863 24.316 48.9103 24.316C49.5343 24.316 50.0983 24.456 50.6023 24.736C51.1063 25.008 51.5023 25.4 51.7903 25.912C52.0863 26.424 52.2343 27.02 52.2343 27.7C52.2343 28.38 52.0823 28.98 51.7783 29.5C51.4823 30.012 51.0783 30.408 50.5663 30.688C50.0543 30.968 49.4863 31.108 48.8623 31.108ZM48.8623 30.148C49.2543 30.148 49.6223 30.056 49.9663 29.872C50.3103 29.688 50.5863 29.412 50.7943 29.044C51.0103 28.676 51.1183 28.228 51.1183 27.7C51.1183 27.172 51.0143 26.724 50.8063 26.356C50.5983 25.988 50.3263 25.716 49.9903 25.54C49.6543 25.356 49.2903 25.264 48.8983 25.264C48.4983 25.264 48.1303 25.356 47.7943 25.54C47.4663 25.716 47.2023 25.988 47.0023 26.356C46.8023 26.724 46.7023 27.172 46.7023 27.7C46.7023 28.236 46.7983 28.688 46.9903 29.056C47.1903 29.424 47.4543 29.7 47.7823 29.884C48.1103 30.06 48.4703 30.148 48.8623 30.148ZM56.8461 25.324H55.4661V31H54.3741V25.324H53.5221V24.424H54.3741V23.956C54.3741 23.22 54.5621 22.684 54.9381 22.348C55.3221 22.004 55.9341 21.832 56.7741 21.832V22.744C56.2941 22.744 55.9541 22.84 55.7541 23.032C55.5621 23.216 55.4661 23.524 55.4661 23.956V24.424H56.8461V25.324ZM66.1105 31.084C65.3345 31.084 64.6265 30.904 63.9865 30.544C63.3465 30.176 62.8385 29.668 62.4625 29.02C62.0945 28.364 61.9105 27.628 61.9105 26.812C61.9105 25.996 62.0945 25.264 62.4625 24.616C62.8385 23.96 63.3465 23.452 63.9865 23.092C64.6265 22.724 65.3345 22.54 66.1105 22.54C66.8945 22.54 67.6065 22.724 68.2465 23.092C68.8865 23.452 69.3905 23.956 69.7585 24.604C70.1265 25.252 70.3105 25.988 70.3105 26.812C70.3105 27.636 70.1265 28.372 69.7585 29.02C69.3905 29.668 68.8865 30.176 68.2465 30.544C67.6065 30.904 66.8945 31.084 66.1105 31.084ZM66.1105 30.136C66.6945 30.136 67.2185 30 67.6825 29.728C68.1545 29.456 68.5225 29.068 68.7865 28.564C69.0585 28.06 69.1945 27.476 69.1945 26.812C69.1945 26.14 69.0585 25.556 68.7865 25.06C68.5225 24.556 68.1585 24.168 67.6945 23.896C67.2305 23.624 66.7025 23.488 66.1105 23.488C65.5185 23.488 64.9905 23.624 64.5265 23.896C64.0625 24.168 63.6945 24.556 63.4225 25.06C63.1585 25.556 63.0265 26.14 63.0265 26.812C63.0265 27.476 63.1585 28.06 63.4225 28.564C63.6945 29.068 64.0625 29.456 64.5265 29.728C64.9985 30 65.5265 30.136 66.1105 30.136ZM75.4561 24.304C76.2561 24.304 76.9041 24.548 77.4001 25.036C77.8961 25.516 78.1441 26.212 78.1441 27.124V31H77.0641V27.28C77.0641 26.624 76.9001 26.124 76.5721 25.78C76.2441 25.428 75.7961 25.252 75.2281 25.252C74.6521 25.252 74.1921 25.432 73.8481 25.792C73.5121 26.152 73.3441 26.676 73.3441 27.364V31H72.2521V24.424H73.3441V25.36C73.5601 25.024 73.8521 24.764 74.2201 24.58C74.5961 24.396 75.0081 24.304 75.4561 24.304ZM81.5199 22.12V31H80.4279V22.12H81.5199ZM84.445 23.356C84.237 23.356 84.061 23.284 83.917 23.14C83.773 22.996 83.701 22.82 83.701 22.612C83.701 22.404 83.773 22.228 83.917 22.084C84.061 21.94 84.237 21.868 84.445 21.868C84.645 21.868 84.813 21.94 84.949 22.084C85.093 22.228 85.165 22.404 85.165 22.612C85.165 22.82 85.093 22.996 84.949 23.14C84.813 23.284 84.645 23.356 84.445 23.356ZM84.973 24.424V31H83.881V24.424H84.973ZM90.5382 24.304C91.3382 24.304 91.9862 24.548 92.4822 25.036C92.9782 25.516 93.2262 26.212 93.2262 27.124V31H92.1462V27.28C92.1462 26.624 91.9822 26.124 91.6542 25.78C91.3262 25.428 90.8782 25.252 90.3102 25.252C89.7342 25.252 89.2742 25.432 88.9302 25.792C88.5942 26.152 88.4262 26.676 88.4262 27.364V31H87.3342V24.424H88.4262V25.36C88.6422 25.024 88.9342 24.764 89.3022 24.58C89.6782 24.396 90.0902 24.304 90.5382 24.304ZM101.51 27.46C101.51 27.668 101.498 27.888 101.474 28.12H96.2179C96.2579 28.768 96.4779 29.276 96.8779 29.644C97.2859 30.004 97.7779 30.184 98.3539 30.184C98.8259 30.184 99.2179 30.076 99.5299 29.86C99.8499 29.636 100.074 29.34 100.202 28.972H101.378C101.202 29.604 100.85 30.12 100.322 30.52C99.7939 30.912 99.1379 31.108 98.3539 31.108C97.7299 31.108 97.1699 30.968 96.6739 30.688C96.1859 30.408 95.8019 30.012 95.5219 29.5C95.2419 28.98 95.1019 28.38 95.1019 27.7C95.1019 27.02 95.2379 26.424 95.5099 25.912C95.7819 25.4 96.1619 25.008 96.6499 24.736C97.1459 24.456 97.7139 24.316 98.3539 24.316C98.9779 24.316 99.5299 24.452 100.01 24.724C100.49 24.996 100.858 25.372 101.114 25.852C101.378 26.324 101.51 26.86 101.51 27.46ZM100.382 27.232C100.382 26.816 100.29 26.46 100.106 26.164C99.9219 25.86 99.6699 25.632 99.3499 25.48C99.0379 25.32 98.6899 25.24 98.3059 25.24C97.7539 25.24 97.2819 25.416 96.8899 25.768C96.5059 26.12 96.2859 26.608 96.2299 27.232H100.382ZM111.879 22.636V23.524H108.243V26.344H111.195V27.232H108.243V31H107.151V22.636H111.879ZM113.289 27.688C113.289 27.016 113.425 26.428 113.697 25.924C113.969 25.412 114.341 25.016 114.813 24.736C115.293 24.456 115.825 24.316 116.409 24.316C116.985 24.316 117.485 24.44 117.909 24.688C118.333 24.936 118.649 25.248 118.857 25.624V24.424H119.961V31H118.857V29.776C118.641 30.16 118.317 30.48 117.885 30.736C117.461 30.984 116.965 31.108 116.397 31.108C115.813 31.108 115.285 30.964 114.813 30.676C114.341 30.388 113.969 29.984 113.697 29.464C113.425 28.944 113.289 28.352 113.289 27.688ZM118.857 27.7C118.857 27.204 118.757 26.772 118.557 26.404C118.357 26.036 118.085 25.756 117.741 25.564C117.405 25.364 117.033 25.264 116.625 25.264C116.217 25.264 115.845 25.36 115.509 25.552C115.173 25.744 114.905 26.024 114.705 26.392C114.505 26.76 114.405 27.192 114.405 27.688C114.405 28.192 114.505 28.632 114.705 29.008C114.905 29.376 115.173 29.66 115.509 29.86C115.845 30.052 116.217 30.148 116.625 30.148C117.033 30.148 117.405 30.052 117.741 29.86C118.085 29.66 118.357 29.376 118.557 29.008C118.757 28.632 118.857 28.196 118.857 27.7ZM124.635 31.108C124.131 31.108 123.679 31.024 123.279 30.856C122.879 30.68 122.563 30.44 122.331 30.136C122.099 29.824 121.971 29.468 121.947 29.068H123.075C123.107 29.396 123.259 29.664 123.531 29.872C123.811 30.08 124.175 30.184 124.623 30.184C125.039 30.184 125.367 30.092 125.607 29.908C125.847 29.724 125.967 29.492 125.967 29.212C125.967 28.924 125.839 28.712 125.583 28.576C125.327 28.432 124.931 28.292 124.395 28.156C123.907 28.028 123.507 27.9 123.195 27.772C122.891 27.636 122.627 27.44 122.403 27.184C122.187 26.92 122.079 26.576 122.079 26.152C122.079 25.816 122.179 25.508 122.379 25.228C122.579 24.948 122.863 24.728 123.231 24.568C123.599 24.4 124.019 24.316 124.491 24.316C125.219 24.316 125.807 24.5 126.255 24.868C126.703 25.236 126.943 25.74 126.975 26.38H125.883C125.859 26.036 125.719 25.76 125.463 25.552C125.215 25.344 124.879 25.24 124.455 25.24C124.063 25.24 123.751 25.324 123.519 25.492C123.287 25.66 123.171 25.88 123.171 26.152C123.171 26.368 123.239 26.548 123.375 26.692C123.519 26.828 123.695 26.94 123.903 27.028C124.119 27.108 124.415 27.2 124.791 27.304C125.263 27.432 125.647 27.56 125.943 27.688C126.239 27.808 126.491 27.992 126.699 28.24C126.915 28.488 127.027 28.812 127.035 29.212C127.035 29.572 126.935 29.896 126.735 30.184C126.535 30.472 126.251 30.7 125.883 30.868C125.523 31.028 125.107 31.108 124.635 31.108ZM132.34 24.304C132.836 24.304 133.284 24.412 133.684 24.628C134.084 24.836 134.396 25.152 134.62 25.576C134.852 26 134.968 26.516 134.968 27.124V31H133.888V27.28C133.888 26.624 133.724 26.124 133.396 25.78C133.068 25.428 132.62 25.252 132.052 25.252C131.476 25.252 131.016 25.432 130.672 25.792C130.336 26.152 130.168 26.676 130.168 27.364V31H129.076V22.12H130.168V25.36C130.384 25.024 130.68 24.764 131.056 24.58C131.44 24.396 131.868 24.304 132.34 24.304ZM137.816 23.356C137.608 23.356 137.432 23.284 137.288 23.14C137.144 22.996 137.072 22.82 137.072 22.612C137.072 22.404 137.144 22.228 137.288 22.084C137.432 21.94 137.608 21.868 137.816 21.868C138.016 21.868 138.184 21.94 138.32 22.084C138.464 22.228 138.536 22.404 138.536 22.612C138.536 22.82 138.464 22.996 138.32 23.14C138.184 23.284 138.016 23.356 137.816 23.356ZM138.344 24.424V31H137.252V24.424H138.344ZM143.573 31.108C142.957 31.108 142.397 30.968 141.893 30.688C141.397 30.408 141.005 30.012 140.717 29.5C140.437 28.98 140.297 28.38 140.297 27.7C140.297 27.028 140.441 26.436 140.729 25.924C141.025 25.404 141.425 25.008 141.929 24.736C142.433 24.456 142.997 24.316 143.621 24.316C144.245 24.316 144.809 24.456 145.313 24.736C145.817 25.008 146.213 25.4 146.501 25.912C146.797 26.424 146.945 27.02 146.945 27.7C146.945 28.38 146.793 28.98 146.489 29.5C146.193 30.012 145.789 30.408 145.277 30.688C144.765 30.968 144.197 31.108 143.573 31.108ZM143.573 30.148C143.965 30.148 144.333 30.056 144.677 29.872C145.021 29.688 145.297 29.412 145.505 29.044C145.721 28.676 145.829 28.228 145.829 27.7C145.829 27.172 145.725 26.724 145.517 26.356C145.309 25.988 145.037 25.716 144.701 25.54C144.365 25.356 144.001 25.264 143.609 25.264C143.209 25.264 142.841 25.356 142.505 25.54C142.177 25.716 141.913 25.988 141.713 26.356C141.513 26.724 141.413 27.172 141.413 27.7C141.413 28.236 141.509 28.688 141.701 29.056C141.901 29.424 142.165 29.7 142.493 29.884C142.821 30.06 143.181 30.148 143.573 30.148ZM152.085 24.304C152.885 24.304 153.533 24.548 154.029 25.036C154.525 25.516 154.773 26.212 154.773 27.124V31H153.693V27.28C153.693 26.624 153.529 26.124 153.201 25.78C152.873 25.428 152.425 25.252 151.857 25.252C151.281 25.252 150.821 25.432 150.477 25.792C150.141 26.152 149.973 26.676 149.973 27.364V31H148.881V24.424H149.973V25.36C150.189 25.024 150.481 24.764 150.849 24.58C151.225 24.396 151.637 24.304 152.085 24.304ZM163.408 31.084C162.856 31.084 162.36 30.988 161.92 30.796C161.488 30.596 161.148 30.324 160.9 29.98C160.652 29.628 160.524 29.224 160.516 28.768H161.68C161.72 29.16 161.88 29.492 162.16 29.764C162.448 30.028 162.864 30.16 163.408 30.16C163.928 30.16 164.336 30.032 164.632 29.776C164.936 29.512 165.088 29.176 165.088 28.768C165.088 28.448 165 28.188 164.824 27.988C164.648 27.788 164.428 27.636 164.164 27.532C163.9 27.428 163.544 27.316 163.096 27.196C162.544 27.052 162.1 26.908 161.764 26.764C161.436 26.62 161.152 26.396 160.912 26.092C160.68 25.78 160.564 25.364 160.564 24.844C160.564 24.388 160.68 23.984 160.912 23.632C161.144 23.28 161.468 23.008 161.884 22.816C162.308 22.624 162.792 22.528 163.336 22.528C164.12 22.528 164.76 22.724 165.256 23.116C165.76 23.508 166.044 24.028 166.108 24.676H164.908C164.868 24.356 164.7 24.076 164.404 23.836C164.108 23.588 163.716 23.464 163.228 23.464C162.772 23.464 162.4 23.584 162.112 23.824C161.824 24.056 161.68 24.384 161.68 24.808C161.68 25.112 161.764 25.36 161.932 25.552C162.108 25.744 162.32 25.892 162.568 25.996C162.824 26.092 163.18 26.204 163.636 26.332C164.188 26.484 164.632 26.636 164.968 26.788C165.304 26.932 165.592 27.16 165.832 27.472C166.072 27.776 166.192 28.192 166.192 28.72C166.192 29.128 166.084 29.512 165.868 29.872C165.652 30.232 165.332 30.524 164.908 30.748C164.484 30.972 163.984 31.084 163.408 31.084ZM169.631 25.324V29.2C169.631 29.52 169.699 29.748 169.835 29.884C169.971 30.012 170.207 30.076 170.543 30.076H171.347V31H170.363C169.755 31 169.299 30.86 168.995 30.58C168.691 30.3 168.539 29.84 168.539 29.2V25.324H167.687V24.424H168.539V22.768H169.631V24.424H171.347V25.324H169.631ZM176.038 31.108C175.422 31.108 174.862 30.968 174.358 30.688C173.862 30.408 173.47 30.012 173.182 29.5C172.902 28.98 172.762 28.38 172.762 27.7C172.762 27.028 172.906 26.436 173.194 25.924C173.49 25.404 173.89 25.008 174.394 24.736C174.898 24.456 175.462 24.316 176.086 24.316C176.71 24.316 177.274 24.456 177.778 24.736C178.282 25.008 178.678 25.4 178.966 25.912C179.262 26.424 179.41 27.02 179.41 27.7C179.41 28.38 179.258 28.98 178.954 29.5C178.658 30.012 178.254 30.408 177.742 30.688C177.23 30.968 176.662 31.108 176.038 31.108ZM176.038 30.148C176.43 30.148 176.798 30.056 177.142 29.872C177.486 29.688 177.762 29.412 177.97 29.044C178.186 28.676 178.294 28.228 178.294 27.7C178.294 27.172 178.19 26.724 177.982 26.356C177.774 25.988 177.502 25.716 177.166 25.54C176.83 25.356 176.466 25.264 176.074 25.264C175.674 25.264 175.306 25.356 174.97 25.54C174.642 25.716 174.378 25.988 174.178 26.356C173.978 26.724 173.878 27.172 173.878 27.7C173.878 28.236 173.974 28.688 174.166 29.056C174.366 29.424 174.63 29.7 174.958 29.884C175.286 30.06 175.646 30.148 176.038 30.148ZM182.438 25.492C182.63 25.116 182.902 24.824 183.254 24.616C183.614 24.408 184.05 24.304 184.562 24.304V25.432H184.274C183.05 25.432 182.438 26.096 182.438 27.424V31H181.346V24.424H182.438V25.492ZM192.322 27.46C192.322 27.668 192.31 27.888 192.286 28.12H187.03C187.07 28.768 187.29 29.276 187.69 29.644C188.098 30.004 188.59 30.184 189.166 30.184C189.638 30.184 190.03 30.076 190.342 29.86C190.662 29.636 190.886 29.34 191.014 28.972H192.19C192.014 29.604 191.662 30.12 191.134 30.52C190.606 30.912 189.95 31.108 189.166 31.108C188.542 31.108 187.982 30.968 187.486 30.688C186.998 30.408 186.614 30.012 186.334 29.5C186.054 28.98 185.914 28.38 185.914 27.7C185.914 27.02 186.05 26.424 186.322 25.912C186.594 25.4 186.974 25.008 187.462 24.736C187.958 24.456 188.526 24.316 189.166 24.316C189.79 24.316 190.342 24.452 190.822 24.724C191.302 24.996 191.67 25.372 191.926 25.852C192.19 26.324 192.322 26.86 192.322 27.46ZM191.194 27.232C191.194 26.816 191.102 26.46 190.918 26.164C190.734 25.86 190.482 25.632 190.162 25.48C189.85 25.32 189.502 25.24 189.118 25.24C188.566 25.24 188.094 25.416 187.702 25.768C187.318 26.12 187.098 26.608 187.042 27.232H191.194Z" fill="#2C3A4B"/>
<path d="M3.952 11.091C3.34533 11.091 2.79933 10.987 2.314 10.779C1.82867 10.5623 1.44733 10.259 1.17 9.869C0.892667 9.479 0.754 9.024 0.754 8.504H2.34C2.37467 8.894 2.52633 9.21467 2.795 9.466C3.07233 9.71733 3.458 9.843 3.952 9.843C4.46333 9.843 4.862 9.72167 5.148 9.479C5.434 9.22767 5.577 8.907 5.577 8.517C5.577 8.21367 5.486 7.96667 5.304 7.776C5.13067 7.58533 4.90967 7.438 4.641 7.334C4.381 7.23 4.017 7.11733 3.549 6.996C2.95967 6.84 2.47867 6.684 2.106 6.528C1.742 6.36333 1.43 6.112 1.17 5.774C0.91 5.436 0.78 4.98533 0.78 4.422C0.78 3.902 0.91 3.447 1.17 3.057C1.43 2.667 1.794 2.368 2.262 2.16C2.73 1.952 3.27167 1.848 3.887 1.848C4.76233 1.848 5.47733 2.069 6.032 2.511C6.59533 2.94433 6.90733 3.54233 6.968 4.305H5.33C5.304 3.97567 5.148 3.694 4.862 3.46C4.576 3.226 4.199 3.109 3.731 3.109C3.30633 3.109 2.95967 3.21733 2.691 3.434C2.42233 3.65067 2.288 3.96267 2.288 4.37C2.288 4.64733 2.37033 4.877 2.535 5.059C2.70833 5.23233 2.925 5.371 3.185 5.475C3.445 5.579 3.80033 5.69167 4.251 5.813C4.849 5.97767 5.33433 6.14233 5.707 6.307C6.08833 6.47167 6.409 6.72733 6.669 7.074C6.93767 7.412 7.072 7.867 7.072 8.439C7.072 8.89833 6.94633 9.33167 6.695 9.739C6.45233 10.1463 6.09267 10.4757 5.616 10.727C5.148 10.9697 4.59333 11.091 3.952 11.091ZM8.6267 7.386C8.6267 6.66667 8.77404 6.02967 9.0687 5.475C9.37204 4.92033 9.77937 4.49133 10.2907 4.188C10.8107 3.876 11.3827 3.72 12.0067 3.72C12.57 3.72 13.0597 3.83267 13.4757 4.058C13.9004 4.27467 14.2384 4.54767 14.4897 4.877V3.837H15.9847V11H14.4897V9.934C14.2384 10.272 13.896 10.5537 13.4627 10.779C13.0294 11.0043 12.5354 11.117 11.9807 11.117C11.3654 11.117 10.802 10.961 10.2907 10.649C9.77937 10.3283 9.37204 9.88633 9.0687 9.323C8.77404 8.751 8.6267 8.10533 8.6267 7.386ZM14.4897 7.412C14.4897 6.918 14.3857 6.489 14.1777 6.125C13.9784 5.761 13.714 5.48367 13.3847 5.293C13.0554 5.10233 12.7 5.007 12.3187 5.007C11.9374 5.007 11.582 5.10233 11.2527 5.293C10.9234 5.475 10.6547 5.748 10.4467 6.112C10.2474 6.46733 10.1477 6.892 10.1477 7.386C10.1477 7.88 10.2474 8.31333 10.4467 8.686C10.6547 9.05867 10.9234 9.34467 11.2527 9.544C11.5907 9.73467 11.946 9.83 12.3187 9.83C12.7 9.83 13.0554 9.73467 13.3847 9.544C13.714 9.35333 13.9784 9.076 14.1777 8.712C14.3857 8.33933 14.4897 7.906 14.4897 7.412ZM26.9023 3.72C27.4656 3.72 27.9683 3.837 28.4103 4.071C28.8609 4.305 29.2119 4.65167 29.4633 5.111C29.7233 5.57033 29.8533 6.125 29.8533 6.775V11H28.3843V6.996C28.3843 6.35467 28.2239 5.865 27.9033 5.527C27.5826 5.18033 27.1449 5.007 26.5903 5.007C26.0356 5.007 25.5936 5.18033 25.2643 5.527C24.9436 5.865 24.7833 6.35467 24.7833 6.996V11H23.3143V6.996C23.3143 6.35467 23.1539 5.865 22.8333 5.527C22.5126 5.18033 22.0749 5.007 21.5203 5.007C20.9656 5.007 20.5236 5.18033 20.1943 5.527C19.8736 5.865 19.7133 6.35467 19.7133 6.996V11H18.2313V3.837H19.7133V4.656C19.9559 4.36133 20.2636 4.13167 20.6363 3.967C21.0089 3.80233 21.4076 3.72 21.8323 3.72C22.4043 3.72 22.9156 3.84133 23.3663 4.084C23.8169 4.32667 24.1636 4.67767 24.4063 5.137C24.6229 4.70367 24.9609 4.36133 25.4203 4.11C25.8796 3.85 26.3736 3.72 26.9023 3.72ZM31.5451 7.386C31.5451 6.66667 31.6924 6.02967 31.9871 5.475C32.2904 4.92033 32.6977 4.49133 33.2091 4.188C33.7291 3.876 34.3011 3.72 34.9251 3.72C35.4884 3.72 35.9781 3.83267 36.3941 4.058C36.8187 4.27467 37.1567 4.54767 37.4081 4.877V3.837H38.9031V11H37.4081V9.934C37.1567 10.272 36.8144 10.5537 36.3811 10.779C35.9477 11.0043 35.4537 11.117 34.8991 11.117C34.2837 11.117 33.7204 10.961 33.2091 10.649C32.6977 10.3283 32.2904 9.88633 31.9871 9.323C31.6924 8.751 31.5451 8.10533 31.5451 7.386ZM37.4081 7.412C37.4081 6.918 37.3041 6.489 37.0961 6.125C36.8967 5.761 36.6324 5.48367 36.3031 5.293C35.9737 5.10233 35.6184 5.007 35.2371 5.007C34.8557 5.007 34.5004 5.10233 34.1711 5.293C33.8417 5.475 33.5731 5.748 33.3651 6.112C33.1657 6.46733 33.0661 6.892 33.0661 7.386C33.0661 7.88 33.1657 8.31333 33.3651 8.686C33.5731 9.05867 33.8417 9.34467 34.1711 9.544C34.5091 9.73467 34.8644 9.83 35.2371 9.83C35.6184 9.83 35.9737 9.73467 36.3031 9.544C36.6324 9.35333 36.8967 9.076 37.0961 8.712C37.3041 8.33933 37.4081 7.906 37.4081 7.412ZM44.7636 3.72C45.3269 3.72 45.8296 3.837 46.2716 4.071C46.7223 4.305 47.0733 4.65167 47.3246 5.111C47.5759 5.57033 47.7016 6.125 47.7016 6.775V11H46.2326V6.996C46.2326 6.35467 46.0723 5.865 45.7516 5.527C45.4309 5.18033 44.9933 5.007 44.4386 5.007C43.8839 5.007 43.4419 5.18033 43.1126 5.527C42.7919 5.865 42.6316 6.35467 42.6316 6.996V11H41.1496V3.837H42.6316V4.656C42.8743 4.36133 43.1819 4.13167 43.5546 3.967C43.9359 3.80233 44.3389 3.72 44.7636 3.72ZM51.621 5.046V9.011C51.621 9.27967 51.6817 9.47467 51.803 9.596C51.933 9.70867 52.1497 9.765 52.453 9.765H53.363V11H52.193C51.5257 11 51.0143 10.844 50.659 10.532C50.3037 10.22 50.126 9.713 50.126 9.011V5.046H49.281V3.837H50.126V2.056H51.621V3.837H53.363V5.046H51.621ZM58.7339 3.72C59.2799 3.72 59.7652 3.837 60.1899 4.071C60.6232 4.305 60.9612 4.65167 61.2039 5.111C61.4552 5.57033 61.5809 6.125 61.5809 6.775V11H60.1119V6.996C60.1119 6.35467 59.9516 5.865 59.6309 5.527C59.3102 5.18033 58.8726 5.007 58.3179 5.007C57.7632 5.007 57.3212 5.18033 56.9919 5.527C56.6712 5.865 56.5109 6.35467 56.5109 6.996V11H55.0289V1.38H56.5109V4.669C56.7622 4.36567 57.0786 4.13167 57.4599 3.967C57.8499 3.80233 58.2746 3.72 58.7339 3.72ZM63.2773 7.386C63.2773 6.66667 63.4246 6.02967 63.7193 5.475C64.0226 4.92033 64.43 4.49133 64.9413 4.188C65.4613 3.876 66.0333 3.72 66.6573 3.72C67.2206 3.72 67.7103 3.83267 68.1263 4.058C68.551 4.27467 68.889 4.54767 69.1403 4.877V3.837H70.6353V11H69.1403V9.934C68.889 10.272 68.5466 10.5537 68.1133 10.779C67.68 11.0043 67.186 11.117 66.6313 11.117C66.016 11.117 65.4526 10.961 64.9413 10.649C64.43 10.3283 64.0226 9.88633 63.7193 9.323C63.4246 8.751 63.2773 8.10533 63.2773 7.386ZM69.1403 7.412C69.1403 6.918 69.0363 6.489 68.8283 6.125C68.629 5.761 68.3646 5.48367 68.0353 5.293C67.706 5.10233 67.3506 5.007 66.9693 5.007C66.588 5.007 66.2326 5.10233 65.9033 5.293C65.574 5.475 65.3053 5.748 65.0973 6.112C64.898 6.46733 64.7983 6.892 64.7983 7.386C64.7983 7.88 64.898 8.31333 65.0973 8.686C65.3053 9.05867 65.574 9.34467 65.9033 9.544C66.2413 9.73467 66.5966 9.83 66.9693 9.83C67.3506 9.83 67.706 9.73467 68.0353 9.544C68.3646 9.35333 68.629 9.076 68.8283 8.712C69.0363 8.33933 69.1403 7.906 69.1403 7.412ZM88.3238 1.965L85.6458 11H83.9688L82.0708 4.162L80.0558 11L78.3918 11.013L75.8308 1.965H77.4038L79.2758 9.323L81.3038 1.965H82.9678L84.8528 9.284L86.7378 1.965H88.3238ZM90.6001 2.888C90.3314 2.888 90.1061 2.797 89.9241 2.615C89.7421 2.433 89.6511 2.20767 89.6511 1.939C89.6511 1.67033 89.7421 1.445 89.9241 1.263C90.1061 1.081 90.3314 0.989999 90.6001 0.989999C90.8601 0.989999 91.0811 1.081 91.2631 1.263C91.4451 1.445 91.5361 1.67033 91.5361 1.939C91.5361 2.20767 91.4451 2.433 91.2631 2.615C91.0811 2.797 90.8601 2.888 90.6001 2.888ZM91.3281 3.837V11H89.8461V3.837H91.3281ZM95.0558 1.38V11H93.5738V1.38H95.0558ZM98.7836 1.38V11H97.3016V1.38H98.7836ZM101.783 2.888C101.515 2.888 101.289 2.797 101.107 2.615C100.925 2.433 100.834 2.20767 100.834 1.939C100.834 1.67033 100.925 1.445 101.107 1.263C101.289 1.081 101.515 0.989999 101.783 0.989999C102.043 0.989999 102.264 1.081 102.446 1.263C102.628 1.445 102.719 1.67033 102.719 1.939C102.719 2.20767 102.628 2.433 102.446 2.615C102.264 2.797 102.043 2.888 101.783 2.888ZM102.511 3.837V11H101.029V3.837H102.511ZM104.263 7.386C104.263 6.66667 104.41 6.02967 104.705 5.475C105.008 4.92033 105.416 4.49133 105.927 4.188C106.447 3.876 107.019 3.72 107.643 3.72C108.206 3.72 108.696 3.83267 109.112 4.058C109.537 4.27467 109.875 4.54767 110.126 4.877V3.837H111.621V11H110.126V9.934C109.875 10.272 109.532 10.5537 109.099 10.779C108.666 11.0043 108.172 11.117 107.617 11.117C107.002 11.117 106.438 10.961 105.927 10.649C105.416 10.3283 105.008 9.88633 104.705 9.323C104.41 8.751 104.263 8.10533 104.263 7.386ZM110.126 7.412C110.126 6.918 110.022 6.489 109.814 6.125C109.615 5.761 109.35 5.48367 109.021 5.293C108.692 5.10233 108.336 5.007 107.955 5.007C107.574 5.007 107.218 5.10233 106.889 5.293C106.56 5.475 106.291 5.748 106.083 6.112C105.884 6.46733 105.784 6.892 105.784 7.386C105.784 7.88 105.884 8.31333 106.083 8.686C106.291 9.05867 106.56 9.34467 106.889 9.544C107.227 9.73467 107.582 9.83 107.955 9.83C108.336 9.83 108.692 9.73467 109.021 9.544C109.35 9.35333 109.615 9.076 109.814 8.712C110.022 8.33933 110.126 7.906 110.126 7.412ZM122.539 3.72C123.102 3.72 123.605 3.837 124.047 4.071C124.497 4.305 124.848 4.65167 125.1 5.111C125.36 5.57033 125.49 6.125 125.49 6.775V11H124.021V6.996C124.021 6.35467 123.86 5.865 123.54 5.527C123.219 5.18033 122.781 5.007 122.227 5.007C121.672 5.007 121.23 5.18033 120.901 5.527C120.58 5.865 120.42 6.35467 120.42 6.996V11H118.951V6.996C118.951 6.35467 118.79 5.865 118.47 5.527C118.149 5.18033 117.711 5.007 117.157 5.007C116.602 5.007 116.16 5.18033 115.831 5.527C115.51 5.865 115.35 6.35467 115.35 6.996V11H113.868V3.837H115.35V4.656C115.592 4.36133 115.9 4.13167 116.273 3.967C116.645 3.80233 117.044 3.72 117.469 3.72C118.041 3.72 118.552 3.84133 119.003 4.084C119.453 4.32667 119.8 4.67767 120.043 5.137C120.259 4.70367 120.597 4.36133 121.057 4.11C121.516 3.85 122.01 3.72 122.539 3.72Z" fill="#273240"/>
</svg>
