<svg width="148" height="30" viewBox="0 0 148 30" fill="none" xmlns="http://www.w3.org/2000/svg">
<circle cx="15" cy="15" r="15" fill="#121212"/>
<path d="M14.5916 19.084C13.9756 19.084 13.4236 18.984 12.9356 18.784C12.4476 18.584 12.0556 18.288 11.7596 17.896C11.4716 17.504 11.3196 17.032 11.3036 16.48H13.4876C13.5196 16.792 13.6276 17.032 13.8116 17.2C13.9956 17.36 14.2356 17.44 14.5316 17.44C14.8356 17.44 15.0756 17.372 15.2516 17.236C15.4276 17.092 15.5156 16.896 15.5156 16.648C15.5156 16.44 15.4436 16.268 15.2996 16.132C15.1636 15.996 14.9916 15.884 14.7836 15.796C14.5836 15.708 14.2956 15.608 13.9196 15.496C13.3756 15.328 12.9316 15.16 12.5876 14.992C12.2436 14.824 11.9476 14.576 11.6996 14.248C11.4516 13.92 11.3276 13.492 11.3276 12.964C11.3276 12.18 11.6116 11.568 12.1796 11.128C12.7476 10.68 13.4876 10.456 14.3996 10.456C15.3276 10.456 16.0756 10.68 16.6436 11.128C17.2116 11.568 17.5156 12.184 17.5556 12.976H15.3356C15.3196 12.704 15.2196 12.492 15.0356 12.34C14.8516 12.18 14.6156 12.1 14.3276 12.1C14.0796 12.1 13.8796 12.168 13.7276 12.304C13.5756 12.432 13.4996 12.62 13.4996 12.868C13.4996 13.14 13.6276 13.352 13.8836 13.504C14.1396 13.656 14.5396 13.82 15.0836 13.996C15.6276 14.18 16.0676 14.356 16.4036 14.524C16.7476 14.692 17.0436 14.936 17.2916 15.256C17.5396 15.576 17.6636 15.988 17.6636 16.492C17.6636 16.972 17.5396 17.408 17.2916 17.8C17.0516 18.192 16.6996 18.504 16.2356 18.736C15.7716 18.968 15.2236 19.084 14.5916 19.084Z" fill="white"/>
<path d="M44.4239 20.098C43.7052 20.098 43.0612 19.9813 42.4919 19.748C41.9225 19.5147 41.4652 19.1693 41.1199 18.712C40.7839 18.2547 40.6065 17.704 40.5879 17.06H43.1359C43.1732 17.424 43.2992 17.704 43.5139 17.9C43.7285 18.0867 44.0085 18.18 44.3539 18.18C44.7085 18.18 44.9885 18.1007 45.1939 17.942C45.3992 17.774 45.5019 17.5453 45.5019 17.256C45.5019 17.0133 45.4179 16.8127 45.2499 16.654C45.0912 16.4953 44.8905 16.3647 44.6479 16.262C44.4145 16.1593 44.0785 16.0427 43.6399 15.912C43.0052 15.716 42.4872 15.52 42.0859 15.324C41.6845 15.128 41.3392 14.8387 41.0499 14.456C40.7605 14.0733 40.6159 13.574 40.6159 12.958C40.6159 12.0433 40.9472 11.3293 41.6099 10.816C42.2725 10.2933 43.1359 10.032 44.1999 10.032C45.2825 10.032 46.1552 10.2933 46.8179 10.816C47.4805 11.3293 47.8352 12.048 47.8819 12.972H45.2919C45.2732 12.6547 45.1565 12.4073 44.9419 12.23C44.7272 12.0433 44.4519 11.95 44.1159 11.95C43.8265 11.95 43.5932 12.0293 43.4159 12.188C43.2385 12.3373 43.1499 12.5567 43.1499 12.846C43.1499 13.1633 43.2992 13.4107 43.5979 13.588C43.8965 13.7653 44.3632 13.9567 44.9979 14.162C45.6325 14.3767 46.1459 14.582 46.5379 14.778C46.9392 14.974 47.2845 15.2587 47.5739 15.632C47.8632 16.0053 48.0079 16.486 48.0079 17.074C48.0079 17.634 47.8632 18.1427 47.5739 18.6C47.2939 19.0573 46.8832 19.4213 46.3419 19.692C45.8005 19.9627 45.1612 20.098 44.4239 20.098ZM55.1292 20.098C54.2052 20.098 53.3558 19.8833 52.5812 19.454C51.8158 19.0247 51.2045 18.4273 50.7472 17.662C50.2992 16.8873 50.0752 16.0193 50.0752 15.058C50.0752 14.0967 50.2992 13.2333 50.7472 12.468C51.2045 11.7027 51.8158 11.1053 52.5812 10.676C53.3558 10.2467 54.2052 10.032 55.1292 10.032C56.0532 10.032 56.8978 10.2467 57.6632 10.676C58.4378 11.1053 59.0445 11.7027 59.4832 12.468C59.9312 13.2333 60.1552 14.0967 60.1552 15.058C60.1552 16.0193 59.9312 16.8873 59.4832 17.662C59.0352 18.4273 58.4285 19.0247 57.6632 19.454C56.8978 19.8833 56.0532 20.098 55.1292 20.098ZM55.1292 17.914C55.9132 17.914 56.5385 17.6527 57.0052 17.13C57.4812 16.6073 57.7192 15.9167 57.7192 15.058C57.7192 14.19 57.4812 13.4993 57.0052 12.986C56.5385 12.4633 55.9132 12.202 55.1292 12.202C54.3358 12.202 53.7012 12.4587 53.2252 12.972C52.7585 13.4853 52.5252 14.1807 52.5252 15.058C52.5252 15.926 52.7585 16.6213 53.2252 17.144C53.7012 17.6573 54.3358 17.914 55.1292 17.914ZM64.839 10.172V16.052C64.839 16.64 64.9837 17.0927 65.273 17.41C65.5624 17.7273 65.987 17.886 66.547 17.886C67.107 17.886 67.5364 17.7273 67.835 17.41C68.1337 17.0927 68.283 16.64 68.283 16.052V10.172H70.677V16.038C70.677 16.9153 70.4904 17.6573 70.117 18.264C69.7437 18.8707 69.2397 19.328 68.605 19.636C67.9797 19.944 67.2797 20.098 66.505 20.098C65.7304 20.098 65.035 19.9487 64.419 19.65C63.8124 19.342 63.3317 18.8847 62.977 18.278C62.6224 17.662 62.445 16.9153 62.445 16.038V10.172H64.839ZM82.1501 20H79.7561L75.7521 13.938V20H73.3581V10.172H75.7521L79.7561 16.262V10.172H82.1501V20ZM88.5675 10.172C89.6035 10.172 90.5088 10.3773 91.2835 10.788C92.0581 11.1987 92.6555 11.7773 93.0755 12.524C93.5048 13.2613 93.7195 14.1153 93.7195 15.086C93.7195 16.0473 93.5048 16.9013 93.0755 17.648C92.6555 18.3947 92.0535 18.9733 91.2695 19.384C90.4948 19.7947 89.5941 20 88.5675 20H84.8855V10.172H88.5675ZM88.4135 17.928C89.3188 17.928 90.0235 17.6807 90.5275 17.186C91.0315 16.6913 91.2835 15.9913 91.2835 15.086C91.2835 14.1807 91.0315 13.476 90.5275 12.972C90.0235 12.468 89.3188 12.216 88.4135 12.216H87.2795V17.928H88.4135ZM103.127 10.172V12.09H100.523V20H98.1293V12.09H95.5253V10.172H103.127ZM110.341 20L108.297 16.29H107.723V20H105.329V10.172H109.347C110.121 10.172 110.779 10.3073 111.321 10.578C111.871 10.8487 112.282 11.222 112.553 11.698C112.823 12.1647 112.959 12.6873 112.959 13.266C112.959 13.9193 112.772 14.5027 112.399 15.016C112.035 15.5293 111.493 15.8933 110.775 16.108L113.043 20H110.341ZM107.723 14.596H109.207C109.645 14.596 109.972 14.4887 110.187 14.274C110.411 14.0593 110.523 13.756 110.523 13.364C110.523 12.9907 110.411 12.6967 110.187 12.482C109.972 12.2673 109.645 12.16 109.207 12.16H107.723V14.596ZM121.58 18.264H117.912L117.324 20H114.818L118.374 10.172H121.146L124.702 20H122.168L121.58 18.264ZM120.964 16.416L119.746 12.818L118.542 16.416H120.964ZM126.378 15.072C126.378 14.1013 126.588 13.238 127.008 12.482C127.428 11.7167 128.011 11.124 128.758 10.704C129.514 10.2747 130.368 10.06 131.32 10.06C132.487 10.06 133.485 10.368 134.316 10.984C135.147 11.6 135.702 12.44 135.982 13.504H133.35C133.154 13.0933 132.874 12.7807 132.51 12.566C132.155 12.3513 131.749 12.244 131.292 12.244C130.555 12.244 129.957 12.5007 129.5 13.014C129.043 13.5273 128.814 14.2133 128.814 15.072C128.814 15.9307 129.043 16.6167 129.5 17.13C129.957 17.6433 130.555 17.9 131.292 17.9C131.749 17.9 132.155 17.7927 132.51 17.578C132.874 17.3633 133.154 17.0507 133.35 16.64H135.982C135.702 17.704 135.147 18.544 134.316 19.16C133.485 19.7667 132.487 20.07 131.32 20.07C130.368 20.07 129.514 19.86 128.758 19.44C128.011 19.0107 127.428 18.418 127.008 17.662C126.588 16.906 126.378 16.0427 126.378 15.072ZM144.146 20L140.842 15.66V20H138.448V10.172H140.842V14.484L144.118 10.172H146.932L143.124 14.988L147.072 20H144.146Z" fill="#121212"/>
</svg>
